<svg width="34" height="36" viewBox="0 0 34 36" fill="none" xmlns="http://www.w3.org/2000/svg">
<path d="M12.9104 1.07404C15.4411 -0.358014 18.5589 -0.358014 21.0896 1.07404L29.9104 6.06567C32.4411 7.49772 34 10.1443 34 13.0084V22.9916C34 25.8557 32.4411 28.5023 29.9104 29.9343L21.0896 34.926C18.5589 36.358 15.4411 36.358 12.9104 34.926L4.08956 29.9343C1.55893 28.5023 0 25.8557 0 22.9916V13.0084C0 10.1443 1.55893 7.49772 4.08956 6.06567L12.9104 1.07404Z" fill="#28282A"/>
<path d="M12.9104 1.07404C15.4411 -0.358014 18.5589 -0.358014 21.0896 1.07404L29.9104 6.06567C32.4411 7.49772 34 10.1443 34 13.0084V22.9916C34 25.8557 32.4411 28.5023 29.9104 29.9343L21.0896 34.926C18.5589 36.358 15.4411 36.358 12.9104 34.926L4.08956 29.9343C1.55893 28.5023 0 25.8557 0 22.9916V13.0084C0 10.1443 1.55893 7.49772 4.08956 6.06567L12.9104 1.07404Z" fill="url(#paint0_linear_9003_14772)" fill-opacity="0.12"/>
<path d="M20.8433 1.5092L29.6642 6.50082C32.041 7.84582 33.5 10.3278 33.5 13.0084V22.9916C33.5 25.6722 32.041 28.1542 29.6642 29.4992L20.8433 34.4908C18.4655 35.8364 15.5345 35.8364 13.1567 34.4908L4.33581 29.4992C1.95902 28.1542 0.5 25.6722 0.5 22.9916V13.0084C0.5 10.3278 1.95902 7.84582 4.33581 6.50082L13.1567 1.5092C15.5345 0.163601 18.4655 0.163601 20.8433 1.5092Z" stroke="white" stroke-opacity="0.08"/>
<path d="M17 27C21.9706 27 26 22.9706 26 18C26 13.0294 21.9706 9 17 9C12.0294 9 8 13.0294 8 18C8 22.9706 12.0294 27 17 27Z" fill="#FED056"/>
<path d="M17 25.3337C21.0502 25.3337 24.3336 22.0503 24.3336 18.0001C24.3336 13.9499 21.0502 10.6665 17 10.6665C12.9497 10.6665 9.66638 13.9499 9.66638 18.0001C9.66638 22.0503 12.9497 25.3337 17 25.3337Z" fill="#FEB635"/>
<path d="M24.3336 18C24.3336 22.043 21.0429 25.3336 17 25.3336C15.6816 25.3336 14.4476 24.9855 13.3789 24.3738C14.3633 24.866 15.4742 25.1438 16.6484 25.1438C20.6914 25.1438 23.982 21.8531 23.982 17.8102C23.982 15.0855 22.4844 12.702 20.2695 11.4398C22.6777 12.6422 24.3336 15.1277 24.3336 18ZM17.4992 11.0109C18.9441 11.0109 20.2906 11.4328 21.4226 12.1535C20.1922 11.2254 18.6594 10.6699 17 10.6699C12.957 10.6699 9.66638 13.957 9.66638 18.0035C9.66638 20.6121 11.0375 22.9113 13.0976 24.2051C11.3187 22.8656 10.1656 20.7387 10.1656 18.3445C10.1656 14.3016 13.4562 11.0109 17.4992 11.0109Z" fill="#FC9924"/>
<path d="M16.9479 17.4419C15.8659 17.4419 15.8405 18.6314 15.8405 19.1176C15.8405 19.6037 16.1726 20.4201 17.2118 20.4201C18.1912 20.4201 18.4638 19.9338 18.4638 19.4562C18.4638 18.9787 18.0294 17.4419 16.9479 17.4419Z" fill="#FC9924"/>
<path d="M19.3513 20.2954L19.4244 20.716L20.1555 20.9129L20.046 20.4764L19.3513 20.2954Z" fill="#FC9924"/>
<path d="M21.0748 20.3476L20.9966 20.0762L20.6781 20.4806L20.7303 20.8267L21.0748 20.3476Z" fill="#FC9924"/>
<path d="M21.3909 19.3628L21.079 19.3618L21.1913 18.1002V18.0986C21.1939 18.0707 21.1931 18.0423 21.1889 18.0141L21.1337 17.6571C21.0523 17.1326 20.7628 16.6544 20.3397 16.3451L19.6883 15.8693C19.4498 15.695 19.1902 15.5497 18.9167 15.4374L18.8859 15.4266L18.6705 15.364C18.0723 14.095 16.1273 13.0922 16.0354 13.0454L15.8285 12.9399L15.6972 15.0528L12.6226 14.9672L14.2161 16.7777L11.9601 17.6635L13.7142 18.4428L11.9399 19.1616L13.5786 20.2827L12.5879 21.8673L15.0817 21.3928L15.7472 22.1098L15.9189 22.2037L18.6728 22.6915L18.7364 22.6961L20.0141 22.651L20.2543 22.5205L20.628 21.993L20.4759 21.7171L20.5952 21.7165L20.6906 21.7006L21.2631 21.5079L21.4722 21.255L21.6961 19.7247L21.3909 19.3628ZM21.1662 21.2085L20.5937 21.4011L18.9815 21.4092L17.9827 20.9301L17.1834 21.1136L15.3236 20.6185L17.0001 21.5904L17.8069 21.4547L18.8093 21.9337L20.3772 21.8083L20.0035 22.3358L18.7258 22.3808L15.9719 21.8931L15.1852 21.0454L13.1673 21.5131L14.0034 20.1936L12.5307 19.1859L14.1354 18.6299L14.3511 18.5552L14.3981 18.4055L14.5198 18.0183L14.6233 17.6892L14.6956 17.4591C14.9132 16.7669 15.3872 16.1931 16.011 15.8554C16.7768 16.1328 18.6669 16.8342 18.6669 16.8342C18.6669 16.8342 18.6127 16.1248 18.5344 15.871C18.5086 15.7874 18.4782 15.7057 18.4437 15.626L18.8011 15.7298C19.0486 15.8315 19.2862 15.9634 19.5082 16.1256L20.1595 16.6014C20.5183 16.8637 20.7591 17.2618 20.8282 17.7064L20.8831 18.0618C20.8892 18.1021 20.8347 18.1194 20.8173 18.0828C20.6297 17.6888 20.5062 17.3004 20.2237 17.3302C20.0974 17.3434 19.9931 17.4362 19.9535 17.5594C19.6651 18.4574 19.8394 18.9132 20.0949 19.4037L19.1292 19.728L19.0246 19.9568C19.4945 19.7119 20.2386 19.6746 20.2386 19.6746L21.3901 19.6781L21.1662 21.2085Z" fill="#FC9924"/>
<path d="M16.7079 17.2021C15.626 17.2021 15.6005 18.3917 15.6005 18.8778C15.6005 19.364 15.9326 20.1803 16.9718 20.1803C17.9512 20.1803 18.2238 19.6941 18.2238 19.2165C18.2238 18.7389 17.7894 17.2021 16.7079 17.2021Z" fill="#FED056"/>
<path d="M19.1113 20.0557L19.1845 20.4762L19.9155 20.6731L19.806 20.2367L19.1113 20.0557Z" fill="#FED056"/>
<path d="M20.8348 20.1079L20.7566 19.8364L20.4381 20.2408L20.4903 20.587L20.8348 20.1079Z" fill="#FED056"/>
<path d="M21.1509 19.123L20.839 19.122L20.9514 17.8605V17.8589C20.954 17.831 20.9531 17.8026 20.9489 17.7743L20.8937 17.4174C20.8123 16.8929 20.5229 16.4147 20.0997 16.1054L19.4483 15.6296C19.2098 15.4552 18.9502 15.3099 18.6767 15.1977L18.6459 15.1868L18.4305 15.1242C17.8323 13.8553 15.8873 12.8524 15.7954 12.8056L15.5885 12.7002L15.4572 14.8131L12.3826 14.7274L13.9761 16.5379L11.7201 17.4238L13.4742 18.2031L11.7 18.9218L13.3386 20.043L12.348 21.6276L14.8417 21.153L15.5072 21.87L15.6789 21.964L18.4328 22.4518L18.4964 22.4563L19.7741 22.4113L20.0143 22.2807L20.388 21.7532L20.2359 21.4773L20.3552 21.4767L20.4506 21.4608L21.0231 21.2682L21.2322 21.0153L21.4561 19.4849L21.1509 19.123ZM20.9262 20.9687L20.3537 21.1614L18.7415 21.1694L17.7427 20.6903L16.9434 20.8739L15.0836 20.3788L16.7602 21.3507L17.5669 21.215L18.5693 21.6939L20.1372 21.5685L19.7635 22.0961L18.4858 22.1411L15.7319 21.6533L14.9452 20.8056L12.9273 21.2734L13.7634 19.9538L12.2907 18.9462L13.8954 18.3902L14.1111 18.3155L14.1581 18.1658L14.2799 17.7785L14.3833 17.4494L14.4556 17.2193C14.6732 16.5272 15.1472 15.9534 15.771 15.6157C16.5368 15.8931 18.4269 16.5944 18.4269 16.5944C18.4269 16.5944 18.3727 15.885 18.2944 15.6312C18.2686 15.5477 18.2382 15.466 18.2037 15.3862L18.5611 15.4901C18.8086 15.5917 19.0462 15.7237 19.2682 15.8859L19.9195 16.3617C20.2784 16.6239 20.5191 17.022 20.5882 17.4667L20.6431 17.822C20.6492 17.8624 20.5947 17.8797 20.5773 17.8431C20.3897 17.449 20.2662 17.0606 19.9837 17.0904C19.8574 17.1037 19.7531 17.1965 19.7135 17.3196C19.4251 18.2176 19.5994 18.6735 19.8549 19.1639L18.8892 19.4882L18.7846 19.717C19.2546 19.4722 19.9986 19.4349 19.9986 19.4349L21.1501 19.4384L20.9262 20.9687Z" fill="#FED056"/>
<defs>
<linearGradient id="paint0_linear_9003_14772" x1="-2.95632" y1="43.8228" x2="68.2163" y2="-28.6243" gradientUnits="userSpaceOnUse">
<stop stop-color="#FDEB32"/>
<stop offset="0.439058" stop-color="#FEBD04"/>
<stop offset="1" stop-color="#D75902"/>
</linearGradient>
</defs>
</svg>
