<svg width="34" height="36" viewBox="0 0 34 36" fill="none" xmlns="http://www.w3.org/2000/svg">
<path d="M12.9104 1.07404C15.4411 -0.358014 18.5589 -0.358014 21.0896 1.07404L29.9104 6.06567C32.4411 7.49772 34 10.1443 34 13.0084V22.9916C34 25.8557 32.4411 28.5023 29.9104 29.9343L21.0896 34.926C18.5589 36.358 15.4411 36.358 12.9104 34.926L4.08956 29.9343C1.55893 28.5023 0 25.8557 0 22.9916V13.0084C0 10.1443 1.55893 7.49772 4.08956 6.06567L12.9104 1.07404Z" fill="#28282A"/>
<path d="M12.9104 1.07404C15.4411 -0.358014 18.5589 -0.358014 21.0896 1.07404L29.9104 6.06567C32.4411 7.49772 34 10.1443 34 13.0084V22.9916C34 25.8557 32.4411 28.5023 29.9104 29.9343L21.0896 34.926C18.5589 36.358 15.4411 36.358 12.9104 34.926L4.08956 29.9343C1.55893 28.5023 0 25.8557 0 22.9916V13.0084C0 10.1443 1.55893 7.49772 4.08956 6.06567L12.9104 1.07404Z" fill="url(#paint0_linear_9003_14763)" fill-opacity="0.12"/>
<path d="M20.8433 1.5092L29.6642 6.50082C32.041 7.84582 33.5 10.3278 33.5 13.0084V22.9916C33.5 25.6722 32.041 28.1542 29.6642 29.4992L20.8433 34.4908C18.4655 35.8364 15.5345 35.8364 13.1567 34.4908L4.33581 29.4992C1.95902 28.1542 0.5 25.6722 0.5 22.9916V13.0084C0.5 10.3278 1.95902 7.84582 4.33581 6.50082L13.1567 1.5092C15.5345 0.163601 18.4655 0.163601 20.8433 1.5092Z" stroke="white" stroke-opacity="0.08"/>
<path fill-rule="evenodd" clip-rule="evenodd" d="M16.5197 24.2465L12.469 26.841C12.0478 27.1107 11.4972 26.9725 11.2391 26.532C11.1131 26.317 11.0755 26.0578 11.1349 25.8133L11.762 23.233C11.9884 22.3014 12.598 21.5228 13.4267 21.1068L17.8458 18.8886C18.0519 18.7851 18.1388 18.5267 18.0398 18.3113C17.9597 18.1368 17.7786 18.0392 17.5962 18.0722L12.6771 18.9626C11.6771 19.1436 10.6517 18.8549 9.87392 18.1734L8.31993 16.8119C7.94134 16.4802 7.89164 15.8904 8.20891 15.4946C8.36321 15.3021 8.58511 15.1826 8.82462 15.163L13.5725 14.7745C13.9079 14.747 14.2003 14.5251 14.329 14.2001L16.1606 9.57745C16.3497 9.10034 16.8729 8.87379 17.3292 9.07144C17.5484 9.16635 17.7225 9.34836 17.8132 9.57745L19.6449 14.2001C19.7736 14.5251 20.066 14.747 20.4014 14.7745L25.1754 15.1651C25.6678 15.2054 26.0358 15.6554 25.9972 16.1703C25.9787 16.418 25.8666 16.6477 25.6858 16.809L22.0449 20.0541C21.7886 20.2825 21.6768 20.6422 21.7556 20.9846L22.875 25.8461C22.9906 26.3482 22.695 26.8532 22.2147 26.974C21.984 27.0321 21.7406 26.9919 21.5382 26.8623L17.4542 24.2465C17.1674 24.0629 16.8064 24.0629 16.5197 24.2465Z" fill="url(#paint1_linear_9003_14763)"/>
<defs>
<linearGradient id="paint0_linear_9003_14763" x1="-2.95632" y1="43.8228" x2="68.2163" y2="-28.6243" gradientUnits="userSpaceOnUse">
<stop stop-color="#FDEB32"/>
<stop offset="0.439058" stop-color="#FEBD04"/>
<stop offset="1" stop-color="#D75902"/>
</linearGradient>
<linearGradient id="paint1_linear_9003_14763" x1="6.43489" y1="30.9114" x2="41.9272" y2="-7.34159" gradientUnits="userSpaceOnUse">
<stop stop-color="#FDEB32"/>
<stop offset="0.439058" stop-color="#FEBD04"/>
<stop offset="1" stop-color="#D75902"/>
</linearGradient>
</defs>
</svg>
