<svg width="34" height="36" viewBox="0 0 34 36" fill="none" xmlns="http://www.w3.org/2000/svg">
<path d="M12.9104 1.07404C15.4411 -0.358014 18.5589 -0.358014 21.0896 1.07404L29.9104 6.06567C32.4411 7.49772 34 10.1443 34 13.0084V22.9916C34 25.8557 32.4411 28.5023 29.9104 29.9343L21.0896 34.926C18.5589 36.358 15.4411 36.358 12.9104 34.926L4.08956 29.9343C1.55893 28.5023 0 25.8557 0 22.9916V13.0084C0 10.1443 1.55893 7.49772 4.08956 6.06567L12.9104 1.07404Z" fill="#28282A"/>
<path d="M12.9104 1.07404C15.4411 -0.358014 18.5589 -0.358014 21.0896 1.07404L29.9104 6.06567C32.4411 7.49772 34 10.1443 34 13.0084V22.9916C34 25.8557 32.4411 28.5023 29.9104 29.9343L21.0896 34.926C18.5589 36.358 15.4411 36.358 12.9104 34.926L4.08956 29.9343C1.55893 28.5023 0 25.8557 0 22.9916V13.0084C0 10.1443 1.55893 7.49772 4.08956 6.06567L12.9104 1.07404Z" fill="url(#paint0_linear_9003_14769)" fill-opacity="0.12"/>
<path d="M20.8433 1.5092L29.6642 6.50082C32.041 7.84582 33.5 10.3278 33.5 13.0084V22.9916C33.5 25.6722 32.041 28.1542 29.6642 29.4992L20.8433 34.4908C18.4655 35.8364 15.5345 35.8364 13.1567 34.4908L4.33581 29.4992C1.95902 28.1542 0.5 25.6722 0.5 22.9916V13.0084C0.5 10.3278 1.95902 7.84582 4.33581 6.50082L13.1567 1.5092C15.5345 0.163601 18.4655 0.163601 20.8433 1.5092Z" stroke="white" stroke-opacity="0.08"/>
<path d="M21.1853 10.6743H15.1197V13.3921C15.1197 13.7431 14.8317 14.0221 14.4897 14.0221C14.1478 14.0221 13.8598 13.7431 13.8598 13.3921V10.6743H12.8158C9.26108 10.6743 8.09115 11.7362 8.01016 15.057C8.00116 15.219 8.07315 15.39 8.19014 15.507C8.30714 15.633 8.46013 15.696 8.64012 15.696C9.90003 15.696 10.935 16.7399 10.935 17.9998C10.935 19.2598 9.90003 20.3037 8.64012 20.3037C8.46913 20.3037 8.30714 20.3667 8.19014 20.4927C8.07315 20.6097 8.00116 20.7807 8.01016 20.9427C8.09115 24.2634 9.26108 25.3254 12.8158 25.3254H13.8598V22.6076C13.8598 22.2566 14.1478 21.9776 14.4897 21.9776C14.8317 21.9776 15.1197 22.2566 15.1197 22.6076V25.3254H21.1853C24.8751 25.3254 26 24.2004 26 20.5107V15.489C26 11.7992 24.8751 10.6743 21.1853 10.6743ZM22.8232 17.9099L21.9863 18.7198C21.9503 18.7468 21.9413 18.8008 21.9503 18.8458L22.1482 19.9887C22.1842 20.1957 22.1033 20.4117 21.9233 20.5377C21.7523 20.6637 21.5273 20.6817 21.3383 20.5827L20.3034 20.0427C20.2674 20.0247 20.2134 20.0247 20.1774 20.0427L19.1424 20.5827C19.0614 20.6277 18.9715 20.6457 18.8815 20.6457C18.7645 20.6457 18.6565 20.6097 18.5575 20.5377C18.3865 20.4117 18.2965 20.2047 18.3325 19.9887L18.5305 18.8458C18.5395 18.8008 18.5215 18.7558 18.4945 18.7198L17.6575 17.9099C17.5045 17.7659 17.4506 17.5409 17.5135 17.3429C17.5765 17.1359 17.7475 16.9919 17.9635 16.9649L19.1154 16.7939C19.1604 16.7849 19.1964 16.7579 19.2234 16.7219L19.7364 15.678C19.8354 15.489 20.0244 15.372 20.2404 15.372C20.4564 15.372 20.6453 15.489 20.7353 15.678L21.2483 16.7219C21.2663 16.7669 21.3023 16.7939 21.3473 16.7939L22.4992 16.9649C22.7152 16.9919 22.8862 17.1449 22.9492 17.3429C23.0302 17.5409 22.9762 17.7569 22.8232 17.9099Z" fill="#FEC70F"/>
<defs>
<linearGradient id="paint0_linear_9003_14769" x1="-2.95632" y1="43.8228" x2="68.2163" y2="-28.6243" gradientUnits="userSpaceOnUse">
<stop stop-color="#FDEB32"/>
<stop offset="0.439058" stop-color="#FEBD04"/>
<stop offset="1" stop-color="#D75902"/>
</linearGradient>
</defs>
</svg>
