<svg width="34" height="36" viewBox="0 0 34 36" fill="none" xmlns="http://www.w3.org/2000/svg">
<path d="M12.9104 1.07404C15.4411 -0.358014 18.5589 -0.358014 21.0896 1.07404L29.9104 6.06567C32.4411 7.49772 34 10.1443 34 13.0084V22.9916C34 25.8557 32.4411 28.5023 29.9104 29.9343L21.0896 34.926C18.5589 36.358 15.4411 36.358 12.9104 34.926L4.08956 29.9343C1.55893 28.5023 0 25.8557 0 22.9916V13.0084C0 10.1443 1.55893 7.49772 4.08956 6.06567L12.9104 1.07404Z" fill="#28282A"/>
<path d="M12.9104 1.07404C15.4411 -0.358014 18.5589 -0.358014 21.0896 1.07404L29.9104 6.06567C32.4411 7.49772 34 10.1443 34 13.0084V22.9916C34 25.8557 32.4411 28.5023 29.9104 29.9343L21.0896 34.926C18.5589 36.358 15.4411 36.358 12.9104 34.926L4.08956 29.9343C1.55893 28.5023 0 25.8557 0 22.9916V13.0084C0 10.1443 1.55893 7.49772 4.08956 6.06567L12.9104 1.07404Z" fill="url(#paint0_linear_9003_14778)" fill-opacity="0.12"/>
<path d="M20.8433 1.5092L29.6642 6.50082C32.041 7.84582 33.5 10.3278 33.5 13.0084V22.9916C33.5 25.6722 32.041 28.1542 29.6642 29.4992L20.8433 34.4908C18.4655 35.8364 15.5345 35.8364 13.1567 34.4908L4.33581 29.4992C1.95902 28.1542 0.5 25.6722 0.5 22.9916V13.0084C0.5 10.3278 1.95902 7.84582 4.33581 6.50082L13.1567 1.5092C15.5345 0.163601 18.4655 0.163601 20.8433 1.5092Z" stroke="white" stroke-opacity="0.08"/>
<path fill-rule="evenodd" clip-rule="evenodd" d="M23.3372 13.3194C23.1709 13.0024 22.8999 12.7528 22.5703 12.613C22.2744 12.4623 21.9478 12.3817 21.6157 12.3775H12.3286C11.9781 12.3556 11.6289 12.4375 11.3246 12.613C11.1322 12.6762 10.9543 12.7771 10.8013 12.9099C10.6483 13.0427 10.5233 13.2046 10.4336 13.3862C10.2335 13.7259 10.1466 14.1204 10.1854 14.5127C10.2139 14.875 10.3428 15.2221 10.5577 15.5151L16.3158 25.5707C16.3876 25.6758 16.4836 25.7622 16.5958 25.8226C16.7079 25.8829 16.8329 25.9155 16.9602 25.9175C17.0912 25.9284 17.2226 25.9016 17.3388 25.8401C17.455 25.7786 17.5511 25.6851 17.6157 25.5707L23.3993 15.5151C23.6025 15.1985 23.702 14.8264 23.6841 14.4507C23.6653 14.0504 23.546 13.6614 23.3372 13.3194ZM16.2299 22.4331L11.7956 14.6941C11.681 14.4586 11.6222 14.3409 11.6222 14.3409C11.6055 14.2358 11.6264 14.1282 11.681 14.037C11.7254 13.9305 11.8101 13.8459 11.9165 13.8015H16.2299V22.4331ZM22.1487 14.3838C22.1726 14.5025 22.1726 14.6247 22.1487 14.7434L17.6157 22.4713V13.8524H21.5536C21.6929 13.8372 21.8337 13.858 21.9625 13.9129L22.0246 13.9749C22.0867 13.9749 22.0867 14.0863 22.1487 14.0863C22.1773 14.1834 22.1773 14.2867 22.1487 14.3838Z" fill="white"/>
<defs>
<linearGradient id="paint0_linear_9003_14778" x1="37.7763" y1="5.4" x2="-14.0782" y2="48.9322" gradientUnits="userSpaceOnUse">
<stop stop-color="#0DFFC6"/>
<stop offset="1" stop-color="#4635FD"/>
</linearGradient>
</defs>
</svg>
