<svg width="34" height="36" viewBox="0 0 34 36" fill="none" xmlns="http://www.w3.org/2000/svg">
<path d="M12.9104 1.07404C15.4411 -0.358014 18.5589 -0.358014 21.0896 1.07404L29.9104 6.06567C32.4411 7.49772 34 10.1443 34 13.0084V22.9916C34 25.8557 32.4411 28.5023 29.9104 29.9343L21.0896 34.926C18.5589 36.358 15.4411 36.358 12.9104 34.926L4.08956 29.9343C1.55893 28.5023 0 25.8557 0 22.9916V13.0084C0 10.1443 1.55893 7.49772 4.08956 6.06567L12.9104 1.07404Z" fill="#28282A"/>
<path d="M12.9104 1.07404C15.4411 -0.358014 18.5589 -0.358014 21.0896 1.07404L29.9104 6.06567C32.4411 7.49772 34 10.1443 34 13.0084V22.9916C34 25.8557 32.4411 28.5023 29.9104 29.9343L21.0896 34.926C18.5589 36.358 15.4411 36.358 12.9104 34.926L4.08956 29.9343C1.55893 28.5023 0 25.8557 0 22.9916V13.0084C0 10.1443 1.55893 7.49772 4.08956 6.06567L12.9104 1.07404Z" fill="url(#paint0_linear_9003_14766)" fill-opacity="0.12"/>
<path d="M20.8433 1.5092L29.6642 6.50082C32.041 7.84582 33.5 10.3278 33.5 13.0084V22.9916C33.5 25.6722 32.041 28.1542 29.6642 29.4992L20.8433 34.4908C18.4655 35.8364 15.5345 35.8364 13.1567 34.4908L4.33581 29.4992C1.95902 28.1542 0.5 25.6722 0.5 22.9916V13.0084C0.5 10.3278 1.95902 7.84582 4.33581 6.50082L13.1567 1.5092C15.5345 0.163601 18.4655 0.163601 20.8433 1.5092Z" stroke="white" stroke-opacity="0.08"/>
<path d="M23.3205 12.125C23.9721 12.125 24.5659 12.1969 25.102 12.3407C25.6485 12.4735 26.1162 12.7059 26.5051 13.0378C26.9045 13.3586 27.2093 13.7846 27.4195 14.3157C27.6402 14.8468 27.7506 15.5051 27.7506 16.2906C27.7401 17.0983 27.5877 17.7898 27.2934 18.3651C27.0096 18.9404 26.6207 19.4051 26.1267 19.7592C25.7379 20.0468 25.2912 20.2571 24.7867 20.3898C24.2822 20.5115 23.7566 20.5724 23.2101 20.5724H21.4916V23.875H18.6381V12.125H23.3205ZM23.2101 17.9004C23.7566 17.9004 24.1771 17.7677 24.4714 17.5021C24.7762 17.2255 24.9338 16.8493 24.9443 16.3736C24.9548 15.8757 24.8235 15.5106 24.5502 15.2782C24.2769 15.0348 23.825 14.9131 23.1943 14.9131H21.4916V17.9004H23.2101Z" fill="url(#paint1_linear_9003_14766)"/>
<path d="M14.1323 12.125H17.4747L13.6751 18L17.585 23.875H14.1481L11.8621 20.1409L9.48147 23.875H6.24951L10.1909 17.9834L6.37564 12.125H9.79678L11.9882 15.8591L14.1323 12.125Z" fill="url(#paint2_linear_9003_14766)"/>
<defs>
<linearGradient id="paint0_linear_9003_14766" x1="37.7763" y1="5.4" x2="-14.0782" y2="48.9322" gradientUnits="userSpaceOnUse">
<stop stop-color="#0DFFC6"/>
<stop offset="1" stop-color="#4635FD"/>
</linearGradient>
<linearGradient id="paint1_linear_9003_14766" x1="28.7627" y1="13.8875" x2="12.7024" y2="24.9589" gradientUnits="userSpaceOnUse">
<stop stop-color="#0DFFC6"/>
<stop offset="1" stop-color="#4635FD"/>
</linearGradient>
<linearGradient id="paint2_linear_9003_14766" x1="18.844" y1="13.8875" x2="1.86064" y2="28.4513" gradientUnits="userSpaceOnUse">
<stop stop-color="#0DFFC6"/>
<stop offset="1" stop-color="#4635FD"/>
</linearGradient>
</defs>
</svg>
