<svg width="340" height="340" viewBox="0 0 340 340" fill="none" xmlns="http://www.w3.org/2000/svg">
<path d="M164.397 24.4982C166.236 27.5933 167.155 29.1409 168.355 29.6602C169.402 30.1133 170.598 30.1133 171.645 29.6602C172.845 29.1409 173.764 27.5933 175.603 24.4982L183.366 11.4316C185.205 8.33648 186.124 6.78893 185.987 5.51905C185.867 4.4114 185.269 3.40517 184.342 2.75053C183.279 2 181.44 2 177.763 2H162.237C158.56 2 156.721 2 155.658 2.75053C154.731 3.40517 154.133 4.4114 154.013 5.51905C153.876 6.78893 154.795 8.33648 156.634 11.4316L164.397 24.4982Z" fill="url(#paint0_linear_10037_15393)"/>
<path d="M164.397 24.4982C166.236 27.5933 167.155 29.1409 168.355 29.6602C169.402 30.1133 170.598 30.1133 171.645 29.6602C172.845 29.1409 173.764 27.5933 175.603 24.4982L183.366 11.4316C185.205 8.33648 186.124 6.78893 185.987 5.51905C185.867 4.4114 185.269 3.40517 184.342 2.75053C183.279 2 181.44 2 177.763 2H162.237C158.56 2 156.721 2 155.658 2.75053C154.731 3.40517 154.133 4.4114 154.013 5.51905C153.876 6.78893 154.795 8.33648 156.634 11.4316L164.397 24.4982Z" fill="url(#paint1_linear_10037_15393)"/>
<path fill-rule="evenodd" clip-rule="evenodd" d="M181.646 10.4101L173.884 23.4767C172.944 25.0585 172.309 26.1233 171.767 26.8691C171.221 27.6197 170.951 27.7812 170.851 27.8247C170.31 28.0584 169.69 28.0584 169.149 27.8247C169.049 27.7812 168.779 27.6197 168.233 26.8691C167.691 26.1233 167.056 25.0585 166.116 23.4767L158.354 10.4101C157.414 8.82796 156.783 7.76164 156.39 6.93341C155.991 6.09387 155.994 5.80509 156.002 5.73409C156.059 5.2094 156.344 4.7149 156.812 4.38431C156.901 4.32133 157.19 4.17108 158.145 4.08591C159.087 4.0019 160.36 4 162.237 4H177.763C179.64 4 180.913 4.0019 181.855 4.08591C182.81 4.17108 183.099 4.32133 183.188 4.38431C183.656 4.7149 183.941 5.20939 183.998 5.73409C184.006 5.80509 184.009 6.09387 183.61 6.93341C183.217 7.76164 182.586 8.82797 181.646 10.4101ZM168.355 29.6602C167.155 29.1409 166.236 27.5933 164.397 24.4982L156.634 11.4316C154.795 8.33648 153.876 6.78893 154.013 5.51905C154.133 4.4114 154.731 3.40517 155.658 2.75053C156.721 2 158.56 2 162.237 2H177.763C181.44 2 183.279 2 184.342 2.75053C185.269 3.40517 185.867 4.4114 185.987 5.51905C186.124 6.78893 185.205 8.33648 183.366 11.4316L175.603 24.4982C173.764 27.5933 172.845 29.1409 171.645 29.6602C170.598 30.1133 169.402 30.1133 168.355 29.6602Z" fill="url(#paint2_linear_10037_15393)"/>
<defs>
<linearGradient id="paint0_linear_10037_15393" x1="170" y1="2" x2="170" y2="80" gradientUnits="userSpaceOnUse">
<stop stop-color="#FEEBA2"/>
<stop offset="1" stop-color="#D0510D"/>
</linearGradient>
<linearGradient id="paint1_linear_10037_15393" x1="170" y1="2" x2="170" y2="70.5" gradientUnits="userSpaceOnUse">
<stop stop-color="#FED15F"/>
<stop offset="1" stop-color="#EF8122"/>
</linearGradient>
<linearGradient id="paint2_linear_10037_15393" x1="170" y1="30" x2="170" y2="2" gradientUnits="userSpaceOnUse">
<stop stop-color="#D0510D"/>
<stop offset="1" stop-color="#FEEAA1"/>
</linearGradient>
</defs>
</svg>
