<svg width="340" height="340" viewBox="0 0 340 340" fill="none" xmlns="http://www.w3.org/2000/svg">
<circle cx="170" cy="170" r="146.5" stroke="black" stroke-opacity="0.24" stroke-width="3"/>
<path d="M198.288 27.7861C233.592 34.8085 265.022 54.7112 286.465 83.6231C307.907 112.535 317.83 148.389 314.302 184.211C310.774 220.034 294.048 253.263 267.377 277.437C240.707 301.61 205.998 314.999 170.003 315C134.007 315.001 99.2979 301.613 72.6264 277.44C45.9548 253.268 29.2278 220.039 25.6986 184.216C22.1694 148.394 32.0905 112.54 53.5322 83.6273C74.9738 54.7147 106.403 34.8108 141.707 27.7872L170 170L198.288 27.7861Z" fill="url(#paint0_linear_10037_15397)"/>
<path d="M198.288 27.7861C233.592 34.8085 265.022 54.7112 286.465 83.6231C307.907 112.535 317.83 148.389 314.302 184.211C310.774 220.034 294.048 253.263 267.377 277.437C240.707 301.61 205.998 314.999 170.003 315C134.007 315.001 99.2979 301.613 72.6264 277.44C45.9548 253.268 29.2278 220.039 25.6986 184.216C22.1694 148.394 32.0905 112.54 53.5322 83.6273C74.9738 54.7147 106.403 34.8108 141.707 27.7872L170 170L198.288 27.7861Z" fill="url(#paint1_radial_10037_15397)"/>
<path d="M309.411 130.137C314.389 147.548 316.106 165.884 314.301 184.213C313.843 188.866 313.16 193.475 312.263 198.026L198.025 312.265C188.854 314.071 179.471 315 169.999 315C156.407 315 142.998 313.089 130.136 309.411L309.411 130.137ZM306.21 219.71C303.927 225.965 301.219 232.052 298.104 237.926L237.927 298.102C232.043 301.221 225.957 303.93 219.711 306.209L306.21 219.71ZM299.616 105.001C301.809 109.375 303.773 113.85 305.508 118.407L118.407 305.508C113.845 303.771 109.371 301.805 105.002 299.614L299.616 105.001ZM156.326 101.258L34.9076 222.676C33.2398 218.399 31.7741 214.038 30.516 209.607L153.428 86.6953L156.326 101.258ZM150.684 72.8965L27.3861 196.194C26.8531 193.292 26.4065 190.367 26.0502 187.423L149.007 64.4658L150.684 72.8965ZM147.691 57.8477L25.3598 180.179C22.9332 145.708 32.8969 111.451 53.5346 83.624C74.9772 54.712 106.407 34.8086 141.711 27.7861L147.691 57.8477ZM209.609 30.5146C214.044 31.7741 218.404 33.2415 222.676 34.9072L190.463 67.1201L194.798 45.3252L209.609 30.5146Z" fill="url(#paint2_linear_10037_15397)"/>
<circle cx="170" cy="170" r="153.5" stroke="url(#paint3_linear_10037_15397)" stroke-width="13"/>
<circle cx="170" cy="170" r="148.5" stroke="url(#paint4_linear_10037_15397)" stroke-width="3"/>
<circle cx="170" cy="170" r="158.5" stroke="url(#paint5_linear_10037_15397)" stroke-width="3"/>
<path d="M169.999 161.489L197.429 22.2539L202.612 23.2744L172.691 175.155L172.854 175.979L172.516 176.046L172.329 177L170 176.541L167.671 177L167.482 176.046L167.145 175.979L167.307 175.155L137.38 23.2363L142.563 22.2158L169.999 161.489Z" fill="url(#paint6_linear_10037_15397)"/>
<circle cx="170" cy="170" r="21" fill="url(#paint7_linear_10037_15397)"/>
<circle cx="170" cy="170" r="17" fill="url(#paint8_linear_10037_15397)"/>
<path fill-rule="evenodd" clip-rule="evenodd" d="M180.101 172.937L180.855 172.939L181.593 173.814L181.052 177.515L180.546 178.127L179.162 178.593L178.931 178.631L178.642 178.633L179.01 179.3L178.106 180.575L177.526 180.891L174.436 181L174.282 180.989L167.622 179.809L167.207 179.582L165.598 177.848L159.567 178.996L161.963 175.164L158 172.453L162.291 170.714L158.049 168.83L163.504 166.687L159.651 162.309L167.086 162.516L167.404 157.407L167.904 157.662C168.126 157.775 172.83 160.2 174.276 163.269L174.797 163.42L174.872 163.446C175.533 163.718 176.161 164.069 176.738 164.491L178.313 165.641C179.336 166.389 180.036 167.546 180.233 168.814L180.367 169.678C180.377 169.746 180.379 169.815 180.373 169.882V169.886L180.101 172.937ZM178.927 177.868L180.312 177.403L180.853 173.702L178.068 173.693C178.068 173.693 176.269 173.783 175.133 174.376L175.386 173.822L177.721 173.038C177.103 171.852 176.682 170.749 177.379 168.578C177.475 168.28 177.727 168.056 178.033 168.024C178.613 167.962 178.916 168.632 179.272 169.419C179.335 169.558 179.4 169.701 179.468 169.844C179.51 169.932 179.642 169.89 179.627 169.793L179.494 168.934C179.327 167.858 178.745 166.896 177.877 166.261L176.302 165.111C175.765 164.718 175.191 164.399 174.592 164.153L173.728 163.902C173.811 164.095 173.885 164.293 173.947 164.495C174.137 165.109 174.268 166.824 174.268 166.824C174.268 166.824 169.697 165.128 167.845 164.457C166.336 165.274 165.19 166.662 164.664 168.335L164.489 168.892L164.239 169.688L163.944 170.624L163.831 170.986L163.309 171.167L159.428 172.511L162.99 174.948L160.968 178.139L165.848 177.008L167.75 179.058L174.41 180.238L177.5 180.129L178.404 178.853L174.612 179.156L172.188 177.998L170.237 178.326L166.183 175.976L170.68 177.173L172.613 176.729L175.029 177.888L178.927 177.868ZM167.432 172.346C167.432 171.17 167.494 168.293 170.11 168.293C172.725 168.293 173.776 172.01 173.776 173.165C173.776 174.32 173.117 175.496 170.748 175.496C168.235 175.496 167.432 173.521 167.432 172.346ZM176.1 176.211L175.923 175.194L177.603 175.632L177.868 176.688L176.1 176.211ZM180.092 175.321L179.902 174.664L179.132 175.642L179.258 176.479L180.092 175.321Z" fill="url(#paint9_linear_10037_15397)"/>
<circle cx="170" cy="170" r="153.5" stroke="url(#paint10_radial_10037_15397)" stroke-width="13"/>
<circle cx="170" cy="170" r="158.5" stroke="url(#paint11_linear_10037_15397)" stroke-width="3"/>
<defs>
<linearGradient id="paint0_linear_10037_15397" x1="25" y1="25" x2="315" y2="315" gradientUnits="userSpaceOnUse">
<stop stop-color="white" stop-opacity="0.44"/>
<stop offset="0.5" stop-color="white" stop-opacity="0"/>
<stop offset="1" stop-color="white" stop-opacity="0.24"/>
</linearGradient>
<radialGradient id="paint1_radial_10037_15397" cx="0" cy="0" r="1" gradientUnits="userSpaceOnUse" gradientTransform="translate(230.5 203.5) rotate(-126.532) scale(237.704)">
<stop offset="0.284995" stop-color="white" stop-opacity="0"/>
<stop offset="1" stop-color="#FECE5D" stop-opacity="0.38"/>
</radialGradient>
<linearGradient id="paint2_linear_10037_15397" x1="170" y1="-35.061" x2="170" y2="375.061" gradientUnits="userSpaceOnUse">
<stop stop-color="white" stop-opacity="0.56"/>
<stop offset="0.5" stop-color="white" stop-opacity="0"/>
<stop offset="1" stop-color="white" stop-opacity="0.4"/>
</linearGradient>
<linearGradient id="paint3_linear_10037_15397" x1="170" y1="10" x2="170" y2="330" gradientUnits="userSpaceOnUse">
<stop stop-color="#FED15F"/>
<stop offset="1" stop-color="#EF8122"/>
</linearGradient>
<linearGradient id="paint4_linear_10037_15397" x1="170" y1="20" x2="170" y2="320" gradientUnits="userSpaceOnUse">
<stop stop-color="#D0510D"/>
<stop offset="1" stop-color="#FEEBA2" stop-opacity="0.5"/>
</linearGradient>
<linearGradient id="paint5_linear_10037_15397" x1="170" y1="10" x2="170" y2="330" gradientUnits="userSpaceOnUse">
<stop stop-color="#FEEBA2"/>
<stop offset="1" stop-color="#D0510D"/>
</linearGradient>
<linearGradient id="paint6_linear_10037_15397" x1="170" y1="16.4999" x2="170" y2="169.694" gradientUnits="userSpaceOnUse">
<stop stop-color="#FDCF5E"/>
<stop offset="1" stop-color="#FECF5D"/>
</linearGradient>
<linearGradient id="paint7_linear_10037_15397" x1="170" y1="149" x2="170" y2="191" gradientUnits="userSpaceOnUse">
<stop stop-color="#FED15F"/>
<stop offset="1" stop-color="#EF8122"/>
</linearGradient>
<linearGradient id="paint8_linear_10037_15397" x1="210" y1="115.5" x2="158" y2="208" gradientUnits="userSpaceOnUse">
<stop stop-color="#D0510D"/>
<stop offset="1" stop-color="#D0510D" stop-opacity="0.25"/>
</linearGradient>
<linearGradient id="paint9_linear_10037_15397" x1="168" y1="157" x2="162" y2="196" gradientUnits="userSpaceOnUse">
<stop stop-color="#FED056"/>
<stop offset="1" stop-color="#FED056" stop-opacity="0.36"/>
</linearGradient>
<radialGradient id="paint10_radial_10037_15397" cx="0" cy="0" r="1" gradientUnits="userSpaceOnUse" gradientTransform="translate(170 2.5) rotate(90) scale(34 25.4274)">
<stop offset="0.462193" stop-color="#D0510D"/>
<stop offset="1" stop-color="#D0510D" stop-opacity="0"/>
</radialGradient>
<linearGradient id="paint11_linear_10037_15397" x1="170" y1="10" x2="170" y2="330" gradientUnits="userSpaceOnUse">
<stop stop-color="#FEEBA2" stop-opacity="0.44"/>
<stop offset="1" stop-color="#D0510D"/>
</linearGradient>
</defs>
</svg>
