<svg width="340" height="340" viewBox="0 0 340 340" fill="none" xmlns="http://www.w3.org/2000/svg">
<g clip-path="url(#clip0_10052_17633)">
<mask id="path-1-inside-1_10052_17633" fill="white">
<path d="M274.652 274.651C260.909 288.394 244.594 299.296 226.637 306.734L170 170L274.652 274.651Z"/>
</mask>
<path d="M274.652 274.651C260.909 288.394 244.594 299.296 226.637 306.734L170 170L274.652 274.651Z" fill="#B92C4D" stroke="url(#paint0_linear_10052_17633)" mask="url(#path-1-inside-1_10052_17633)"/>
<mask id="path-2-inside-2_10052_17633" fill="white">
<path d="M226.637 306.734C208.681 314.171 189.436 318 170 318L170 170L226.637 306.734Z"/>
</mask>
<path d="M226.637 306.734C208.681 314.171 189.436 318 170 318L170 170L226.637 306.734Z" fill="#313B9D" stroke="url(#paint1_linear_10052_17633)" mask="url(#path-2-inside-2_10052_17633)"/>
<mask id="path-3-inside-3_10052_17633" fill="white">
<path d="M170 318C150.565 318 131.319 314.171 113.363 306.734L170 170L170 318Z"/>
</mask>
<path d="M170 318C150.565 318 131.319 314.171 113.363 306.734L170 170L170 318Z" fill="#B92C4D" stroke="url(#paint2_linear_10052_17633)" mask="url(#path-3-inside-3_10052_17633)"/>
<mask id="path-4-inside-4_10052_17633" fill="white">
<path d="M113.363 306.734C95.4069 299.296 79.0915 288.394 65.3484 274.651L170 170L113.363 306.734Z"/>
</mask>
<path d="M113.363 306.734C95.4069 299.296 79.0915 288.394 65.3484 274.651L170 170L113.363 306.734Z" fill="#313B9D" stroke="url(#paint3_linear_10052_17633)" mask="url(#path-4-inside-4_10052_17633)"/>
<mask id="path-5-inside-5_10052_17633" fill="white">
<path d="M65.3484 274.651C51.6054 260.908 40.7037 244.593 33.2661 226.637L170 170L65.3484 274.651Z"/>
</mask>
<path d="M65.3484 274.651C51.6054 260.908 40.7037 244.593 33.2661 226.637L170 170L65.3484 274.651Z" fill="#B92C4D" stroke="url(#paint4_linear_10052_17633)" mask="url(#path-5-inside-5_10052_17633)"/>
<mask id="path-6-inside-6_10052_17633" fill="white">
<path d="M33.2661 226.637C25.8284 208.68 22.0002 189.435 22.0002 169.999L170 170L33.2661 226.637Z"/>
</mask>
<path d="M33.2661 226.637C25.8284 208.68 22.0002 189.435 22.0002 169.999L170 170L33.2661 226.637Z" fill="#313B9D" stroke="url(#paint5_linear_10052_17633)" mask="url(#path-6-inside-6_10052_17633)"/>
<mask id="path-7-inside-7_10052_17633" fill="white">
<path d="M22.0002 170C22.0002 150.564 25.8284 131.319 33.2661 113.362L170 170L22.0002 170Z"/>
</mask>
<path d="M22.0002 170C22.0002 150.564 25.8284 131.319 33.2661 113.362L170 170L22.0002 170Z" fill="url(#paint6_linear_10052_17633)" stroke="url(#paint7_linear_10052_17633)" mask="url(#path-7-inside-7_10052_17633)"/>
<mask id="path-8-inside-8_10052_17633" fill="white">
<path d="M33.2661 113.362C40.7038 95.4062 51.6054 79.0908 65.3484 65.3477L170 170L33.2661 113.362Z"/>
</mask>
<path d="M33.2661 113.362C40.7038 95.4062 51.6054 79.0908 65.3484 65.3477L170 170L33.2661 113.362Z" fill="#313B9D" stroke="url(#paint8_linear_10052_17633)" mask="url(#path-8-inside-8_10052_17633)"/>
<mask id="path-9-inside-9_10052_17633" fill="white">
<path d="M65.3484 65.3477C79.0915 51.6046 95.4069 40.703 113.363 33.2653L170 170L65.3484 65.3477Z"/>
</mask>
<path d="M65.3484 65.3477C79.0915 51.6046 95.4069 40.703 113.363 33.2653L170 170L65.3484 65.3477Z" fill="#B92C4D" stroke="url(#paint9_linear_10052_17633)" mask="url(#path-9-inside-9_10052_17633)"/>
<mask id="path-10-inside-10_10052_17633" fill="white">
<path d="M113.363 33.2653C131.319 25.8276 150.565 21.9995 170 21.9995L170 170L113.363 33.2653Z"/>
</mask>
<path d="M113.363 33.2653C131.319 25.8276 150.565 21.9995 170 21.9995L170 170L113.363 33.2653Z" fill="#313B9D" stroke="url(#paint10_linear_10052_17633)" mask="url(#path-10-inside-10_10052_17633)"/>
<mask id="path-11-inside-11_10052_17633" fill="white">
<path d="M170 21.9995C189.436 21.9995 208.681 25.8277 226.637 33.2654L170 170L170 21.9995Z"/>
</mask>
<path d="M170 21.9995C189.436 21.9995 208.681 25.8277 226.637 33.2654L170 170L170 21.9995Z" fill="#B92C4D" stroke="url(#paint11_linear_10052_17633)" mask="url(#path-11-inside-11_10052_17633)"/>
<mask id="path-12-inside-12_10052_17633" fill="white">
<path d="M226.637 33.2653C244.594 40.703 260.909 51.6046 274.652 65.3477L170 170L226.637 33.2653Z"/>
</mask>
<path d="M226.637 33.2653C244.594 40.703 260.909 51.6046 274.652 65.3477L170 170L226.637 33.2653Z" fill="#313B9D" stroke="url(#paint12_linear_10052_17633)" mask="url(#path-12-inside-12_10052_17633)"/>
<mask id="path-13-inside-13_10052_17633" fill="white">
<path d="M274.652 65.3477C288.395 79.0908 299.297 95.4062 306.734 113.362L170 170L274.652 65.3477Z"/>
</mask>
<path d="M274.652 65.3477C288.395 79.0908 299.297 95.4062 306.734 113.362L170 170L274.652 65.3477Z" fill="#B92C4D" stroke="url(#paint13_linear_10052_17633)" mask="url(#path-13-inside-13_10052_17633)"/>
<mask id="path-14-inside-14_10052_17633" fill="white">
<path d="M306.734 113.362C314.172 131.319 318 150.564 318 170L170 170L306.734 113.362Z"/>
</mask>
<path d="M306.734 113.362C314.172 131.319 318 150.564 318 170L170 170L306.734 113.362Z" fill="#313B9D" stroke="url(#paint14_linear_10052_17633)" mask="url(#path-14-inside-14_10052_17633)"/>
<mask id="path-15-inside-15_10052_17633" fill="white">
<path d="M318 170C318 189.435 314.172 208.681 306.734 226.637L170 170L318 170Z"/>
</mask>
<path d="M318 170C318 189.435 314.172 208.681 306.734 226.637L170 170L318 170Z" fill="#B92C4D" stroke="url(#paint15_linear_10052_17633)" mask="url(#path-15-inside-15_10052_17633)"/>
<mask id="path-16-inside-16_10052_17633" fill="white">
<path d="M306.734 226.637C299.297 244.593 288.395 260.908 274.652 274.651L170 170L306.734 226.637Z"/>
</mask>
<path d="M306.734 226.637C299.297 244.593 288.395 260.908 274.652 274.651L170 170L306.734 226.637Z" fill="#313B9D" stroke="url(#paint16_linear_10052_17633)" mask="url(#path-16-inside-16_10052_17633)"/>
<g filter="url(#filter0_d_10052_17633)">
<g clip-path="url(#clip1_10052_17633)">
<path fill-rule="evenodd" clip-rule="evenodd" d="M268.391 235.165L268.484 230.355C268.494 229.855 268.915 229.474 269.424 229.504C269.673 229.519 269.909 229.632 270.08 229.817L271.877 231.772C272.526 232.478 272.834 233.417 272.72 234.337L272.109 239.244C272.08 239.473 272.247 239.689 272.481 239.726C272.671 239.756 272.853 239.66 272.926 239.49L274.919 234.905C275.324 233.973 276.134 233.281 277.133 233.013L279.128 232.477C279.614 232.347 280.132 232.633 280.285 233.117C280.359 233.352 280.335 233.603 280.219 233.813L277.904 237.977C277.74 238.271 277.762 238.637 277.961 238.925L280.787 243.016C281.079 243.438 280.976 243.999 280.559 244.269C280.358 244.398 280.11 244.442 279.869 244.39L275.008 243.345C274.666 243.271 274.319 243.391 274.11 243.654L271.133 247.407C270.826 247.794 270.247 247.85 269.84 247.532C269.645 247.379 269.516 247.158 269.482 246.918L268.807 242.088C268.759 241.748 268.522 241.455 268.194 241.33L263.53 239.56C263.048 239.377 262.793 238.851 262.959 238.385C263.039 238.16 263.208 237.98 263.428 237.884L267.872 235.942C268.184 235.805 268.384 235.505 268.391 235.165Z" fill="url(#paint17_linear_10052_17633)"/>
</g>
<path d="M252.068 224.038L255.662 218.66L256.628 219.306L257.543 224.009C257.656 224.578 257.774 225.05 257.895 225.423C258.024 225.801 258.175 226.104 258.348 226.332C258.524 226.573 258.736 226.776 258.984 226.942C259.403 227.222 259.823 227.317 260.242 227.227C260.662 227.137 261.019 226.87 261.315 226.428C261.595 226.009 261.738 225.56 261.743 225.081C261.749 224.602 261.612 224.067 261.333 223.477L262.619 223.191C262.916 223.906 263.035 224.592 262.978 225.249C262.928 225.912 262.709 226.534 262.32 227.116C261.972 227.636 261.574 228.021 261.126 228.272C260.673 228.53 260.195 228.649 259.693 228.628C259.199 228.612 258.719 228.448 258.253 228.137C257.904 227.904 257.609 227.623 257.369 227.294C257.136 226.97 256.937 226.545 256.772 226.019C256.602 225.501 256.437 224.824 256.277 223.988L255.64 220.834L253.058 224.699L252.068 224.038ZM252.973 225.733L253.2 227.03C252.603 226.968 252.071 227.033 251.604 227.227C251.146 227.426 250.774 227.738 250.489 228.165C250.131 228.701 250.025 229.247 250.169 229.803C250.316 230.373 250.676 230.85 251.251 231.234C251.592 231.462 251.948 231.593 252.318 231.627C252.691 231.674 253.038 231.625 253.359 231.48C253.688 231.341 253.966 231.1 254.194 230.759C254.402 230.449 254.525 230.088 254.564 229.676C254.611 229.27 254.519 228.871 254.286 228.48L254.578 228.119C254.937 228.438 255.193 228.794 255.345 229.188C255.506 229.586 255.557 229.997 255.499 230.419C255.445 230.854 255.288 231.265 255.028 231.653C254.686 232.165 254.255 232.534 253.734 232.758C253.221 232.988 252.676 233.073 252.099 233.013C251.525 232.966 250.973 232.766 250.446 232.413C249.879 232.035 249.458 231.573 249.181 231.029C248.905 230.486 248.789 229.903 248.834 229.282C248.886 228.666 249.107 228.067 249.496 227.485C249.895 226.887 250.39 226.432 250.98 226.119C251.579 225.812 252.243 225.683 252.973 225.733ZM255.304 235.07L258.05 230.961L258.193 231.781L254.286 228.48L254.978 227.444L259.366 231.133L256.294 235.731L255.304 235.07Z" fill="white"/>
</g>
<g filter="url(#filter1_d_10052_17633)">
<g clip-path="url(#clip2_10052_17633)">
<path fill-rule="evenodd" clip-rule="evenodd" d="M71.6098 104.835L71.5166 109.645C71.5068 110.145 71.086 110.526 70.5764 110.496C70.3276 110.481 70.0912 110.368 69.9209 110.183L68.1238 108.228C67.475 107.522 67.1663 106.583 67.2808 105.663L67.8916 100.756C67.9201 100.527 67.7534 100.311 67.5194 100.274C67.3298 100.244 67.148 100.34 67.0741 100.51L65.0815 105.095C64.6765 106.027 63.8668 106.719 62.868 106.987L60.8725 107.523C60.3865 107.653 59.8684 107.367 59.7156 106.883C59.6412 106.648 59.6651 106.397 59.7819 106.187L62.0967 102.023C62.2602 101.729 62.2381 101.363 62.0394 101.075L59.2134 96.9842C58.9217 96.5619 59.0241 96.001 59.4419 95.7314C59.6426 95.602 59.8906 95.5583 60.1315 95.6102L64.9928 96.6554C65.3345 96.7289 65.6815 96.6091 65.8906 96.3455L68.8677 92.5931C69.1748 92.206 69.7534 92.1501 70.1601 92.4682C70.3557 92.6212 70.4845 92.842 70.5181 93.0819L71.1936 97.9122C71.2411 98.2522 71.4781 98.545 71.8065 98.6696L76.4705 100.44C76.9523 100.623 77.2079 101.149 77.0416 101.615C76.9617 101.84 76.793 102.02 76.5729 102.116L72.129 104.058C71.8169 104.195 71.6164 104.495 71.6098 104.835Z" fill="url(#paint18_linear_10052_17633)"/>
</g>
<path d="M79.5661 110.465L80.5555 111.127L85.3379 119.845L84.4979 121.102L79.7389 112.349L76.9154 116.574L75.926 115.913L79.5661 110.465ZM87.1646 114.062L86.9368 112.765C87.5347 112.828 88.0668 112.762 88.5329 112.568C88.9913 112.37 89.3631 112.057 89.6483 111.63C90.0061 111.094 90.1128 110.548 89.9684 109.992C89.8214 109.422 89.4608 108.945 88.8866 108.562C88.5451 108.333 88.1893 108.202 87.8192 108.168C87.4465 108.121 87.0995 108.17 86.7784 108.315C86.4495 108.454 86.171 108.695 85.9428 109.036C85.7354 109.347 85.6121 109.708 85.5728 110.119C85.5258 110.525 85.6186 110.924 85.8511 111.315L85.5595 111.676C85.2001 111.357 84.9442 111.001 84.7918 110.608C84.6318 110.209 84.5804 109.798 84.6378 109.376C84.6926 108.942 84.8497 108.53 85.1089 108.142C85.4512 107.63 85.8826 107.262 86.4031 107.037C86.9159 106.807 87.4609 106.722 88.0381 106.782C88.6127 106.83 89.1639 107.029 89.6916 107.382C90.2581 107.761 90.6795 108.222 90.9559 108.766C91.2324 109.31 91.3482 109.892 91.3036 110.513C91.2512 111.129 91.0305 111.728 90.6416 112.31C90.2423 112.908 89.7474 113.363 89.1569 113.676C88.5586 113.983 87.8945 114.112 87.1646 114.062ZM84.8329 104.725L82.0873 108.834L81.9445 108.015L85.8511 111.315L85.1589 112.351L80.7712 108.662L83.8435 104.064L84.8329 104.725Z" fill="white"/>
</g>
<g filter="url(#filter2_d_10052_17633)">
<path d="M283.044 192.485C282.074 197.36 285.24 202.099 290.115 203.068C294.99 204.038 299.729 200.872 300.698 195.997C301.668 191.122 298.502 186.384 293.627 185.414C288.752 184.444 284.014 187.61 283.044 192.485Z" fill="#FED056"/>
<path d="M284.679 192.81C283.888 196.783 286.468 200.643 290.441 201.434C294.413 202.224 298.274 199.644 299.064 195.672C299.854 191.699 297.274 187.838 293.302 187.048C289.33 186.258 285.469 188.838 284.679 192.81Z" fill="#FEB635"/>
<path d="M290.44 201.434C286.475 200.645 283.89 196.776 284.679 192.81C284.936 191.517 285.518 190.375 286.326 189.446C285.652 190.316 285.162 191.351 284.933 192.503C284.145 196.468 286.73 200.337 290.695 201.126C293.368 201.658 295.998 200.654 297.667 198.728C296.018 200.855 293.258 201.994 290.44 201.434ZM298.629 196.094C298.347 197.511 297.67 198.75 296.743 199.719C297.893 198.694 298.737 197.299 299.06 195.671C299.849 191.706 297.267 187.837 293.298 187.048C290.74 186.539 288.217 187.435 286.547 189.203C288.207 187.72 290.518 187.004 292.867 187.471C296.832 188.26 299.417 192.129 298.629 196.094Z" fill="#FC9924"/>
<path d="M292.429 194.299C292.64 193.238 291.478 192.981 291.001 192.886C290.525 192.791 289.659 192.958 289.456 193.977C289.265 194.937 289.689 195.3 290.157 195.393C290.626 195.486 292.218 195.36 292.429 194.299Z" fill="#FC9924"/>
<path d="M289.161 196.1L288.734 196.089L288.399 196.768L288.848 196.746L289.161 196.1Z" fill="#FC9924"/>
<path d="M288.774 197.78L289.055 197.756L288.721 197.365L288.371 197.349L288.774 197.78Z" fill="#FC9924"/>
<path d="M289.678 198.282L289.74 197.976L290.955 198.333L290.957 198.333C290.984 198.341 291.012 198.346 291.04 198.347L291.401 198.362C291.931 198.385 292.457 198.194 292.843 197.84L293.436 197.294C293.654 197.094 293.847 196.867 294.011 196.621L294.027 196.593L294.131 196.394C295.492 196.055 296.855 194.343 296.919 194.262L297.063 194.079L295.016 193.538L295.7 190.54L293.613 191.749L293.184 189.364L292.078 190.932L291.719 189.052L290.3 190.44L288.939 189.16L288.918 191.698L288.085 192.211L287.959 192.361L286.943 194.967L286.927 195.028L286.721 196.29L286.803 196.551L287.247 197.021L287.547 196.925L287.525 197.042L287.522 197.139L287.599 197.738L287.806 197.993L289.263 198.511L289.678 198.282ZM287.912 197.702L287.834 197.102L288.141 195.52L288.806 194.634L288.782 193.814L289.63 192.086L288.35 193.541L288.325 194.359L287.66 195.248L287.477 196.811L287.033 196.341L287.238 195.079L288.253 192.473L289.238 191.867L289.173 189.797L290.304 190.874L291.58 189.626L291.812 191.309L291.843 191.535L291.981 191.61L292.337 191.805L292.64 191.971L292.851 192.087C293.488 192.435 293.958 193.012 294.167 193.69C293.746 194.387 292.689 196.104 292.689 196.104C292.689 196.104 293.396 196.189 293.66 196.162C293.747 196.153 293.833 196.139 293.918 196.12L293.746 196.451C293.598 196.674 293.423 196.881 293.22 197.067L292.626 197.613C292.299 197.914 291.862 198.072 291.412 198.053L291.053 198.038C291.012 198.036 291.006 197.979 291.045 197.969C291.468 197.862 291.873 197.817 291.899 197.534C291.911 197.407 291.84 197.287 291.727 197.224C290.903 196.766 290.422 196.848 289.891 197.003L289.761 195.992L289.557 195.845C289.705 196.354 289.597 197.091 289.597 197.091L289.369 198.22L287.912 197.702Z" fill="#FC9924"/>
<path d="M292.711 194.111C292.922 193.049 291.76 192.792 291.283 192.698C290.807 192.603 289.941 192.769 289.738 193.788C289.547 194.749 289.971 195.111 290.439 195.204C290.908 195.298 292.5 195.171 292.711 194.111Z" fill="#FED056"/>
<path d="M289.443 195.911L289.016 195.901L288.681 196.579L289.13 196.557L289.443 195.911Z" fill="#FED056"/>
<path d="M289.056 197.591L289.337 197.568L289.003 197.176L288.653 197.16L289.056 197.591Z" fill="#FED056"/>
<path d="M289.96 198.094L290.022 197.788L291.237 198.144L291.239 198.144C291.266 198.152 291.294 198.157 291.322 198.158L291.683 198.174C292.213 198.196 292.739 198.006 293.125 197.651L293.718 197.105C293.936 196.905 294.129 196.679 294.293 196.433L294.309 196.405L294.413 196.205C295.774 195.866 297.137 194.154 297.201 194.073L297.345 193.891L295.298 193.35L295.982 190.351L293.895 191.561L293.466 189.175L292.36 190.744L292.001 188.863L290.582 190.252L289.221 188.971L289.2 191.51L288.367 192.022L288.241 192.172L287.225 194.778L287.209 194.84L287.003 196.102L287.085 196.363L287.529 196.832L287.829 196.737L287.807 196.854L287.804 196.951L287.881 197.55L288.088 197.804L289.545 198.322L289.96 198.094ZM288.194 197.513L288.116 196.914L288.423 195.331L289.088 194.445L289.064 193.625L289.912 191.898L288.632 193.352L288.607 194.17L287.942 195.06L287.759 196.622L287.315 196.153L287.52 194.891L288.535 192.285L289.52 191.679L289.455 189.608L290.586 190.686L291.862 189.438L292.094 191.12L292.125 191.346L292.263 191.422L292.619 191.617L292.922 191.782L293.133 191.898C293.77 192.247 294.24 192.824 294.449 193.501C294.028 194.198 292.971 195.915 292.971 195.915C292.971 195.915 293.678 196 293.942 195.973C294.029 195.964 294.115 195.95 294.2 195.932L294.028 196.262C293.88 196.485 293.705 196.692 293.502 196.878L292.908 197.424C292.581 197.725 292.144 197.884 291.694 197.865L291.335 197.849C291.294 197.847 291.288 197.791 291.327 197.781C291.75 197.673 292.155 197.628 292.181 197.345C292.193 197.219 292.122 197.098 292.009 197.036C291.185 196.577 290.704 196.659 290.173 196.814L290.043 195.804L289.839 195.657C289.987 196.165 289.879 196.902 289.879 196.902L289.651 198.031L288.194 197.513Z" fill="#FED056"/>
<path d="M268.723 186.026L269.43 187.137C268.854 187.308 268.387 187.572 268.031 187.929C267.683 188.288 267.459 188.72 267.359 189.223C267.234 189.855 267.344 190.4 267.69 190.859C268.044 191.329 268.56 191.632 269.237 191.766C269.64 191.846 270.019 191.831 270.374 191.721C270.736 191.622 271.038 191.444 271.279 191.188C271.53 190.933 271.695 190.604 271.775 190.201C271.848 189.835 271.824 189.455 271.703 189.059C271.591 188.666 271.352 188.333 270.988 188.061L271.119 187.616C271.573 187.773 271.946 188.004 272.237 188.309C272.538 188.616 272.742 188.976 272.851 189.388C272.966 189.81 272.979 190.25 272.888 190.708C272.768 191.312 272.51 191.818 272.115 192.225C271.729 192.633 271.258 192.92 270.702 193.085C270.153 193.262 269.567 193.288 268.945 193.164C268.277 193.031 267.711 192.766 267.247 192.37C266.784 191.973 266.454 191.479 266.257 190.888C266.07 190.299 266.045 189.661 266.181 188.974C266.321 188.27 266.604 187.66 267.03 187.145C267.465 186.632 268.03 186.259 268.723 186.026ZM274.451 193.76L275.415 188.913L275.86 189.615L270.988 188.061L271.231 186.839L276.696 188.568L275.618 193.992L274.451 193.76Z" fill="white"/>
</g>
<rect width="16.6667" height="16.6416" transform="matrix(0.980785 0.19509 0.322264 0.94665 51.593 131.76)" fill="url(#paint19_linear_10052_17633)"/>
<rect width="16.6667" height="16.6416" transform="matrix(0.980785 0.19509 0.322264 0.94665 51.593 131.76)" fill="url(#paint20_linear_10052_17633)"/>
<rect width="0.950945" height="0.95238" rx="0.214286" transform="matrix(-0.322265 -0.94665 0.980785 0.19509 52.8298 133.475)" fill="#A63204" fill-opacity="0.26"/>
<rect width="0.952381" height="0.950947" rx="0.214286" transform="matrix(-0.980785 -0.19509 -0.322264 -0.94665 58.3608 147.164)" fill="#A63204" fill-opacity="0.26"/>
<rect width="0.950947" height="0.95238" rx="0.214286" transform="matrix(0.322264 0.94665 -0.980785 -0.19509 72.0656 149.05)" fill="#A63204" fill-opacity="0.26"/>
<rect width="0.95238" height="0.950945" rx="0.214286" transform="matrix(0.980785 0.19509 0.322265 0.94665 66.5346 135.361)" fill="#A63204" fill-opacity="0.26"/>
<path d="M64.9138 142.911C63.3106 142.592 62.8094 142.196 61.9331 141.344C61.0618 140.549 60.5321 139.639 59.5734 139.448C58.8346 139.301 58.5853 139.774 58.8328 140.501C59.1422 141.41 59.9667 142.153 60.9726 142.353L61.8028 144.792C59.5712 144.306 57.536 142.503 56.6749 139.973C55.9065 137.716 56.6954 136.461 58.5972 136.839C60.0747 137.133 60.9455 138.012 61.6282 138.769C62.2692 139.49 62.6233 139.928 63.0045 140.229C63.3596 140.498 63.6683 140.63 64.1713 140.73L64.9138 142.911ZM68.6743 143.885L66.0337 143.36L65.1519 140.77L67.7925 141.295L68.6743 143.885Z" fill="url(#paint21_linear_10052_17633)"/>
<rect width="16.6667" height="16.6416" transform="matrix(0.980785 0.19509 -0.660001 0.751265 56.9559 147.514)" fill="url(#paint22_linear_10052_17633)"/>
<rect width="16.6667" height="16.6416" transform="matrix(0.980785 0.19509 -0.660001 0.751265 56.9559 147.514)" fill="url(#paint23_linear_10052_17633)"/>
<rect width="0.950947" height="0.952381" rx="0.214286" transform="matrix(0.66 -0.751265 0.980785 0.19509 56.5581 148.903)" fill="#A63204" fill-opacity="0.26"/>
<rect width="0.95238" height="0.950946" rx="0.214286" transform="matrix(-0.980785 -0.19509 0.660001 -0.751265 48.0779 159.806)" fill="#A63204" fill-opacity="0.26"/>
<rect width="0.950946" height="0.952381" rx="0.214286" transform="matrix(-0.660001 0.751265 -0.980785 -0.19509 62.7167 161.878)" fill="#A63204" fill-opacity="0.26"/>
<rect width="0.952382" height="0.950947" rx="0.214286" transform="matrix(0.980785 0.19509 -0.660001 0.751265 71.197 150.976)" fill="#A63204" fill-opacity="0.26"/>
<path d="M60.8147 156.783C59.2115 156.464 59.0404 156.133 58.9186 155.431C58.7389 154.774 59.1051 154.042 58.1463 153.851C57.4076 153.704 56.5767 154.062 56.0698 154.639C55.4361 155.36 55.6161 155.975 56.622 156.175L54.9217 158.11C52.7372 157.633 52.2581 156.14 54.0218 154.132C55.5954 152.341 57.9561 151.399 59.8579 151.777C61.3354 152.071 61.4203 152.794 61.4114 153.413C61.3923 154.003 61.3377 154.359 61.4674 154.611C61.6024 154.835 61.8326 154.952 62.3355 155.052L60.8147 156.783ZM64.3237 157.707L61.6831 157.182L63.4891 155.126L66.1296 155.651L64.3237 157.707Z" fill="url(#paint24_linear_10052_17633)"/>
<rect width="16.6416" height="16.6416" transform="matrix(0.660001 -0.751265 0.322264 0.94665 40.6095 144.262)" fill="url(#paint25_linear_10052_17633)"/>
<rect width="16.6416" height="16.6416" transform="matrix(0.660001 -0.751265 0.322264 0.94665 40.6095 144.262)" fill="url(#paint26_linear_10052_17633)"/>
<rect width="0.950946" height="0.950946" rx="0.214286" transform="matrix(-0.322264 -0.94665 0.660001 -0.751265 41.6166 145.302)" fill="#A63204" fill-opacity="0.26"/>
<rect width="0.950946" height="0.950946" rx="0.214286" transform="matrix(-0.660001 0.751265 -0.322265 -0.946649 46.841 158.091)" fill="#A63204" fill-opacity="0.26"/>
<rect width="0.950947" height="0.950947" rx="0.214286" transform="matrix(0.322264 0.94665 -0.660001 0.751265 55.9489 146.474)" fill="#A63204" fill-opacity="0.26"/>
<rect width="0.950947" height="0.950947" rx="0.214286" transform="matrix(0.660001 -0.751265 0.322264 0.94665 50.7245 133.686)" fill="#A63204" fill-opacity="0.26"/>
<path d="M50.5785 145.567C49.5013 146.793 49.129 146.776 48.459 146.53C47.7991 146.356 47.3468 145.673 46.7025 146.406C46.2062 146.971 46.1013 147.868 46.3488 148.595C46.6582 149.504 47.2815 149.657 47.9574 148.887L48.7876 151.326C47.2831 152.975 45.7481 152.642 44.887 150.112C44.1186 147.855 44.4795 145.343 45.7574 143.888C46.7501 142.758 47.4198 143.047 47.953 143.365C48.4547 143.676 48.7366 143.902 49.0198 143.916C49.2821 143.911 49.498 143.771 49.8359 143.386L50.5785 145.567ZM53.1323 142.997L51.358 145.016L50.4762 142.426L52.2505 140.406L53.1323 142.997Z" fill="url(#paint27_linear_10052_17633)"/>
<g filter="url(#filter3_d_10052_17633)">
<path fill-rule="evenodd" clip-rule="evenodd" d="M285.651 146.506L282.316 143.04C281.969 142.679 281.998 142.112 282.379 141.773C282.566 141.607 282.812 141.52 283.064 141.531L285.717 141.642C286.675 141.682 287.557 142.129 288.127 142.86L291.165 146.762C291.306 146.944 291.577 146.978 291.769 146.839C291.924 146.727 291.985 146.53 291.917 146.358L290.084 141.707C289.711 140.761 289.794 139.699 290.311 138.803L291.343 137.014C291.595 136.578 292.163 136.414 292.613 136.648C292.832 136.761 292.993 136.956 293.059 137.187L294.366 141.768C294.458 142.091 294.733 142.335 295.077 142.398L299.968 143.292C300.473 143.385 300.797 143.854 300.692 144.34C300.642 144.573 300.498 144.779 300.291 144.913L296.114 147.611C295.82 147.801 295.66 148.131 295.698 148.465L296.247 153.224C296.303 153.715 295.933 154.163 295.421 154.226C295.175 154.256 294.927 154.191 294.734 154.045L290.841 151.107C290.567 150.901 290.192 150.861 289.872 151.005L285.322 153.051C284.852 153.263 284.299 153.071 284.087 152.624C283.985 152.409 283.977 152.162 284.065 151.939L285.833 147.423C285.957 147.106 285.887 146.752 285.651 146.506Z" fill="url(#paint28_linear_10052_17633)"/>
<path d="M267.341 147.027L268.419 147.783C267.952 148.161 267.622 148.584 267.43 149.05C267.246 149.515 267.204 149.999 267.305 150.502C267.43 151.134 267.741 151.596 268.237 151.887C268.743 152.186 269.335 152.268 270.013 152.133C270.416 152.053 270.76 151.894 271.046 151.657C271.342 151.426 271.553 151.147 271.678 150.817C271.812 150.486 271.839 150.119 271.759 149.716C271.686 149.35 271.518 149.008 271.255 148.689C271.001 148.368 270.653 148.152 270.212 148.04L270.163 147.579C270.643 147.55 271.076 147.621 271.462 147.791C271.857 147.96 272.183 148.214 272.441 148.553C272.71 148.899 272.89 149.301 272.981 149.759C273.101 150.363 273.056 150.929 272.847 151.455C272.647 151.981 272.322 152.426 271.871 152.792C271.431 153.165 270.9 153.413 270.278 153.537C269.609 153.67 268.985 153.642 268.405 153.452C267.825 153.263 267.331 152.933 266.924 152.462C266.525 151.99 266.258 151.41 266.121 150.724C265.981 150.019 266.009 149.347 266.205 148.708C266.411 148.068 266.79 147.507 267.341 147.027ZM275.592 151.98L274.628 147.133L275.308 147.611L270.212 148.04L269.969 146.818L275.68 146.324L276.759 151.748L275.592 151.98Z" fill="white"/>
</g>
<g filter="url(#filter4_d_10052_17633)">
<path d="M56.9558 192.486C55.9861 187.61 51.248 184.445 46.3729 185.414C41.4979 186.384 38.332 191.122 39.3017 195.997C40.2714 200.872 45.0095 204.038 49.8846 203.068C54.7596 202.099 57.9255 197.361 56.9558 192.486Z" fill="#FED056"/>
<path d="M55.3215 192.811C54.5313 188.838 50.6705 186.259 46.6981 187.049C42.7257 187.839 40.1459 191.7 40.9361 195.672C41.7263 199.644 45.5871 202.224 49.5595 201.434C53.5319 200.644 56.1116 196.783 55.3215 192.811Z" fill="#FEB635"/>
<path d="M46.698 187.049C50.6633 186.26 54.5327 188.846 55.3214 192.811C55.5786 194.104 55.478 195.382 55.0866 196.55C55.3772 195.488 55.4329 194.344 55.2038 193.193C54.4151 189.227 50.5457 186.642 46.5804 187.431C43.9082 187.962 41.8626 189.896 41.0568 192.315C41.7662 189.718 43.881 187.609 46.698 187.049ZM41.1766 195.115C40.8947 193.698 41.0458 192.295 41.5318 191.044C40.8616 192.432 40.6158 194.044 40.9395 195.672C41.7283 199.637 45.5942 202.223 49.5629 201.434C52.1214 200.925 54.1089 199.131 54.9759 196.858C54.0092 198.864 52.1481 200.41 49.8 200.877C45.8347 201.666 41.9653 199.081 41.1766 195.115Z" fill="#FC9924"/>
<path d="M47.5914 194.402C47.8025 195.463 48.9741 195.256 49.451 195.161C49.9278 195.066 50.6637 194.581 50.4609 193.562C50.2699 192.601 49.7397 192.429 49.2713 192.522C48.803 192.615 47.3805 193.341 47.5914 194.402Z" fill="#FC9924"/>
<path d="M49.9213 191.487L50.3195 191.334L50.37 190.578L49.9633 190.771L49.9213 191.487Z" fill="#FC9924"/>
<path d="M49.6363 189.787L49.3853 189.917L49.8441 190.15L50.1734 190.031L49.6363 189.787Z" fill="#FC9924"/>
<path d="M48.6088 189.669L48.6686 189.975L47.4094 190.111L47.4078 190.111C47.38 190.114 47.3523 190.121 47.3254 190.13L46.9861 190.254C46.4875 190.436 46.075 190.813 45.8542 191.289L45.5146 192.02C45.3902 192.288 45.2983 192.571 45.2415 192.861L45.2369 192.894L45.2176 193.117C44.0896 193.952 43.4855 196.055 43.4576 196.154L43.3945 196.378L45.4924 196.094L46.0082 199.126L47.4731 197.21L48.782 199.25L49.2042 197.378L50.2552 198.978L51.0352 197.152L52.7826 197.814L51.8306 195.461L52.404 194.668L52.4627 194.482L52.4038 191.685L52.3959 191.622L52.1024 190.378L51.9275 190.168L51.3373 189.904L51.0964 190.107L51.0725 189.99L51.0383 189.9L50.7376 189.376L50.4488 189.22L48.9042 189.299L48.6088 189.669ZM50.4628 189.529L50.7635 190.053L51.0859 191.633L50.8109 192.706L51.1468 193.454L51.0241 195.375L51.6502 193.541L51.3597 192.776L51.6339 191.699L51.2051 190.186L51.7953 190.45L52.0888 191.694L52.1476 194.49L51.4697 195.427L52.3221 197.315L50.8648 196.753L50.1639 198.394L49.3055 196.928L49.1901 196.731L49.0341 196.714L48.6306 196.67L48.2876 196.633L48.0478 196.607C47.3265 196.529 46.6713 196.176 46.2184 195.63C46.341 194.825 46.6602 192.834 46.6602 192.834C46.6602 192.834 45.975 193.026 45.7413 193.152C45.6644 193.193 45.5902 193.239 45.5188 193.289L45.5508 192.918C45.6023 192.655 45.6853 192.396 45.8011 192.147L46.1407 191.415C46.3279 191.012 46.6714 190.699 47.094 190.544L47.4318 190.421C47.4702 190.407 47.4978 190.457 47.4653 190.481C47.1154 190.742 46.7586 190.939 46.8429 191.21C46.8805 191.332 46.992 191.416 47.1204 191.431C48.0574 191.538 48.4705 191.278 48.9017 190.932L49.4082 191.816L49.653 191.874C49.3212 191.461 49.1394 190.738 49.1394 190.738L48.9182 189.608L50.4628 189.529Z" fill="#FC9924"/>
<path d="M47.4031 194.684C47.6142 195.745 48.7858 195.538 49.2626 195.443C49.7394 195.348 50.4753 194.863 50.2726 193.844C50.0815 192.883 49.5514 192.711 49.083 192.804C48.6146 192.897 47.1921 193.623 47.4031 194.684Z" fill="#FED056"/>
<path d="M49.733 191.77L50.1312 191.616L50.1817 190.86L49.775 191.053L49.733 191.77Z" fill="#FED056"/>
<path d="M49.4479 190.069L49.197 190.199L49.6557 190.432L49.985 190.314L49.4479 190.069Z" fill="#FED056"/>
<path d="M48.4204 189.951L48.4803 190.257L47.2211 190.393L47.2195 190.394C47.1916 190.396 47.164 190.403 47.1371 190.413L46.7977 190.536C46.2992 190.718 45.8866 191.096 45.6658 191.571L45.3262 192.303C45.2018 192.571 45.1099 192.854 45.0532 193.144L45.0485 193.176L45.0292 193.4C43.9013 194.234 43.2972 196.337 43.2692 196.436L43.2062 196.66L45.304 196.376L45.8199 199.409L47.2847 197.493L48.5937 199.532L49.0158 197.66L50.0669 199.26L50.8468 197.434L52.5942 198.096L51.6423 195.743L52.2157 194.951L52.2743 194.764L52.2155 191.968L52.2075 191.904L51.9141 190.66L51.7392 190.45L51.1489 190.186L50.908 190.389L50.8841 190.272L50.8499 190.182L50.5493 189.658L50.2604 189.502L48.7158 189.581L48.4204 189.951ZM50.2745 189.812L50.5751 190.335L50.8975 191.915L50.6225 192.988L50.9585 193.736L50.8357 195.657L51.4619 193.823L51.1714 193.058L51.4456 191.982L51.0167 190.468L51.607 190.732L51.9004 191.976L51.9593 194.772L51.2814 195.709L52.1338 197.597L50.6765 197.035L49.9755 198.676L49.1171 197.21L49.0018 197.013L48.8458 196.996L48.4422 196.953L48.0992 196.915L47.8595 196.889C47.1382 196.811 46.4829 196.458 46.03 195.912C46.1527 195.107 46.4718 193.116 46.4718 193.116C46.4718 193.116 45.7866 193.308 45.553 193.434C45.4761 193.476 45.4019 193.521 45.3304 193.571L45.3625 193.2C45.4139 192.937 45.497 192.679 45.6128 192.429L45.9524 191.698C46.1396 191.295 46.483 190.981 46.9057 190.826L47.2435 190.703C47.2819 190.689 47.3094 190.739 47.277 190.764C46.9271 191.024 46.5702 191.221 46.6546 191.493C46.6922 191.614 46.8036 191.698 46.9321 191.713C47.8691 191.821 48.2822 191.561 48.7133 191.214L49.2198 192.098L49.4647 192.156C49.1328 191.743 48.9511 191.021 48.9511 191.021L48.7299 189.891L50.2745 189.812Z" fill="#FED056"/>
<path d="M64.6185 195.179L64.3645 193.902L74.1821 191.949L74.4635 193.363L66.1562 195.016L68.4605 196.984L66.9913 197.276L64.6185 195.179ZM72.0242 186.052C71.8913 185.383 71.4497 184.934 70.6995 184.702C69.9401 184.473 68.9196 184.485 67.638 184.74C66.3565 184.995 65.4134 185.373 64.8089 185.874C64.2043 186.375 63.9685 186.959 64.1014 187.628C64.2343 188.296 64.6759 188.746 65.4261 188.977C66.1764 189.208 67.1923 189.197 68.4738 188.942C69.7554 188.687 70.703 188.308 71.3167 187.805C71.9213 187.304 72.1571 186.72 72.0242 186.052ZM73.1913 185.819C73.3388 186.561 73.264 187.237 72.9668 187.848C72.6587 188.452 72.1529 188.971 71.4496 189.406C70.7353 189.834 69.838 190.155 68.7579 190.37C67.6777 190.585 66.7304 190.63 65.916 190.507C65.0906 190.376 64.4246 190.09 63.9181 189.648C63.4097 189.197 63.0818 188.601 62.9343 187.86C62.7868 187.118 62.8625 186.447 63.1615 185.845C63.4605 185.243 63.9662 184.723 64.6787 184.287C65.3821 183.852 66.2738 183.527 67.354 183.312C68.4342 183.097 69.3869 183.055 70.2123 183.186C71.0285 183.319 71.6945 183.605 72.2102 184.045C72.7168 184.486 73.0438 185.078 73.1913 185.819Z" fill="white"/>
</g>
<g filter="url(#filter5_d_10052_17633)">
<path d="M265.834 105.965C268.596 110.098 274.185 111.21 278.318 108.449C282.45 105.687 283.562 100.098 280.801 95.9652C278.039 91.8323 272.45 90.7206 268.317 93.4821C264.184 96.2436 263.073 101.833 265.834 105.965Z" fill="url(#paint29_linear_10052_17633)"/>
<path fill-rule="evenodd" clip-rule="evenodd" d="M278.708 102.906C278.833 102.678 278.874 102.413 278.826 102.157C278.797 101.917 278.714 101.687 278.582 101.485L274.83 95.8688C274.702 95.648 274.511 95.4699 274.282 95.3568C274.166 95.266 274.033 95.1992 273.891 95.1603C273.749 95.1215 273.6 95.1113 273.454 95.1305C273.168 95.1467 272.894 95.2535 272.673 95.4355C272.465 95.5991 272.307 95.8173 272.217 96.0657L268.463 103.611C268.428 103.697 268.415 103.789 268.424 103.882C268.433 103.974 268.463 104.063 268.514 104.14C268.56 104.224 268.629 104.293 268.713 104.338C268.797 104.383 268.893 104.404 268.988 104.397L277.406 103.831C277.679 103.826 277.944 103.736 278.164 103.573C278.399 103.4 278.586 103.171 278.708 102.906ZM270.326 102.291L273.214 96.4825C273.31 96.3181 273.357 96.2349 273.357 96.2349C273.414 96.1824 273.487 96.1515 273.565 96.1477C273.647 96.1315 273.732 96.1485 273.802 96.195L275.545 98.8033L270.326 102.291ZM277.584 102.618C277.522 102.68 277.448 102.729 277.367 102.763L270.862 103.144L276.074 99.6619L277.665 102.043C277.731 102.121 277.775 102.215 277.794 102.315L277.782 102.377C277.807 102.415 277.739 102.46 277.764 102.497C277.717 102.554 277.655 102.596 277.584 102.618Z" fill="white"/>
<path d="M250.025 111.166C250.404 111.733 250.984 111.979 251.766 111.906C252.555 111.828 253.493 111.426 254.58 110.7C255.666 109.974 256.393 109.264 256.76 108.569C257.126 107.875 257.121 107.245 256.742 106.678C256.364 106.112 255.783 105.865 255.002 105.939C254.22 106.012 253.286 106.412 252.2 107.138C251.113 107.863 250.383 108.576 250.008 109.275C249.641 109.97 249.647 110.6 250.025 111.166ZM249.036 111.828C248.616 111.199 248.426 110.545 248.467 109.867C248.521 109.192 248.789 108.518 249.273 107.847C249.769 107.179 250.475 106.539 251.391 105.927C252.306 105.315 253.164 104.91 253.964 104.713C254.776 104.518 255.501 104.527 256.138 104.742C256.78 104.964 257.311 105.389 257.731 106.017C258.152 106.646 258.339 107.295 258.293 107.966C258.247 108.636 257.978 109.31 257.487 109.986C257.004 110.657 256.304 111.298 255.389 111.91C254.473 112.522 253.609 112.925 252.796 113.12C251.991 113.31 251.266 113.301 250.622 113.092C249.985 112.877 249.456 112.456 249.036 111.828ZM252.471 116.868C252.316 116.635 252.26 116.392 252.304 116.138C252.36 115.887 252.505 115.684 252.738 115.528C252.971 115.373 253.214 115.317 253.468 115.361C253.727 115.412 253.934 115.554 254.089 115.787C254.245 116.02 254.294 116.262 254.238 116.513C254.186 116.772 254.044 116.979 253.811 117.135C253.578 117.29 253.333 117.342 253.074 117.291C252.828 117.242 252.627 117.101 252.471 116.868ZM263.213 114.624L263.936 115.707L255.613 121.268L254.812 120.069L261.855 115.364L258.973 114.427L260.218 113.595L263.213 114.624Z" fill="white"/>
</g>
<g filter="url(#filter6_d_10052_17633)">
<g clip-path="url(#clip3_10052_17633)">
<path fill-rule="evenodd" clip-rule="evenodd" d="M72.1432 235.964L76.5509 237.89C77.0091 238.091 77.2001 238.625 76.9772 239.085C76.8685 239.309 76.6738 239.484 76.4375 239.57L73.9437 240.483C73.0434 240.812 72.0573 240.738 71.251 240.28L66.9514 237.838C66.751 237.724 66.4879 237.795 66.3637 237.997C66.2631 238.161 66.2826 238.366 66.4114 238.499L69.8846 242.094C70.5907 242.825 70.9203 243.838 70.7858 244.863L70.5171 246.912C70.4516 247.411 69.9888 247.78 69.4835 247.736C69.2377 247.715 69.015 247.597 68.8656 247.408L65.9049 243.677C65.6957 243.413 65.3488 243.293 65.007 243.367L60.1458 244.412C59.644 244.52 59.165 244.211 59.0758 243.721C59.033 243.486 59.0876 243.241 59.2277 243.038L62.0537 238.947C62.2523 238.659 62.2745 238.293 62.111 237.999L59.7834 233.812C59.5433 233.38 59.7131 232.824 60.1626 232.57C60.3788 232.448 60.6321 232.414 60.8667 232.474L65.5877 233.699C65.92 233.785 66.2812 233.678 66.5221 233.422L69.9424 229.791C70.2957 229.416 70.8797 229.381 71.2471 229.713C71.4235 229.873 71.5253 230.097 71.53 230.338L71.624 235.187C71.6306 235.527 71.8312 235.827 72.1432 235.964Z" fill="url(#paint30_linear_10052_17633)"/>
</g>
<path d="M91.3012 232.13L90.0156 231.844C90.3024 231.315 90.4455 230.799 90.445 230.294C90.4367 229.794 90.29 229.331 90.0048 228.904C89.647 228.369 89.1833 228.061 88.6137 227.982C88.0312 227.899 87.4528 228.05 86.8785 228.434C86.5371 228.662 86.2798 228.94 86.1067 229.269C85.9207 229.596 85.833 229.935 85.8438 230.287C85.8467 230.644 85.9623 230.994 86.1904 231.335C86.3978 231.645 86.6841 231.898 87.0493 232.091C87.4068 232.29 87.8107 232.357 88.261 232.292L88.4828 232.699C88.0507 232.91 87.6237 233.01 87.2017 233C86.772 232.995 86.3732 232.885 86.0054 232.671C85.6247 232.454 85.3047 232.151 85.0454 231.763C84.7032 231.251 84.5279 230.712 84.5195 230.145C84.5034 229.583 84.6336 229.047 84.91 228.537C85.1735 228.024 85.5691 227.591 86.0968 227.239C86.6633 226.86 87.2507 226.647 87.859 226.6C88.4673 226.553 89.0498 226.669 89.6067 226.948C90.1558 227.232 90.6247 227.665 91.0136 228.247C91.4129 228.844 91.644 229.476 91.7068 230.141C91.7618 230.811 91.6266 231.474 91.3012 232.13ZM81.7827 230.711L84.5283 234.82L83.7166 234.638L88.261 232.292L88.9533 233.328L83.8655 235.97L80.7932 231.372L81.7827 230.711ZM85.2642 221.784C84.8857 221.218 84.3056 220.971 83.5239 221.044C82.7344 221.123 81.7965 221.525 80.71 222.251C79.6236 222.977 78.8969 223.687 78.5301 224.381C78.1632 225.075 78.1691 225.706 78.5476 226.272C78.9261 226.839 79.5062 227.085 80.2879 227.012C81.0696 226.939 82.0036 226.539 83.0901 225.813C84.1766 225.087 84.9071 224.374 85.2817 223.675C85.6486 222.981 85.6427 222.351 85.2642 221.784ZM86.2536 221.123C86.6737 221.752 86.8633 222.405 86.8226 223.083C86.7689 223.759 86.5004 224.432 86.0171 225.103C85.5208 225.772 84.8147 226.412 83.899 227.024C82.9833 227.636 82.1256 228.04 81.3259 228.238C80.5133 228.433 79.7885 228.423 79.1515 228.209C78.5093 227.987 77.9781 227.562 77.5581 226.933C77.1381 226.305 76.9511 225.655 76.997 224.985C77.0428 224.314 77.3114 223.641 77.8025 222.965C78.2859 222.294 78.9854 221.652 79.9011 221.04C80.8169 220.429 81.681 220.025 82.4936 219.83C83.2985 219.64 84.0233 219.65 84.6681 219.859C85.3051 220.073 85.8336 220.495 86.2536 221.123Z" fill="white"/>
</g>
<g filter="url(#filter7_d_10052_17633)">
<path d="M105.966 265.834C101.833 263.072 96.2438 264.184 93.4823 268.317C90.7208 272.45 91.8325 278.039 95.9654 280.8C100.098 283.562 105.687 282.45 108.449 278.317C111.21 274.184 110.099 268.595 105.966 265.834Z" fill="url(#paint31_linear_10052_17633)"/>
<path fill-rule="evenodd" clip-rule="evenodd" d="M95.2422 273.587C95.2147 273.846 95.2777 274.106 95.4205 274.324C95.5385 274.534 95.7035 274.715 95.9026 274.852L101.519 278.604C101.722 278.759 101.966 278.851 102.221 278.868C102.363 278.907 102.511 278.918 102.657 278.9C102.803 278.881 102.944 278.834 103.072 278.76C103.33 278.636 103.542 278.432 103.677 278.179C103.806 277.949 103.869 277.687 103.857 277.423L104.438 269.015C104.437 268.923 104.414 268.832 104.371 268.75C104.327 268.668 104.265 268.598 104.189 268.545C104.114 268.486 104.024 268.449 103.928 268.439C103.833 268.429 103.737 268.447 103.652 268.49L96.0918 272.234C95.841 272.343 95.6305 272.528 95.4895 272.763C95.3392 273.012 95.2541 273.296 95.2422 273.587ZM103.222 270.947L102.777 277.419C102.751 277.608 102.739 277.703 102.739 277.703C102.707 277.773 102.651 277.829 102.581 277.863C102.511 277.909 102.425 277.926 102.343 277.91L99.7348 276.167L103.222 270.947ZM96.391 273.423C96.4245 273.342 96.4739 273.268 96.5362 273.206L102.4 270.364L98.9173 275.576L96.5361 273.985C96.4457 273.938 96.369 273.869 96.3132 273.783L96.3008 273.721C96.2633 273.696 96.3083 273.628 96.2707 273.603C96.2927 273.533 96.3344 273.47 96.391 273.423Z" fill="white"/>
<path d="M119.661 255.701C119.094 255.322 118.464 255.316 117.77 255.683C117.07 256.058 116.358 256.788 115.632 257.875C114.906 258.961 114.506 259.895 114.433 260.677C114.36 261.459 114.606 262.039 115.173 262.417C115.739 262.796 116.37 262.802 117.064 262.435C117.758 262.068 118.468 261.341 119.194 260.255C119.92 259.168 120.322 258.23 120.4 257.441C120.474 256.659 120.227 256.079 119.661 255.701ZM120.322 254.711C120.95 255.131 121.376 255.662 121.598 256.304C121.807 256.949 121.816 257.674 121.626 258.479C121.424 259.286 121.016 260.148 120.404 261.064C119.793 261.979 119.155 262.681 118.492 263.17C117.816 263.661 117.142 263.93 116.472 263.976C115.794 264.016 115.14 263.827 114.512 263.407C113.883 262.987 113.462 262.458 113.247 261.821C113.033 261.184 113.024 260.459 113.219 259.647C113.408 258.842 113.809 257.981 114.421 257.066C115.033 256.15 115.677 255.447 116.353 254.955C117.024 254.472 117.697 254.204 118.373 254.15C119.044 254.104 119.693 254.291 120.322 254.711ZM115.219 251.369C115.452 251.524 115.597 251.728 115.653 251.979C115.697 252.233 115.641 252.476 115.485 252.709C115.33 252.942 115.127 253.086 114.875 253.143C114.616 253.194 114.371 253.142 114.138 252.987C113.905 252.831 113.767 252.627 113.723 252.373C113.671 252.114 113.724 251.868 113.879 251.635C114.035 251.403 114.242 251.26 114.501 251.209C114.747 251.16 114.986 251.213 115.219 251.369ZM112.428 251.642L111.142 251.878C111.141 251.226 111.04 250.687 110.841 250.262C110.642 249.838 110.337 249.488 109.926 249.213C109.616 249.005 109.293 248.874 108.96 248.82C108.618 248.76 108.294 248.791 107.989 248.912C107.678 249.041 107.409 249.276 107.18 249.618C106.885 250.06 106.808 250.519 106.95 250.996C107.079 251.475 107.411 251.893 107.946 252.251L108.68 252.741L108.011 253.742L107.278 253.252C106.82 252.946 106.368 252.824 105.923 252.886C105.477 252.947 105.128 253.168 104.874 253.549C104.609 253.944 104.53 254.357 104.636 254.787C104.728 255.22 104.988 255.578 105.415 255.863C105.803 256.123 106.223 256.258 106.676 256.269C107.116 256.282 107.619 256.169 108.183 255.929L108.434 257.241C107.756 257.484 107.103 257.57 106.477 257.499C105.838 257.431 105.239 257.211 104.68 256.837C104.176 256.5 103.793 256.099 103.532 255.632C103.266 255.174 103.139 254.691 103.153 254.184C103.161 253.684 103.313 253.213 103.609 252.771C103.873 252.375 104.219 252.101 104.646 251.949C105.074 251.796 105.542 251.767 106.052 251.861C106.562 251.955 107.077 252.175 107.597 252.523L107.239 252.907C106.673 252.528 106.246 252.108 105.959 251.647C105.664 251.181 105.515 250.699 105.51 250.202C105.5 249.713 105.651 249.236 105.962 248.77C106.289 248.281 106.703 247.929 107.206 247.715C107.708 247.501 108.249 247.43 108.829 247.503C109.401 247.571 109.97 247.794 110.537 248.173C111.15 248.583 111.619 249.081 111.945 249.669C112.262 250.252 112.424 250.91 112.428 251.642Z" fill="white"/>
</g>
<g filter="url(#filter8_d_10052_17633)">
<path d="M234.034 74.1658C238.167 76.9273 243.756 75.8156 246.518 71.6827C249.279 67.5498 248.167 61.9608 244.035 59.1994C239.902 56.4379 234.313 57.5496 231.551 61.6824C228.79 65.8153 229.901 71.4043 234.034 74.1658Z" fill="#FED056"/>
<path d="M234.96 72.7804C238.328 75.0306 242.882 74.1247 245.132 70.7571C247.382 67.3894 246.476 62.8353 243.109 60.5851C239.741 58.3349 235.187 59.2408 232.937 62.6084C230.687 65.976 231.592 70.5302 234.96 72.7804Z" fill="#FEB635"/>
<path d="M245.132 70.7571C242.886 74.1187 238.322 75.0265 234.96 72.7804C233.864 72.048 233.031 71.073 232.483 69.9706C233.028 70.9267 233.797 71.7749 234.773 72.4272C238.135 74.6734 242.699 73.7655 244.945 70.4039C246.459 68.1385 246.538 65.3245 245.398 63.0446C246.732 65.3823 246.728 68.3689 245.132 70.7571ZM243.332 61.1489C244.534 61.9517 245.419 63.0505 245.96 64.2787C245.452 62.8233 244.487 61.5099 243.107 60.588C239.745 58.3418 235.183 59.2468 232.935 62.6113C231.486 64.7803 231.348 67.4538 232.342 69.674C231.607 67.572 231.83 65.1629 233.16 63.1722C235.407 59.8106 239.971 58.9027 243.332 61.1489Z" fill="#FC9924"/>
<path d="M239.301 66.1895C238.402 65.5884 237.72 66.5633 237.45 66.9675C237.179 67.3717 237.002 68.235 237.866 68.8124C238.68 69.3565 239.177 69.1036 239.443 68.7065C239.708 68.3094 240.2 66.7903 239.301 66.1895Z" fill="#FC9924"/>
<path d="M239.714 69.8975L239.541 70.2878L240.04 70.8576L240.191 70.4339L239.714 69.8975Z" fill="#FC9924"/>
<path d="M241.118 70.8982L241.204 70.6291L240.715 70.7884L240.566 71.1052L241.118 70.8982Z" fill="#FC9924"/>
<path d="M241.928 70.2552L241.669 70.081L242.464 69.0945L242.465 69.0931C242.482 69.0714 242.497 69.0473 242.51 69.0215L242.662 68.694C242.886 68.2127 242.911 67.6543 242.731 67.162L242.453 66.4045C242.352 66.127 242.217 65.862 242.052 65.6167L242.032 65.5906L241.888 65.4189C242.096 64.0314 241.035 62.117 240.985 62.027L240.872 61.8244L239.589 63.5083L237.08 61.7289L237.399 64.1196L235.031 63.6028L236.056 65.2253L234.182 64.8372L234.921 66.6798L233.217 67.4469L235.555 68.4378L235.709 69.4037L235.8 69.5772L237.819 71.5128L237.869 71.5519L238.957 72.2243L239.229 72.2492L239.833 72.0182L239.859 71.7043L239.959 71.7701L240.047 71.8099L240.63 71.9678L240.945 71.8737L241.981 70.7256L241.928 70.2552ZM240.716 71.665L240.133 71.507L238.788 70.6181L238.224 69.6648L237.457 69.3733L236.186 67.9285L237.04 69.668L237.786 70.0033L238.353 70.9585L239.727 71.7253L239.123 71.9563L238.035 71.2839L236.017 69.3483L235.834 68.2064L233.896 67.4743L235.324 66.8416L234.659 65.1856L236.303 65.6148L236.523 65.6726L236.646 65.5742L236.962 65.3198L237.231 65.1037L237.419 64.9525C237.984 64.4979 238.697 64.2842 239.404 64.35C239.886 65.0061 241.068 66.6393 241.068 66.6393C241.068 66.6393 241.417 66.0193 241.493 65.7648C241.518 65.681 241.538 65.5962 241.554 65.5107L241.793 65.7956C241.943 66.0176 242.067 66.2593 242.161 66.5175L242.438 67.275C242.591 67.6924 242.57 68.1572 242.381 68.5653L242.229 68.8913C242.211 68.9282 242.157 68.9123 242.162 68.8722C242.225 68.4403 242.338 68.0488 242.087 67.9166C241.975 67.8574 241.836 67.8767 241.735 67.957C240.996 68.5435 240.888 69.0194 240.828 69.5691L239.845 69.3022L239.631 69.4344C240.157 69.4919 240.797 69.8742 240.797 69.8742L241.752 70.5169L240.716 71.665Z" fill="#FC9924"/>
<path d="M239.235 65.857C238.335 65.2559 237.653 66.2307 237.383 66.635C237.113 67.0392 236.936 67.9025 237.8 68.4799C238.614 69.024 239.111 68.7711 239.376 68.374C239.642 67.9769 240.134 66.4578 239.235 65.857Z" fill="#FED056"/>
<path d="M239.648 69.5649L239.475 69.9552L239.974 70.5251L240.125 70.1014L239.648 69.5649Z" fill="#FED056"/>
<path d="M241.052 70.5657L241.138 70.2966L240.648 70.4559L240.499 70.7727L241.052 70.5657Z" fill="#FED056"/>
<path d="M241.862 69.9226L241.603 69.7485L242.397 68.762L242.398 68.7606C242.416 68.7389 242.431 68.7148 242.443 68.689L242.596 68.3615C242.819 67.8802 242.844 67.3218 242.664 66.8295L242.387 66.072C242.286 65.7945 242.151 65.5295 241.986 65.2842L241.966 65.2581L241.822 65.0863C242.029 63.6989 240.969 61.7845 240.919 61.6945L240.805 61.4919L239.522 63.1757L237.013 61.3964L237.332 63.787L234.965 63.2703L235.99 64.8928L234.116 64.5047L234.855 66.3472L233.151 67.1144L235.488 68.1053L235.643 69.0712L235.734 69.2447L237.753 71.1803L237.803 71.2194L238.89 71.8918L239.163 71.9167L239.766 71.6857L239.793 71.3718L239.893 71.4375L239.981 71.4773L240.564 71.6353L240.878 71.5411L241.915 70.3931L241.862 69.9226ZM240.65 71.3324L240.067 71.1745L238.722 70.2856L238.157 69.3323L237.391 69.0408L236.12 67.5959L236.974 69.3355L237.72 69.6708L238.287 70.626L239.66 71.3928L239.057 71.6238L237.969 70.9514L235.95 69.0158L235.767 67.8739L233.83 67.1418L235.258 66.5091L234.593 64.8531L236.236 65.2823L236.457 65.34L236.579 65.2417L236.896 64.9873L237.165 64.7712L237.353 64.62C237.918 64.1654 238.631 63.9517 239.337 64.0174C239.82 64.6735 241.002 66.3068 241.002 66.3068C241.002 66.3068 241.351 65.6868 241.427 65.4323C241.452 65.3485 241.472 65.2636 241.487 65.1782L241.727 65.4631C241.876 65.6851 242 65.9268 242.095 66.185L242.372 66.9425C242.525 67.3599 242.504 67.8247 242.314 68.2328L242.163 68.5588C242.145 68.5957 242.09 68.5798 242.096 68.5397C242.159 68.1078 242.272 67.7163 242.021 67.5841C241.908 67.5249 241.77 67.5442 241.669 67.6245C240.93 68.2109 240.822 68.6869 240.762 69.2366L239.778 68.9697L239.564 69.1019C240.091 69.1594 240.731 69.5417 240.731 69.5417L241.686 70.1844L240.65 71.3324Z" fill="#FED056"/>
<path d="M227.024 77.8888L228.107 78.6122L222.546 86.9352L221.347 86.1341L226.052 79.0915L223.031 79.3291L223.863 78.0836L227.024 77.8888ZM225.387 86.7962L226.684 86.5684C226.621 87.1663 226.686 87.6983 226.88 88.1645C227.079 88.6229 227.392 88.9947 227.819 89.2799C228.354 89.6377 228.9 89.7444 229.457 89.6C230.026 89.453 230.503 89.0924 230.887 88.5181C231.115 88.1767 231.246 87.8209 231.28 87.4508C231.327 87.0781 231.278 86.7311 231.134 86.41C230.994 86.0811 230.754 85.8026 230.412 85.5744C230.102 85.367 229.741 85.2437 229.329 85.2044C228.923 85.1574 228.524 85.2502 228.133 85.4827L227.772 85.1911C228.091 84.8316 228.447 84.5757 228.841 84.4234C229.24 84.2634 229.65 84.212 230.072 84.2694C230.507 84.3242 230.918 84.4813 231.306 84.7405C231.818 85.0828 232.187 85.5141 232.412 86.0347C232.641 86.5475 232.726 87.0925 232.666 87.6697C232.619 88.2443 232.419 88.7954 232.066 89.3231C231.688 89.8897 231.227 90.3111 230.683 90.5875C230.139 90.8639 229.556 90.9798 228.935 90.9352C228.319 90.8827 227.72 90.6621 227.138 90.2732C226.54 89.8739 226.085 89.379 225.773 88.7885C225.465 88.1902 225.337 87.5261 225.387 86.7962ZM234.724 84.4645L230.614 81.7189L231.434 81.5761L228.133 85.4827L227.097 84.7905L230.787 80.4028L235.385 83.4751L234.724 84.4645Z" fill="white"/>
</g>
<g filter="url(#filter9_d_10052_17633)">
<path fill-rule="evenodd" clip-rule="evenodd" d="M147.449 285.838L151.928 284.084C152.393 283.902 152.906 284.145 153.074 284.627C153.155 284.863 153.141 285.124 153.035 285.352L151.917 287.761C151.513 288.63 150.763 289.275 149.87 289.521L145.103 290.835C144.88 290.896 144.745 291.132 144.8 291.363C144.844 291.55 145.003 291.681 145.188 291.684L150.186 291.77C151.203 291.788 152.152 292.271 152.782 293.091L154.04 294.73C154.347 295.129 154.281 295.717 153.892 296.044C153.703 296.202 153.462 296.276 153.224 296.249L148.491 295.703C148.157 295.665 147.827 295.826 147.637 296.119L144.939 300.296C144.66 300.727 144.103 300.847 143.694 300.564C143.498 300.428 143.362 300.216 143.318 299.973L142.423 295.082C142.361 294.738 142.117 294.464 141.794 294.371L137.187 293.057C136.712 292.921 136.439 292.408 136.578 291.91C136.644 291.671 136.799 291.468 137.008 291.345L141.212 288.872C141.508 288.698 141.687 288.367 141.677 288.016L141.527 283.03C141.512 282.515 141.9 282.077 142.395 282.052C142.633 282.04 142.864 282.127 143.037 282.294L146.532 285.656C146.777 285.892 147.131 285.963 147.449 285.838Z" fill="url(#paint32_linear_10052_17633)"/>
<path d="M145.665 275.55L145.897 274.382L152.121 266.628L153.604 266.923L147.339 274.669L152.323 275.661L152.091 276.828L145.665 275.55Z" fill="white"/>
</g>
<g filter="url(#filter10_d_10052_17633)">
<path fill-rule="evenodd" clip-rule="evenodd" d="M192.553 54.1621L188.073 55.9164C187.608 56.0988 187.095 55.8558 186.928 55.3735C186.846 55.138 186.86 54.8764 186.966 54.6482L188.084 52.2398C188.488 51.3703 189.238 50.7256 190.131 50.4793L194.898 49.1658C195.121 49.1045 195.256 48.868 195.201 48.6375C195.157 48.4507 194.998 48.3196 194.813 48.3164L189.815 48.2301C188.799 48.2125 187.849 47.7293 187.219 46.9091L185.961 45.2706C185.654 44.8714 185.72 44.2833 186.109 43.957C186.298 43.7982 186.539 43.7243 186.777 43.7518L191.51 44.2971C191.844 44.3356 192.174 44.1749 192.364 43.8813L195.062 39.7048C195.341 39.2738 195.898 39.1536 196.307 39.4365C196.503 39.5723 196.639 39.7848 196.683 40.0272L197.578 44.9184C197.64 45.2623 197.884 45.537 198.207 45.6293L202.814 46.9438C203.289 47.0794 203.562 47.5925 203.424 48.09C203.357 48.3293 203.202 48.5328 202.994 48.6556L198.789 51.1282C198.493 51.3022 198.314 51.6331 198.324 51.9843L198.474 56.9707C198.489 57.4858 198.101 57.9233 197.606 57.9482C197.368 57.9601 197.137 57.8732 196.964 57.7066L193.469 54.3444C193.224 54.1083 192.87 54.0379 192.553 54.1621Z" fill="url(#paint33_linear_10052_17633)"/>
<path d="M187.066 63.005L188.343 63.259L186.39 73.0767L184.976 72.7953L186.628 64.4881L183.928 65.8637L184.22 64.3945L187.066 63.005ZM192.664 73.3397C193.332 73.4727 193.917 73.2368 194.418 72.6323C194.921 72.0186 195.299 71.0709 195.554 69.7894C195.809 68.5078 195.821 67.4919 195.59 66.7417C195.358 65.9915 194.908 65.5499 194.24 65.417C193.572 65.284 192.987 65.5199 192.486 66.1244C191.986 66.729 191.608 67.672 191.353 68.9536C191.098 70.2352 191.085 71.2556 191.315 72.015C191.546 72.7652 191.996 73.2068 192.664 73.3397ZM192.432 74.5069C191.691 74.3594 191.094 74.0315 190.644 73.5231C190.204 73.0074 189.918 72.3414 189.785 71.5251C189.663 70.7016 189.71 69.7497 189.925 68.6696C190.14 67.5894 190.46 66.6967 190.886 65.9916C191.322 65.2791 191.842 64.7733 192.444 64.4743C193.055 64.1772 193.731 64.1023 194.472 64.2498C195.214 64.3973 195.805 64.7243 196.247 65.2309C196.689 65.7375 196.975 66.4034 197.106 67.2288C197.238 68.0451 197.197 68.9933 196.982 70.0734C196.768 71.1536 196.442 72.0499 196.005 72.7624C195.57 73.4657 195.051 73.9715 194.447 74.2796C193.845 74.5786 193.174 74.6544 192.432 74.5069Z" fill="white"/>
</g>
<g filter="url(#filter11_d_10052_17633)">
<path d="M192.486 283.044C187.611 284.014 184.445 288.752 185.415 293.627C186.385 298.502 191.123 301.668 195.998 300.698C200.873 299.728 204.039 294.99 203.069 290.115C202.099 285.24 197.361 282.074 192.486 283.044Z" fill="#FED056"/>
<path d="M192.811 284.679C188.839 285.469 186.259 289.33 187.049 293.302C187.84 297.274 191.7 299.854 195.673 299.064C199.645 298.274 202.225 294.413 201.435 290.441C200.645 286.468 196.784 283.888 192.811 284.679Z" fill="#FEB635"/>
<path d="M187.049 293.302C186.261 289.336 188.846 285.467 192.811 284.678C194.104 284.421 195.383 284.522 196.55 284.913C195.489 284.622 194.345 284.567 193.193 284.796C189.228 285.585 186.642 289.454 187.431 293.419C187.963 296.091 189.897 298.137 192.315 298.943C189.719 298.233 187.61 296.119 187.049 293.302ZM195.116 298.823C193.699 299.105 192.296 298.954 191.045 298.468C192.433 299.138 194.045 299.384 195.672 299.06C199.637 298.271 202.223 294.405 201.434 290.437C200.925 287.878 199.132 285.891 196.859 285.024C198.865 285.99 200.411 287.852 200.878 290.2C201.667 294.165 199.081 298.034 195.116 298.823Z" fill="#FC9924"/>
<path d="M194.402 292.408C195.463 292.197 195.256 291.026 195.161 290.549C195.066 290.072 194.581 289.336 193.562 289.539C192.602 289.73 192.429 290.26 192.522 290.729C192.615 291.197 193.341 292.619 194.402 292.408Z" fill="#FC9924"/>
<path d="M191.488 290.079L191.334 289.68L190.579 289.63L190.771 290.037L191.488 290.079Z" fill="#FC9924"/>
<path d="M189.788 290.363L189.917 290.614L190.151 290.156L190.032 289.826L189.788 290.363Z" fill="#FC9924"/>
<path d="M189.67 291.391L189.976 291.331L190.112 292.59L190.112 292.592C190.115 292.62 190.121 292.648 190.131 292.674L190.255 293.014C190.437 293.512 190.814 293.925 191.289 294.146L192.021 294.485C192.289 294.61 192.572 294.702 192.862 294.758L192.894 294.763L193.118 294.782C193.952 295.91 196.055 296.514 196.155 296.542L196.378 296.605L196.095 294.507L199.127 293.992L197.211 292.527L199.251 291.218L197.378 290.796L198.978 289.745L197.152 288.965L197.815 287.217L195.462 288.169L194.669 287.596L194.482 287.537L191.686 287.596L191.623 287.604L190.378 287.897L190.168 288.072L189.905 288.663L190.108 288.903L189.991 288.927L189.9 288.962L189.376 289.262L189.221 289.551L189.3 291.096L189.67 291.391ZM189.53 289.537L190.054 289.236L191.633 288.914L192.707 289.189L193.455 288.853L195.375 288.976L193.541 288.35L192.777 288.64L191.7 288.366L190.187 288.795L190.45 288.204L191.695 287.911L194.491 287.852L195.428 288.53L197.316 287.678L196.753 289.135L198.394 289.836L196.929 290.694L196.732 290.81L196.715 290.966L196.671 291.369L196.634 291.712L196.608 291.952C196.529 292.673 196.176 293.329 195.63 293.781C194.825 293.659 192.835 293.34 192.835 293.34C192.835 293.34 193.026 294.025 193.153 294.258C193.194 294.335 193.24 294.41 193.289 294.481L192.918 294.449C192.656 294.398 192.397 294.314 192.148 294.199L191.416 293.859C191.013 293.672 190.699 293.328 190.545 292.906L190.421 292.568C190.408 292.53 190.458 292.502 190.482 292.534C190.743 292.884 190.94 293.241 191.211 293.157C191.332 293.119 191.416 293.008 191.431 292.879C191.539 291.942 191.279 291.529 190.933 291.098L191.817 290.592L191.875 290.347C191.461 290.679 190.739 290.86 190.739 290.86L189.609 291.082L189.53 289.537Z" fill="#FC9924"/>
<path d="M194.684 292.597C195.745 292.386 195.538 291.214 195.443 290.737C195.349 290.261 194.864 289.525 193.844 289.727C192.884 289.919 192.711 290.449 192.804 290.917C192.898 291.385 193.623 292.808 194.684 292.597Z" fill="#FED056"/>
<path d="M191.77 290.267L191.616 289.869L190.861 289.818L191.054 290.225L191.77 290.267Z" fill="#FED056"/>
<path d="M190.07 290.552L190.199 290.803L190.433 290.344L190.314 290.015L190.07 290.552Z" fill="#FED056"/>
<path d="M189.952 291.58L190.258 291.52L190.394 292.779L190.394 292.78C190.397 292.808 190.403 292.836 190.413 292.863L190.537 293.202C190.719 293.701 191.096 294.113 191.572 294.334L192.303 294.674C192.571 294.798 192.854 294.89 193.144 294.947L193.177 294.951L193.4 294.971C194.234 296.099 196.338 296.703 196.437 296.731L196.66 296.794L196.377 294.696L199.409 294.18L197.493 292.715L199.533 291.406L197.66 290.984L199.26 289.933L197.435 289.153L198.097 287.406L195.744 288.358L194.951 287.784L194.764 287.726L191.968 287.784L191.905 287.792L190.661 288.086L190.451 288.261L190.187 288.851L190.39 289.092L190.273 289.116L190.183 289.15L189.659 289.451L189.503 289.739L189.582 291.284L189.952 291.58ZM189.812 289.725L190.336 289.425L191.916 289.102L192.989 289.377L193.737 289.041L195.657 289.164L193.824 288.538L193.059 288.829L191.982 288.554L190.469 288.983L190.733 288.393L191.977 288.1L194.773 288.041L195.71 288.719L197.598 287.866L197.035 289.323L198.676 290.024L197.211 290.883L197.014 290.998L196.997 291.154L196.953 291.558L196.916 291.901L196.89 292.14C196.811 292.862 196.458 293.517 195.913 293.97C195.107 293.847 193.117 293.528 193.117 293.528C193.117 293.528 193.308 294.213 193.435 294.447C193.476 294.524 193.522 294.598 193.571 294.67L193.201 294.637C192.938 294.586 192.679 294.503 192.43 294.387L191.698 294.048C191.295 293.86 190.981 293.517 190.827 293.094L190.704 292.756C190.69 292.718 190.74 292.69 190.764 292.723C191.025 293.073 191.222 293.43 191.493 293.345C191.614 293.308 191.699 293.196 191.713 293.068C191.821 292.131 191.561 291.718 191.215 291.287L192.099 290.78L192.157 290.535C191.744 290.867 191.021 291.049 191.021 291.049L189.891 291.27L189.812 289.725Z" fill="#FED056"/>
<path d="M187.909 276.827L187.677 275.66L190.46 266.114L191.943 265.819L189.119 275.373L194.103 274.382L194.335 275.549L187.909 276.827Z" fill="white"/>
</g>
<g filter="url(#filter12_d_10052_17633)">
<path d="M147.514 56.9555C152.39 55.9857 155.555 51.2476 154.586 46.3726C153.616 41.4975 148.878 38.3316 144.003 39.3013C139.128 40.271 135.962 45.0091 136.932 49.8842C137.901 54.7593 142.639 57.9252 147.514 56.9555Z" fill="url(#paint34_linear_10052_17633)"/>
<path fill-rule="evenodd" clip-rule="evenodd" d="M149.615 43.8905C149.451 43.688 149.223 43.5484 148.968 43.4954C148.735 43.4299 148.491 43.4188 148.253 43.4629L141.629 44.7806C141.376 44.8147 141.138 44.9227 140.946 45.091C140.818 45.1634 140.705 45.2607 140.615 45.3771C140.525 45.4935 140.458 45.6267 140.42 45.769C140.326 46.0397 140.32 46.3334 140.403 46.6077C140.475 46.8621 140.616 47.0914 140.811 47.2699L146.345 53.6255C146.411 53.6904 146.492 53.7384 146.58 53.7655C146.669 53.7927 146.763 53.7982 146.854 53.7815C146.949 53.7707 147.039 53.7329 147.113 53.6726C147.187 53.6123 147.242 53.5319 147.272 53.4411L149.971 45.4479C150.071 45.1932 150.089 44.9137 150.023 44.6482C149.953 44.3654 149.812 44.1049 149.615 43.8905ZM145.838 51.3997L141.577 46.5087C141.462 46.3569 141.403 46.2813 141.403 46.2813C141.377 46.2087 141.376 46.129 141.402 46.0562C141.419 45.974 141.467 45.9016 141.537 45.8548L144.614 45.2428L145.838 51.3997ZM148.918 44.8184C148.952 44.8997 148.969 44.9869 148.969 45.0749L146.832 51.2303L145.609 45.0825L148.418 44.5238C148.515 44.4931 148.619 44.488 148.719 44.5089L148.772 44.5444C148.816 44.5355 148.832 44.615 148.876 44.6062C148.91 44.6714 148.925 44.7451 148.918 44.8184Z" fill="white"/>
<path d="M145.257 73.7525C145.926 73.6195 146.375 73.178 146.607 72.4277C146.836 71.6684 146.824 70.6479 146.569 69.3663C146.314 68.0848 145.936 67.1417 145.435 66.5371C144.934 65.9326 144.35 65.6968 143.681 65.8297C143.013 65.9626 142.563 66.4042 142.332 67.1544C142.101 67.9046 142.112 68.9205 142.367 70.2021C142.622 71.4836 143.001 72.4313 143.504 73.045C144.005 73.6496 144.589 73.8854 145.257 73.7525ZM145.49 74.9196C144.748 75.0671 144.072 74.9922 143.461 74.6951C142.857 74.3869 142.338 73.8812 141.903 73.1779C141.475 72.4636 141.154 71.5663 140.939 70.4861C140.724 69.406 140.679 68.4587 140.802 67.6443C140.933 66.8189 141.219 66.1529 141.661 65.6464C142.112 65.138 142.708 64.81 143.449 64.6625C144.191 64.5151 144.862 64.5908 145.464 64.8898C146.066 65.1888 146.586 65.6945 147.022 66.407C147.457 67.1103 147.782 68.0021 147.997 69.0823C148.212 70.1624 148.254 71.1152 148.123 71.9406C147.99 72.7568 147.704 73.4228 147.264 73.9385C146.823 74.4451 146.231 74.7721 145.49 74.9196ZM151.461 73.6747C151.186 73.7293 150.94 73.6879 150.723 73.5504C150.512 73.4019 150.38 73.1903 150.325 72.9157C150.271 72.6411 150.312 72.3949 150.45 72.1773C150.596 71.9578 150.807 71.8207 151.081 71.7661C151.356 71.7114 151.599 71.7584 151.809 71.9069C152.028 72.0535 152.165 72.2642 152.22 72.5388C152.275 72.8134 152.229 73.0605 152.082 73.28C151.943 73.4885 151.736 73.6201 151.461 73.6747ZM160.105 71.784L153.761 73.0458L153.535 71.9062L156.213 67.9333C156.536 67.4504 156.786 67.0343 156.964 66.6848C157.14 66.3263 157.247 66.0051 157.286 65.7215C157.332 65.4268 157.326 65.133 157.268 64.8401C157.17 64.3458 156.94 63.9822 156.58 63.7494C156.219 63.5165 155.778 63.452 155.257 63.5558C154.762 63.6541 154.344 63.8706 154.001 64.2052C153.659 64.5398 153.377 65.0145 153.157 65.6293L152.046 64.9225C152.341 64.2071 152.742 63.6373 153.247 63.2132C153.751 62.7799 154.346 62.495 155.033 62.3584C155.646 62.2365 156.2 62.2453 156.694 62.3849C157.197 62.5227 157.619 62.7767 157.959 63.1468C158.297 63.5077 158.521 63.9628 158.63 64.512C158.712 64.924 158.722 65.3312 158.659 65.7339C158.594 66.1273 158.435 66.5683 158.18 67.0568C157.934 67.5434 157.572 68.1388 157.093 68.843L155.314 71.5236L159.873 70.6169L160.105 71.784Z" fill="white"/>
</g>
<g filter="url(#filter13_d_10052_17633)">
<path d="M234.035 265.834C229.902 268.596 228.79 274.185 231.551 278.318C234.313 282.451 239.902 283.562 244.035 280.801C248.168 278.039 249.279 272.45 246.518 268.318C243.756 264.185 238.167 263.073 234.035 265.834Z" fill="url(#paint35_linear_10052_17633)"/>
<path fill-rule="evenodd" clip-rule="evenodd" d="M237.094 278.709C237.322 278.833 237.587 278.875 237.843 278.826C238.083 278.798 238.313 278.714 238.515 278.583L244.131 274.83C244.352 274.702 244.53 274.511 244.643 274.282C244.734 274.166 244.801 274.033 244.84 273.891C244.879 273.749 244.889 273.601 244.87 273.455C244.853 273.168 244.747 272.895 244.565 272.673C244.401 272.466 244.183 272.308 243.934 272.218L236.389 268.463C236.304 268.429 236.211 268.415 236.118 268.424C236.026 268.433 235.937 268.464 235.86 268.514C235.776 268.56 235.707 268.63 235.662 268.714C235.617 268.798 235.596 268.893 235.603 268.989L236.169 277.406C236.174 277.68 236.264 277.945 236.427 278.165C236.6 278.399 236.829 278.586 237.094 278.709ZM237.709 270.326L243.518 273.214C243.682 273.31 243.765 273.358 243.765 273.358C243.818 273.415 243.849 273.488 243.852 273.565C243.869 273.648 243.852 273.733 243.805 273.803L241.197 275.546L237.709 270.326ZM237.382 277.585C237.32 277.523 237.271 277.449 237.237 277.368L236.856 270.863L240.338 276.075L237.957 277.666C237.879 277.731 237.785 277.776 237.685 277.795L237.623 277.782C237.585 277.807 237.54 277.74 237.503 277.765C237.446 277.718 237.404 277.655 237.382 277.585Z" fill="white"/>
<path d="M229.937 260.166L228.854 260.889L223.293 252.566L224.492 251.765L229.198 258.807L230.134 255.925L230.967 257.171L229.937 260.166Z" fill="white"/>
</g>
<g filter="url(#filter14_d_10052_17633)">
<path d="M105.966 74.1655C110.099 71.404 111.21 65.8151 108.449 61.6822C105.687 57.5493 100.098 56.4376 95.9656 59.1991C91.8327 61.9606 90.721 67.5496 93.4825 71.6824C96.244 75.8153 101.833 76.927 105.966 74.1655Z" fill="#FED056"/>
<path d="M105.04 72.7802C108.408 70.53 109.314 65.9758 107.063 62.6082C104.813 59.2405 100.259 58.3347 96.8914 60.5849C93.5237 62.835 92.6178 67.3892 94.868 70.7568C97.1182 74.1245 101.672 75.0304 105.04 72.7802Z" fill="#FEB635"/>
<path d="M107.063 62.6082C109.31 65.9698 108.402 70.534 105.04 72.7802C103.944 73.5126 102.724 73.9088 101.496 73.9939C102.588 73.8563 103.666 73.47 104.642 72.8177C108.004 70.5715 108.912 66.0073 106.666 62.6457C105.152 60.3802 102.582 59.2304 100.04 59.4115C102.71 59.0733 105.468 60.22 107.063 62.6082ZM97.4979 60.594C98.6993 59.7912 100.053 59.3939 101.395 59.3643C99.8561 59.2762 98.273 59.6659 96.8933 60.5878C93.5317 62.8339 92.6219 67.3952 94.87 70.7598C96.3192 72.9287 98.7366 74.0787 101.168 74.0099C98.9451 73.8845 96.8046 72.7566 95.4745 70.766C93.2284 67.4044 94.1363 62.8401 97.4979 60.594Z" fill="#FC9924"/>
<path d="M100.612 66.247C99.7127 66.8481 100.352 67.8513 100.622 68.2556C100.893 68.6598 101.622 69.1541 102.486 68.5767C103.301 68.0326 103.257 67.4768 102.992 67.0797C102.727 66.6826 101.512 65.6462 100.612 66.247Z" fill="#FC9924"/>
<path d="M104.196 67.2842L104.49 67.5932L105.208 67.3508L104.874 67.0488L104.196 67.2842Z" fill="#FC9924"/>
<path d="M105.658 66.3701L105.442 66.1878L105.402 66.701L105.638 66.9598L105.658 66.3701Z" fill="#FC9924"/>
<path d="M105.374 65.3758L105.114 65.5483L104.506 64.437L104.506 64.4356C104.492 64.411 104.476 64.3879 104.457 64.3667L104.212 64.1005C103.853 63.7097 103.347 63.4729 102.823 63.4508L102.017 63.4171C101.722 63.4046 101.425 63.428 101.136 63.4866L101.104 63.4947L100.89 63.5624C99.6879 62.8396 97.5135 63.0864 97.4111 63.0985L97.1805 63.1258L98.2452 64.9555L95.6411 66.5924L97.9719 67.2125L96.5883 69.2025L98.4798 68.8759L97.4038 70.4593L99.3892 70.4811L99.4458 72.349L101.256 70.5689L102.207 70.7954L102.402 70.7781L104.963 69.6537L105.019 69.6221L106.056 68.8748L106.183 68.6329L106.201 67.9866L105.921 67.8417L106.02 67.7749L106.09 67.7087L106.459 67.2305L106.493 66.904L105.829 65.5072L105.374 65.3758ZM106.212 67.0353L105.843 67.5136L104.507 68.4159L103.411 68.5725L102.848 69.1692L101.027 69.7908L102.961 69.6675L103.556 69.1064L104.656 68.9477L105.89 67.9724L105.872 68.6187L104.835 69.3659L102.274 70.4903L101.149 70.2226L99.7308 71.7326L99.6928 70.1709L97.9085 70.1513L98.9339 68.7974L99.0717 68.6155L99.0276 68.4649L98.9137 68.0753L98.8169 67.7442L98.7492 67.5127C98.5456 66.8163 98.621 66.0758 98.952 65.4485C99.7428 65.2537 101.704 64.7868 101.704 64.7868C101.704 64.7868 101.265 64.227 101.059 64.0595C100.991 64.0044 100.92 63.9533 100.847 63.9062L101.202 63.7939C101.464 63.741 101.735 63.7187 102.01 63.7303L102.816 63.764C103.26 63.7827 103.681 63.9799 103.986 64.3113L104.229 64.5762C104.256 64.6064 104.221 64.651 104.186 64.6303C103.811 64.4069 103.492 64.1525 103.274 64.3342C103.176 64.4154 103.141 64.5506 103.177 64.6749C103.436 65.5818 103.834 65.864 104.319 66.1299L103.696 66.9361L103.736 67.1844C103.991 66.7197 104.589 66.2753 104.589 66.2753L105.548 65.6385L106.212 67.0353Z" fill="#FC9924"/>
<path d="M100.28 66.1811C99.38 66.7822 100.02 67.7854 100.29 68.1896C100.56 68.5939 101.289 69.0882 102.154 68.5108C102.968 67.9667 102.924 67.4109 102.659 67.0138C102.394 66.6167 101.179 65.5803 100.28 66.1811Z" fill="#FED056"/>
<path d="M103.863 67.2183L104.158 67.5273L104.875 67.2849L104.541 66.9828L103.863 67.2183Z" fill="#FED056"/>
<path d="M105.325 66.3041L105.109 66.1219L105.069 66.6351L105.305 66.8939L105.325 66.3041Z" fill="#FED056"/>
<path d="M105.041 65.3099L104.781 65.4824L104.174 64.371L104.173 64.3697C104.159 64.3451 104.143 64.3219 104.124 64.3008L103.88 64.0346C103.52 63.6438 103.014 63.4069 102.49 63.3849L101.685 63.3511C101.389 63.3387 101.093 63.3621 100.803 63.4207L100.771 63.4288L100.557 63.4965C99.3551 62.7737 97.1808 63.0204 97.0783 63.0326L96.8477 63.0599L97.9124 64.8896L95.3084 66.5265L97.6392 67.1466L96.2556 69.1365L98.147 68.81L97.0711 70.3933L99.0564 70.4151L99.1131 72.283L100.923 70.503L101.875 70.7295L102.07 70.7122L104.63 69.5878L104.686 69.5562L105.723 68.8089L105.85 68.5669L105.868 67.9207L105.588 67.7758L105.687 67.709L105.758 67.6428L106.127 67.1646L106.16 66.8381L105.496 65.4413L105.041 65.3099ZM105.88 66.9694L105.511 67.4476L104.175 68.35L103.078 68.5066L102.515 69.1033L100.694 69.7248L102.628 69.6015L103.223 69.0405L104.323 68.8818L105.557 67.9065L105.539 68.5527L104.502 69.3L101.941 70.4244L100.816 70.1567L99.398 71.6667L99.3601 70.105L97.5758 70.0854L98.6011 68.7315L98.739 68.5496L98.6949 68.399L98.581 68.0094L98.4841 67.6783L98.4164 67.4468C98.2128 66.7504 98.2882 66.0099 98.6192 65.3826C99.4101 65.1878 101.371 64.7209 101.371 64.7209C101.371 64.7209 100.932 64.1611 100.726 63.9936C100.658 63.9385 100.587 63.8874 100.514 63.8403L100.869 63.728C101.132 63.6751 101.402 63.6528 101.677 63.6643L102.483 63.6981C102.927 63.7168 103.348 63.914 103.653 64.2454L103.896 64.5103C103.923 64.5405 103.888 64.5851 103.853 64.5644C103.478 64.341 103.16 64.0866 102.941 64.2683C102.844 64.3495 102.808 64.4847 102.844 64.609C103.103 65.5159 103.501 65.7981 103.986 66.0639L103.363 66.8701L103.404 67.1185C103.658 66.6538 104.256 66.2094 104.256 66.2094L105.216 65.5726L105.88 66.9694Z" fill="#FED056"/>
<path d="M106.723 82.0666L107.805 81.3432L113.366 89.6663L112.168 90.4674L107.462 83.4248L106.525 86.3069L105.693 85.0614L106.723 82.0666ZM114.325 86.9883L114.611 85.7028C115.14 85.9895 115.656 86.1327 116.161 86.1321C116.661 86.1238 117.124 85.9771 117.551 85.6919C118.086 85.3341 118.394 84.8704 118.473 84.3009C118.555 83.7183 118.405 83.14 118.021 82.5657C117.793 82.2242 117.514 81.967 117.185 81.7939C116.859 81.6078 116.52 81.5202 116.168 81.5309C115.811 81.5338 115.461 81.6494 115.12 81.8776C114.809 82.085 114.557 82.3713 114.363 82.7365C114.165 83.0939 114.098 83.4978 114.163 83.9481L113.755 84.1699C113.545 83.7378 113.445 83.3108 113.455 82.8889C113.46 82.4591 113.569 82.0604 113.784 81.6926C114.001 81.3118 114.303 80.9918 114.691 80.7326C115.204 80.3903 115.743 80.215 116.31 80.2067C116.872 80.1905 117.408 80.3207 117.918 80.5972C118.431 80.8607 118.864 81.2563 119.216 81.784C119.595 82.3505 119.808 82.9379 119.855 83.5461C119.902 84.1544 119.786 84.737 119.507 85.2938C119.223 85.8429 118.79 86.3119 118.208 86.7008C117.61 87.1001 116.979 87.3311 116.314 87.3939C115.643 87.449 114.98 87.3138 114.325 86.9883ZM115.744 77.4698L111.635 80.2154L111.817 79.4037L114.163 83.9481L113.127 84.6404L110.485 79.5527L115.083 76.4804L115.744 77.4698Z" fill="white"/>
</g>
</g>
<defs>
<filter id="filter0_d_10052_17633" x="233.707" y="204.39" width="64.2554" height="59.2891" filterUnits="userSpaceOnUse" color-interpolation-filters="sRGB">
<feFlood flood-opacity="0" result="BackgroundImageFix"/>
<feColorMatrix in="SourceAlpha" type="matrix" values="0 0 0 0 0 0 0 0 0 0 0 0 0 0 0 0 0 0 127 0" result="hardAlpha"/>
<feOffset/>
<feGaussianBlur stdDeviation="4"/>
<feComposite in2="hardAlpha" operator="out"/>
<feColorMatrix type="matrix" values="0 0 0 0 0 0 0 0 0 0 0 0 0 0 0 0 0 0 0.24 0"/>
<feBlend mode="normal" in2="BackgroundImageFix" result="effect1_dropShadow_10052_17633"/>
<feBlend mode="normal" in="SourceGraphic" in2="effect1_dropShadow_10052_17633" result="shape"/>
</filter>
<filter id="filter1_d_10052_17633" x="42.0383" y="76.3213" width="64.2554" height="59.2891" filterUnits="userSpaceOnUse" color-interpolation-filters="sRGB">
<feFlood flood-opacity="0" result="BackgroundImageFix"/>
<feColorMatrix in="SourceAlpha" type="matrix" values="0 0 0 0 0 0 0 0 0 0 0 0 0 0 0 0 0 0 127 0" result="hardAlpha"/>
<feOffset/>
<feGaussianBlur stdDeviation="4"/>
<feComposite in2="hardAlpha" operator="out"/>
<feColorMatrix type="matrix" values="0 0 0 0 0 0 0 0 0 0 0 0 0 0 0 0 0 0 0.24 0"/>
<feBlend mode="normal" in2="BackgroundImageFix" result="effect1_dropShadow_10052_17633"/>
<feBlend mode="normal" in="SourceGraphic" in2="effect1_dropShadow_10052_17633" result="shape"/>
</filter>
<filter id="filter2_d_10052_17633" x="252.107" y="168.619" width="61.8751" height="47.7329" filterUnits="userSpaceOnUse" color-interpolation-filters="sRGB">
<feFlood flood-opacity="0" result="BackgroundImageFix"/>
<feColorMatrix in="SourceAlpha" type="matrix" values="0 0 0 0 0 0 0 0 0 0 0 0 0 0 0 0 0 0 127 0" result="hardAlpha"/>
<feOffset/>
<feGaussianBlur stdDeviation="4"/>
<feComposite in2="hardAlpha" operator="out"/>
<feColorMatrix type="matrix" values="0 0 0 0 0 0 0 0 0 0 0 0 0 0 0 0 0 0 0.24 0"/>
<feBlend mode="normal" in2="BackgroundImageFix" result="effect1_dropShadow_10052_17633"/>
<feBlend mode="normal" in="SourceGraphic" in2="effect1_dropShadow_10052_17633" result="shape"/>
</filter>
<filter id="filter3_d_10052_17633" x="252.107" y="123.648" width="61.8752" height="47.7324" filterUnits="userSpaceOnUse" color-interpolation-filters="sRGB">
<feFlood flood-opacity="0" result="BackgroundImageFix"/>
<feColorMatrix in="SourceAlpha" type="matrix" values="0 0 0 0 0 0 0 0 0 0 0 0 0 0 0 0 0 0 127 0" result="hardAlpha"/>
<feOffset/>
<feGaussianBlur stdDeviation="4"/>
<feComposite in2="hardAlpha" operator="out"/>
<feColorMatrix type="matrix" values="0 0 0 0 0 0 0 0 0 0 0 0 0 0 0 0 0 0 0.24 0"/>
<feBlend mode="normal" in2="BackgroundImageFix" result="effect1_dropShadow_10052_17633"/>
<feBlend mode="normal" in="SourceGraphic" in2="effect1_dropShadow_10052_17633" result="shape"/>
</filter>
<filter id="filter4_d_10052_17633" x="26.0182" y="168.62" width="61.8752" height="47.7324" filterUnits="userSpaceOnUse" color-interpolation-filters="sRGB">
<feFlood flood-opacity="0" result="BackgroundImageFix"/>
<feColorMatrix in="SourceAlpha" type="matrix" values="0 0 0 0 0 0 0 0 0 0 0 0 0 0 0 0 0 0 127 0" result="hardAlpha"/>
<feOffset/>
<feGaussianBlur stdDeviation="4"/>
<feComposite in2="hardAlpha" operator="out"/>
<feColorMatrix type="matrix" values="0 0 0 0 0 0 0 0 0 0 0 0 0 0 0 0 0 0 0.24 0"/>
<feBlend mode="normal" in2="BackgroundImageFix" result="effect1_dropShadow_10052_17633"/>
<feBlend mode="normal" in="SourceGraphic" in2="effect1_dropShadow_10052_17633" result="shape"/>
</filter>
<filter id="filter5_d_10052_17633" x="233.706" y="76.3208" width="64.2554" height="59.2891" filterUnits="userSpaceOnUse" color-interpolation-filters="sRGB">
<feFlood flood-opacity="0" result="BackgroundImageFix"/>
<feColorMatrix in="SourceAlpha" type="matrix" values="0 0 0 0 0 0 0 0 0 0 0 0 0 0 0 0 0 0 127 0" result="hardAlpha"/>
<feOffset/>
<feGaussianBlur stdDeviation="4"/>
<feComposite in2="hardAlpha" operator="out"/>
<feColorMatrix type="matrix" values="0 0 0 0 0 0 0 0 0 0 0 0 0 0 0 0 0 0 0.24 0"/>
<feBlend mode="normal" in2="BackgroundImageFix" result="effect1_dropShadow_10052_17633"/>
<feBlend mode="normal" in="SourceGraphic" in2="effect1_dropShadow_10052_17633" result="shape"/>
</filter>
<filter id="filter6_d_10052_17633" x="42.0381" y="204.39" width="64.2554" height="59.2891" filterUnits="userSpaceOnUse" color-interpolation-filters="sRGB">
<feFlood flood-opacity="0" result="BackgroundImageFix"/>
<feColorMatrix in="SourceAlpha" type="matrix" values="0 0 0 0 0 0 0 0 0 0 0 0 0 0 0 0 0 0 127 0" result="hardAlpha"/>
<feOffset/>
<feGaussianBlur stdDeviation="4"/>
<feComposite in2="hardAlpha" operator="out"/>
<feColorMatrix type="matrix" values="0 0 0 0 0 0 0 0 0 0 0 0 0 0 0 0 0 0 0.24 0"/>
<feBlend mode="normal" in2="BackgroundImageFix" result="effect1_dropShadow_10052_17633"/>
<feBlend mode="normal" in="SourceGraphic" in2="effect1_dropShadow_10052_17633" result="shape"/>
</filter>
<filter id="filter7_d_10052_17633" x="76.321" y="233.706" width="59.2892" height="64.2554" filterUnits="userSpaceOnUse" color-interpolation-filters="sRGB">
<feFlood flood-opacity="0" result="BackgroundImageFix"/>
<feColorMatrix in="SourceAlpha" type="matrix" values="0 0 0 0 0 0 0 0 0 0 0 0 0 0 0 0 0 0 127 0" result="hardAlpha"/>
<feOffset/>
<feGaussianBlur stdDeviation="4"/>
<feComposite in2="hardAlpha" operator="out"/>
<feColorMatrix type="matrix" values="0 0 0 0 0 0 0 0 0 0 0 0 0 0 0 0 0 0 0.24 0"/>
<feBlend mode="normal" in2="BackgroundImageFix" result="effect1_dropShadow_10052_17633"/>
<feBlend mode="normal" in="SourceGraphic" in2="effect1_dropShadow_10052_17633" result="shape"/>
</filter>
<filter id="filter8_d_10052_17633" x="204.39" y="42.0381" width="59.2892" height="64.2554" filterUnits="userSpaceOnUse" color-interpolation-filters="sRGB">
<feFlood flood-opacity="0" result="BackgroundImageFix"/>
<feColorMatrix in="SourceAlpha" type="matrix" values="0 0 0 0 0 0 0 0 0 0 0 0 0 0 0 0 0 0 127 0" result="hardAlpha"/>
<feOffset/>
<feGaussianBlur stdDeviation="4"/>
<feComposite in2="hardAlpha" operator="out"/>
<feColorMatrix type="matrix" values="0 0 0 0 0 0 0 0 0 0 0 0 0 0 0 0 0 0 0.24 0"/>
<feBlend mode="normal" in2="BackgroundImageFix" result="effect1_dropShadow_10052_17633"/>
<feBlend mode="normal" in="SourceGraphic" in2="effect1_dropShadow_10052_17633" result="shape"/>
</filter>
<filter id="filter9_d_10052_17633" x="123.648" y="252.107" width="47.7326" height="61.875" filterUnits="userSpaceOnUse" color-interpolation-filters="sRGB">
<feFlood flood-opacity="0" result="BackgroundImageFix"/>
<feColorMatrix in="SourceAlpha" type="matrix" values="0 0 0 0 0 0 0 0 0 0 0 0 0 0 0 0 0 0 127 0" result="hardAlpha"/>
<feOffset/>
<feGaussianBlur stdDeviation="4"/>
<feComposite in2="hardAlpha" operator="out"/>
<feColorMatrix type="matrix" values="0 0 0 0 0 0 0 0 0 0 0 0 0 0 0 0 0 0 0.24 0"/>
<feBlend mode="normal" in2="BackgroundImageFix" result="effect1_dropShadow_10052_17633"/>
<feBlend mode="normal" in="SourceGraphic" in2="effect1_dropShadow_10052_17633" result="shape"/>
</filter>
<filter id="filter10_d_10052_17633" x="168.62" y="26.0186" width="47.7326" height="61.875" filterUnits="userSpaceOnUse" color-interpolation-filters="sRGB">
<feFlood flood-opacity="0" result="BackgroundImageFix"/>
<feColorMatrix in="SourceAlpha" type="matrix" values="0 0 0 0 0 0 0 0 0 0 0 0 0 0 0 0 0 0 127 0" result="hardAlpha"/>
<feOffset/>
<feGaussianBlur stdDeviation="4"/>
<feComposite in2="hardAlpha" operator="out"/>
<feColorMatrix type="matrix" values="0 0 0 0 0 0 0 0 0 0 0 0 0 0 0 0 0 0 0.24 0"/>
<feBlend mode="normal" in2="BackgroundImageFix" result="effect1_dropShadow_10052_17633"/>
<feBlend mode="normal" in="SourceGraphic" in2="effect1_dropShadow_10052_17633" result="shape"/>
</filter>
<filter id="filter11_d_10052_17633" x="168.62" y="252.106" width="47.7327" height="61.875" filterUnits="userSpaceOnUse" color-interpolation-filters="sRGB">
<feFlood flood-opacity="0" result="BackgroundImageFix"/>
<feColorMatrix in="SourceAlpha" type="matrix" values="0 0 0 0 0 0 0 0 0 0 0 0 0 0 0 0 0 0 127 0" result="hardAlpha"/>
<feOffset/>
<feGaussianBlur stdDeviation="4"/>
<feComposite in2="hardAlpha" operator="out"/>
<feColorMatrix type="matrix" values="0 0 0 0 0 0 0 0 0 0 0 0 0 0 0 0 0 0 0.24 0"/>
<feBlend mode="normal" in2="BackgroundImageFix" result="effect1_dropShadow_10052_17633"/>
<feBlend mode="normal" in="SourceGraphic" in2="effect1_dropShadow_10052_17633" result="shape"/>
</filter>
<filter id="filter12_d_10052_17633" x="123.648" y="26.0181" width="47.7326" height="61.875" filterUnits="userSpaceOnUse" color-interpolation-filters="sRGB">
<feFlood flood-opacity="0" result="BackgroundImageFix"/>
<feColorMatrix in="SourceAlpha" type="matrix" values="0 0 0 0 0 0 0 0 0 0 0 0 0 0 0 0 0 0 127 0" result="hardAlpha"/>
<feOffset/>
<feGaussianBlur stdDeviation="4"/>
<feComposite in2="hardAlpha" operator="out"/>
<feColorMatrix type="matrix" values="0 0 0 0 0 0 0 0 0 0 0 0 0 0 0 0 0 0 0.24 0"/>
<feBlend mode="normal" in2="BackgroundImageFix" result="effect1_dropShadow_10052_17633"/>
<feBlend mode="normal" in="SourceGraphic" in2="effect1_dropShadow_10052_17633" result="shape"/>
</filter>
<filter id="filter13_d_10052_17633" x="204.39" y="233.707" width="59.2892" height="64.2554" filterUnits="userSpaceOnUse" color-interpolation-filters="sRGB">
<feFlood flood-opacity="0" result="BackgroundImageFix"/>
<feColorMatrix in="SourceAlpha" type="matrix" values="0 0 0 0 0 0 0 0 0 0 0 0 0 0 0 0 0 0 127 0" result="hardAlpha"/>
<feOffset/>
<feGaussianBlur stdDeviation="4"/>
<feComposite in2="hardAlpha" operator="out"/>
<feColorMatrix type="matrix" values="0 0 0 0 0 0 0 0 0 0 0 0 0 0 0 0 0 0 0.24 0"/>
<feBlend mode="normal" in2="BackgroundImageFix" result="effect1_dropShadow_10052_17633"/>
<feBlend mode="normal" in="SourceGraphic" in2="effect1_dropShadow_10052_17633" result="shape"/>
</filter>
<filter id="filter14_d_10052_17633" x="76.3212" y="42.0381" width="59.2892" height="64.2554" filterUnits="userSpaceOnUse" color-interpolation-filters="sRGB">
<feFlood flood-opacity="0" result="BackgroundImageFix"/>
<feColorMatrix in="SourceAlpha" type="matrix" values="0 0 0 0 0 0 0 0 0 0 0 0 0 0 0 0 0 0 127 0" result="hardAlpha"/>
<feOffset/>
<feGaussianBlur stdDeviation="4"/>
<feComposite in2="hardAlpha" operator="out"/>
<feColorMatrix type="matrix" values="0 0 0 0 0 0 0 0 0 0 0 0 0 0 0 0 0 0 0.24 0"/>
<feBlend mode="normal" in2="BackgroundImageFix" result="effect1_dropShadow_10052_17633"/>
<feBlend mode="normal" in="SourceGraphic" in2="effect1_dropShadow_10052_17633" result="shape"/>
</filter>
<linearGradient id="paint0_linear_10052_17633" x1="379.304" y1="170" x2="-33.6274" y2="218.412" gradientUnits="userSpaceOnUse">
<stop stop-color="#F68334"/>
<stop offset="1" stop-color="#FAA223"/>
</linearGradient>
<linearGradient id="paint1_linear_10052_17633" x1="379.304" y1="170" x2="-33.6274" y2="218.412" gradientUnits="userSpaceOnUse">
<stop stop-color="#F68334"/>
<stop offset="1" stop-color="#FAA223"/>
</linearGradient>
<linearGradient id="paint2_linear_10052_17633" x1="379.304" y1="170" x2="-33.6274" y2="218.412" gradientUnits="userSpaceOnUse">
<stop stop-color="#F68334"/>
<stop offset="1" stop-color="#FAA223"/>
</linearGradient>
<linearGradient id="paint3_linear_10052_17633" x1="379.304" y1="170" x2="-33.6274" y2="218.412" gradientUnits="userSpaceOnUse">
<stop stop-color="#F68334"/>
<stop offset="1" stop-color="#FAA223"/>
</linearGradient>
<linearGradient id="paint4_linear_10052_17633" x1="379.304" y1="170" x2="-33.6274" y2="218.412" gradientUnits="userSpaceOnUse">
<stop stop-color="#F68334"/>
<stop offset="1" stop-color="#FAA223"/>
</linearGradient>
<linearGradient id="paint5_linear_10052_17633" x1="379.304" y1="170" x2="-33.6274" y2="218.412" gradientUnits="userSpaceOnUse">
<stop stop-color="#F68334"/>
<stop offset="1" stop-color="#FAA223"/>
</linearGradient>
<linearGradient id="paint6_linear_10052_17633" x1="-22.0591" y1="131.603" x2="134.004" y2="161.629" gradientUnits="userSpaceOnUse">
<stop stop-color="#C95200"/>
<stop offset="1" stop-color="#FFDB49"/>
</linearGradient>
<linearGradient id="paint7_linear_10052_17633" x1="379.304" y1="170" x2="-33.6274" y2="218.412" gradientUnits="userSpaceOnUse">
<stop stop-color="#F68334"/>
<stop offset="1" stop-color="#FAA223"/>
</linearGradient>
<linearGradient id="paint8_linear_10052_17633" x1="379.304" y1="170" x2="-33.6274" y2="218.412" gradientUnits="userSpaceOnUse">
<stop stop-color="#F68334"/>
<stop offset="1" stop-color="#FAA223"/>
</linearGradient>
<linearGradient id="paint9_linear_10052_17633" x1="379.304" y1="170" x2="-33.6274" y2="218.412" gradientUnits="userSpaceOnUse">
<stop stop-color="#F68334"/>
<stop offset="1" stop-color="#FAA223"/>
</linearGradient>
<linearGradient id="paint10_linear_10052_17633" x1="379.304" y1="170" x2="-33.6274" y2="218.412" gradientUnits="userSpaceOnUse">
<stop stop-color="#F68334"/>
<stop offset="1" stop-color="#FAA223"/>
</linearGradient>
<linearGradient id="paint11_linear_10052_17633" x1="379.304" y1="170" x2="-33.6274" y2="218.412" gradientUnits="userSpaceOnUse">
<stop stop-color="#F68334"/>
<stop offset="1" stop-color="#FAA223"/>
</linearGradient>
<linearGradient id="paint12_linear_10052_17633" x1="379.304" y1="170" x2="-33.6274" y2="218.412" gradientUnits="userSpaceOnUse">
<stop stop-color="#F68334"/>
<stop offset="1" stop-color="#FAA223"/>
</linearGradient>
<linearGradient id="paint13_linear_10052_17633" x1="379.304" y1="170" x2="-33.6274" y2="218.412" gradientUnits="userSpaceOnUse">
<stop stop-color="#F68334"/>
<stop offset="1" stop-color="#FAA223"/>
</linearGradient>
<linearGradient id="paint14_linear_10052_17633" x1="379.304" y1="170" x2="-33.6274" y2="218.412" gradientUnits="userSpaceOnUse">
<stop stop-color="#F68334"/>
<stop offset="1" stop-color="#FAA223"/>
</linearGradient>
<linearGradient id="paint15_linear_10052_17633" x1="379.304" y1="170" x2="-33.6274" y2="218.412" gradientUnits="userSpaceOnUse">
<stop stop-color="#F68334"/>
<stop offset="1" stop-color="#FAA223"/>
</linearGradient>
<linearGradient id="paint16_linear_10052_17633" x1="379.304" y1="170" x2="-33.6274" y2="218.412" gradientUnits="userSpaceOnUse">
<stop stop-color="#F68334"/>
<stop offset="1" stop-color="#FAA223"/>
</linearGradient>
<linearGradient id="paint17_linear_10052_17633" x1="268.452" y1="223.077" x2="280.54" y2="273.84" gradientUnits="userSpaceOnUse">
<stop stop-color="#FDEB32"/>
<stop offset="0.439058" stop-color="#FEBD04"/>
<stop offset="1" stop-color="#D75902"/>
</linearGradient>
<linearGradient id="paint18_linear_10052_17633" x1="71.5486" y1="116.923" x2="59.4609" y2="66.1604" gradientUnits="userSpaceOnUse">
<stop stop-color="#FDEB32"/>
<stop offset="0.439058" stop-color="#FEBD04"/>
<stop offset="1" stop-color="#D75902"/>
</linearGradient>
<linearGradient id="paint19_linear_10052_17633" x1="9.97414e-07" y1="-9.95912e-07" x2="16.6415" y2="16.6666" gradientUnits="userSpaceOnUse">
<stop stop-color="#FFED26"/>
<stop offset="0.5" stop-color="#FF902F"/>
<stop offset="1" stop-color="#FFD229"/>
</linearGradient>
<linearGradient id="paint20_linear_10052_17633" x1="0" y1="0" x2="16.6415" y2="16.6666" gradientUnits="userSpaceOnUse">
<stop stop-color="#F68334"/>
<stop offset="0.5" stop-color="#FFFB88"/>
<stop offset="1" stop-color="#FAA223"/>
</linearGradient>
<linearGradient id="paint21_linear_10052_17633" x1="55.8002" y1="136.238" x2="69.7185" y2="136.834" gradientUnits="userSpaceOnUse">
<stop stop-color="#5E2833"/>
<stop offset="1" stop-color="#5E2833" stop-opacity="0.62"/>
</linearGradient>
<linearGradient id="paint22_linear_10052_17633" x1="9.97414e-07" y1="-9.95912e-07" x2="16.6415" y2="16.6666" gradientUnits="userSpaceOnUse">
<stop stop-color="#FFED26"/>
<stop offset="0.5" stop-color="#FF902F"/>
<stop offset="1" stop-color="#FFD229"/>
</linearGradient>
<linearGradient id="paint23_linear_10052_17633" x1="0" y1="0" x2="16.6415" y2="16.6666" gradientUnits="userSpaceOnUse">
<stop stop-color="#F68334"/>
<stop offset="0.5" stop-color="#FFFB88"/>
<stop offset="1" stop-color="#FAA223"/>
</linearGradient>
<linearGradient id="paint24_linear_10052_17633" x1="53.0453" y1="158.631" x2="67.1319" y2="161.149" gradientUnits="userSpaceOnUse">
<stop stop-color="#5E2833"/>
<stop offset="1" stop-color="#5E2833" stop-opacity="0.62"/>
</linearGradient>
<linearGradient id="paint25_linear_10052_17633" x1="9.95912e-07" y1="-9.95911e-07" x2="16.6416" y2="16.6416" gradientUnits="userSpaceOnUse">
<stop stop-color="#FFED26"/>
<stop offset="0.5" stop-color="#FF902F"/>
<stop offset="1" stop-color="#FFD229"/>
</linearGradient>
<linearGradient id="paint26_linear_10052_17633" x1="0" y1="0" x2="16.6416" y2="16.6416" gradientUnits="userSpaceOnUse">
<stop stop-color="#F68334"/>
<stop offset="0.5" stop-color="#FFFB88"/>
<stop offset="1" stop-color="#FAA223"/>
</linearGradient>
<linearGradient id="paint27_linear_10052_17633" x1="48.3025" y1="153.209" x2="57.5035" y2="142.278" gradientUnits="userSpaceOnUse">
<stop stop-color="#5E2833"/>
<stop offset="1" stop-color="#5E2833" stop-opacity="0.62"/>
</linearGradient>
<linearGradient id="paint28_linear_10052_17633" x1="277.147" y1="137.915" x2="321.589" y2="165.263" gradientUnits="userSpaceOnUse">
<stop stop-color="#FDEB32"/>
<stop offset="0.439058" stop-color="#FEBD04"/>
<stop offset="1" stop-color="#D75902"/>
</linearGradient>
<linearGradient id="paint29_linear_10052_17633" x1="265.834" y1="105.965" x2="280.801" y2="95.9652" gradientUnits="userSpaceOnUse">
<stop stop-color="#0072AB"/>
<stop offset="1" stop-color="#2EB9FF"/>
</linearGradient>
<linearGradient id="paint30_linear_10052_17633" x1="83.2877" y1="240.646" x2="31.763" y2="232.388" gradientUnits="userSpaceOnUse">
<stop stop-color="#FDEB32"/>
<stop offset="0.439058" stop-color="#FEBD04"/>
<stop offset="1" stop-color="#D75902"/>
</linearGradient>
<linearGradient id="paint31_linear_10052_17633" x1="105.966" y1="265.834" x2="95.9654" y2="280.8" gradientUnits="userSpaceOnUse">
<stop stop-color="#0072AB"/>
<stop offset="1" stop-color="#2EB9FF"/>
</linearGradient>
<linearGradient id="paint32_linear_10052_17633" x1="158.64" y1="281.269" x2="116.367" y2="311.863" gradientUnits="userSpaceOnUse">
<stop stop-color="#FDEB32"/>
<stop offset="0.439058" stop-color="#FEBD04"/>
<stop offset="1" stop-color="#D75902"/>
</linearGradient>
<linearGradient id="paint33_linear_10052_17633" x1="181.361" y1="58.7314" x2="223.634" y2="28.1377" gradientUnits="userSpaceOnUse">
<stop stop-color="#FDEB32"/>
<stop offset="0.439058" stop-color="#FEBD04"/>
<stop offset="1" stop-color="#D75902"/>
</linearGradient>
<linearGradient id="paint34_linear_10052_17633" x1="147.514" y1="56.9555" x2="144.003" y2="39.3013" gradientUnits="userSpaceOnUse">
<stop stop-color="#0072AB"/>
<stop offset="1" stop-color="#2EB9FF"/>
</linearGradient>
<linearGradient id="paint35_linear_10052_17633" x1="234.035" y1="265.834" x2="244.035" y2="280.801" gradientUnits="userSpaceOnUse">
<stop stop-color="#0072AB"/>
<stop offset="1" stop-color="#2EB9FF"/>
</linearGradient>
<clipPath id="clip0_10052_17633">
<rect width="340" height="340" fill="white"/>
</clipPath>
<clipPath id="clip1_10052_17633">
<rect width="24" height="24" fill="white" transform="translate(289.962 235.724) rotate(123.75)"/>
</clipPath>
<clipPath id="clip2_10052_17633">
<rect width="24" height="24" fill="white" transform="translate(50.0383 104.276) rotate(-56.25)"/>
</clipPath>
<clipPath id="clip3_10052_17633">
<rect width="24" height="24" fill="white" transform="translate(63.3718 255.679) rotate(-123.75)"/>
</clipPath>
</defs>
</svg>
