<svg width="320" height="262" viewBox="0 0 320 262" fill="none" xmlns="http://www.w3.org/2000/svg">
<ellipse opacity="0.7" cx="160" cy="130.676" rx="159.425" ry="130.676" fill="url(#paint0_radial_12817_45006)"/>
<path opacity="0.1" d="M14.1653 110.814L305.835 150.54V110.814L14.1653 150.54V110.814Z" fill="url(#paint1_radial_12817_45006)"/>
<path opacity="0.3" d="M47.6184 173.539L271.603 87.2577L252.968 54.9805L66.2536 205.816L47.6184 173.539Z" fill="url(#paint2_radial_12817_45006)"/>
<path opacity="0.3" d="M181.739 247.399L137.215 13.394L101.82 26.1815L217.135 234.612L181.739 247.399Z" fill="url(#paint3_radial_12817_45006)"/>
<path opacity="0.3" d="M99.1921 233.115L219.763 27.68L184.703 13.9979L134.252 246.797L99.1921 233.115Z" fill="url(#paint4_radial_12817_45006)"/>
<path opacity="0.3" d="M47.6184 87.8154L271.603 174.097L252.968 206.374L66.2536 55.5383L47.6184 87.8154Z" fill="url(#paint5_radial_12817_45006)"/>
<path fill-rule="evenodd" clip-rule="evenodd" d="M244.041 93.7702L234.923 94.1905C233.975 94.2341 233.201 93.4846 233.195 92.5161C233.192 92.0431 233.376 91.5816 233.706 91.2362L237.184 87.5911C238.44 86.2752 240.18 85.5742 241.937 85.6768L251.303 86.2242C251.739 86.2498 252.127 85.9075 252.169 85.4597C252.203 85.097 251.998 84.7647 251.667 84.646L242.739 81.4423C240.924 80.7911 239.513 79.3439 238.882 77.4862L237.62 73.7746C237.313 72.8705 237.79 71.8542 238.687 71.5048C239.123 71.3348 239.601 71.3489 240.014 71.544L248.184 75.4099C248.761 75.683 249.452 75.5957 249.972 75.1838L257.367 69.3256C258.13 68.721 259.205 68.8451 259.767 69.6027C260.037 69.9666 260.151 70.4308 260.082 70.8933L258.707 80.2269C258.61 80.8831 258.88 81.5251 259.405 81.8884L266.879 87.0593C267.65 87.5927 267.827 88.6813 267.276 89.4908C267.01 89.8801 266.608 90.1513 266.158 90.2448L257.097 92.1231C256.459 92.2552 255.934 92.7402 255.739 93.3775L252.966 102.428C252.68 103.363 251.715 103.912 250.811 103.655C250.377 103.531 250.015 103.234 249.805 102.829L245.576 94.6567C245.279 94.0829 244.686 93.7404 244.041 93.7702Z" fill="white"/>
<path fill-rule="evenodd" clip-rule="evenodd" d="M244.041 93.7702L234.923 94.1905C233.975 94.2341 233.201 93.4846 233.195 92.5161C233.192 92.0431 233.376 91.5816 233.706 91.2362L237.184 87.5911C238.44 86.2752 240.18 85.5742 241.937 85.6768L251.303 86.2242C251.739 86.2498 252.127 85.9075 252.169 85.4597C252.203 85.097 251.998 84.7647 251.667 84.646L242.739 81.4423C240.924 80.7911 239.513 79.3439 238.882 77.4862L237.62 73.7746C237.313 72.8705 237.79 71.8542 238.687 71.5048C239.123 71.3348 239.601 71.3489 240.014 71.544L248.184 75.4099C248.761 75.683 249.452 75.5957 249.972 75.1838L257.367 69.3256C258.13 68.721 259.205 68.8451 259.767 69.6027C260.037 69.9666 260.151 70.4308 260.082 70.8933L258.707 80.2269C258.61 80.8831 258.88 81.5251 259.405 81.8884L266.879 87.0593C267.65 87.5927 267.827 88.6813 267.276 89.4908C267.01 89.8801 266.608 90.1513 266.158 90.2448L257.097 92.1231C256.459 92.2552 255.934 92.7402 255.739 93.3775L252.966 102.428C252.68 103.363 251.715 103.912 250.811 103.655C250.377 103.531 250.015 103.234 249.805 102.829L245.576 94.6567C245.279 94.0829 244.686 93.7404 244.041 93.7702Z" fill="url(#paint6_linear_12817_45006)"/>
<path fill-rule="evenodd" clip-rule="evenodd" d="M74.5244 94.8152L83.6418 95.2355C84.5898 95.279 85.3635 94.5295 85.3696 93.561C85.3727 93.0881 85.1885 92.6265 84.8589 92.2812L81.3806 88.636C80.1249 87.3201 78.3845 86.6191 76.6281 86.7217L67.2622 87.2691C66.8255 87.2947 66.4377 86.9524 66.3959 86.5046C66.3619 86.1419 66.567 85.8097 66.898 85.6909L75.8257 82.4873C77.6405 81.8361 79.0516 80.3888 79.6831 78.5311L80.9449 74.8196C81.2524 73.9154 80.7745 72.8991 79.8777 72.5497C79.4415 72.3797 78.9635 72.3939 78.5513 72.5889L70.3811 76.4548C69.8039 76.728 69.1131 76.6406 68.5932 76.2288L61.198 70.3705C60.4346 69.7659 59.36 69.89 58.7977 70.6477C58.5277 71.0115 58.4143 71.4757 58.4825 71.9383L59.8582 81.2719C59.9549 81.928 59.6851 82.5701 59.1601 82.9333L51.6861 88.1042C50.9151 88.6376 50.7374 89.7262 51.2892 90.5357C51.5546 90.9251 51.9567 91.1963 52.4068 91.2897L61.4682 93.168C62.1061 93.3001 62.631 93.7851 62.8263 94.4224L65.599 103.473C65.8854 104.407 66.8502 104.957 67.754 104.7C68.1883 104.576 68.5501 104.279 68.7596 103.874L72.9889 95.7017C73.2859 95.1278 73.879 94.7854 74.5244 94.8152Z" fill="white"/>
<path fill-rule="evenodd" clip-rule="evenodd" d="M74.5244 94.8152L83.6418 95.2355C84.5898 95.279 85.3635 94.5295 85.3696 93.561C85.3727 93.0881 85.1885 92.6265 84.8589 92.2812L81.3806 88.636C80.1249 87.3201 78.3845 86.6191 76.6281 86.7217L67.2622 87.2691C66.8255 87.2947 66.4377 86.9524 66.3959 86.5046C66.3619 86.1419 66.567 85.8097 66.898 85.6909L75.8257 82.4873C77.6405 81.8361 79.0516 80.3888 79.6831 78.5311L80.9449 74.8196C81.2524 73.9154 80.7745 72.8991 79.8777 72.5497C79.4415 72.3797 78.9635 72.3939 78.5513 72.5889L70.3811 76.4548C69.8039 76.728 69.1131 76.6406 68.5932 76.2288L61.198 70.3705C60.4346 69.7659 59.36 69.89 58.7977 70.6477C58.5277 71.0115 58.4143 71.4757 58.4825 71.9383L59.8582 81.2719C59.9549 81.928 59.6851 82.5701 59.1601 82.9333L51.6861 88.1042C50.9151 88.6376 50.7374 89.7262 51.2892 90.5357C51.5546 90.9251 51.9567 91.1963 52.4068 91.2897L61.4682 93.168C62.1061 93.3001 62.631 93.7851 62.8263 94.4224L65.599 103.473C65.8854 104.407 66.8502 104.957 67.754 104.7C68.1883 104.576 68.5501 104.279 68.7596 103.874L72.9889 95.7017C73.2859 95.1278 73.879 94.7854 74.5244 94.8152Z" fill="url(#paint7_linear_12817_45006)"/>
<path fill-rule="evenodd" clip-rule="evenodd" d="M246.127 193.561L240.914 201.053C240.372 201.832 239.306 201.99 238.534 201.406C238.157 201.12 237.902 200.693 237.829 200.222L237.052 195.244C236.771 193.446 237.274 191.639 238.424 190.307L244.556 183.207C244.842 182.876 244.806 182.36 244.476 182.054C244.209 181.806 243.82 181.767 243.525 181.957L235.551 187.094C233.93 188.138 231.923 188.378 230.064 187.749L226.351 186.492C225.446 186.187 224.931 185.189 225.199 184.265C225.329 183.815 225.631 183.444 226.037 183.236L234.075 179.103C234.643 178.811 234.994 178.21 234.984 177.547L234.833 168.113C234.818 167.14 235.57 166.362 236.513 166.377C236.966 166.384 237.404 166.576 237.729 166.912L244.3 173.682C244.762 174.158 245.436 174.334 246.044 174.139L254.694 171.352C255.587 171.065 256.559 171.586 256.866 172.517C257.013 172.964 256.984 173.448 256.784 173.862L252.762 182.197C252.479 182.783 252.545 183.495 252.932 184.038L258.428 191.744C258.996 192.54 258.845 193.64 258.091 194.201C257.729 194.47 257.273 194.577 256.824 194.497L247.765 192.882C247.129 192.768 246.496 193.031 246.127 193.561Z" fill="white"/>
<path fill-rule="evenodd" clip-rule="evenodd" d="M246.127 193.561L240.914 201.053C240.372 201.832 239.306 201.99 238.534 201.406C238.157 201.12 237.902 200.693 237.829 200.222L237.052 195.244C236.771 193.446 237.274 191.639 238.424 190.307L244.556 183.207C244.842 182.876 244.806 182.36 244.476 182.054C244.209 181.806 243.82 181.767 243.525 181.957L235.551 187.094C233.93 188.138 231.923 188.378 230.064 187.749L226.351 186.492C225.446 186.187 224.931 185.189 225.199 184.265C225.329 183.815 225.631 183.444 226.037 183.236L234.075 179.103C234.643 178.811 234.994 178.21 234.984 177.547L234.833 168.113C234.818 167.14 235.57 166.362 236.513 166.377C236.966 166.384 237.404 166.576 237.729 166.912L244.3 173.682C244.762 174.158 245.436 174.334 246.044 174.139L254.694 171.352C255.587 171.065 256.559 171.586 256.866 172.517C257.013 172.964 256.984 173.448 256.784 173.862L252.762 182.197C252.479 182.783 252.545 183.495 252.932 184.038L258.428 191.744C258.996 192.54 258.845 193.64 258.091 194.201C257.729 194.47 257.273 194.577 256.824 194.497L247.765 192.882C247.129 192.768 246.496 193.031 246.127 193.561Z" fill="url(#paint8_linear_12817_45006)"/>
<path fill-rule="evenodd" clip-rule="evenodd" d="M77.7344 200.878L82.9474 208.37C83.4895 209.149 84.555 209.307 85.3274 208.723C85.7046 208.438 85.9589 208.011 86.0325 207.539L86.8095 202.561C87.0901 200.764 86.5876 198.956 85.4377 197.624L79.3055 190.524C79.0195 190.193 79.0553 189.677 79.3852 189.371C79.6525 189.124 80.0409 189.084 80.3365 189.275L88.3103 194.412C89.9312 195.456 91.9382 195.695 93.7969 195.066L97.5102 193.81C98.4148 193.504 98.9307 192.506 98.6625 191.582C98.532 191.132 98.23 190.762 97.8245 190.553L89.7859 186.421C89.218 186.129 88.867 185.527 88.8776 184.864L89.0283 175.431C89.0438 174.457 88.2915 173.68 87.3481 173.694C86.8951 173.701 86.4576 173.894 86.132 174.229L79.5612 180.999C79.0992 181.475 78.4255 181.652 77.8178 181.456L69.167 178.67C68.2746 178.382 67.3026 178.904 66.9958 179.834C66.8482 180.281 66.8776 180.766 67.0773 181.18L71.0989 189.514C71.3822 190.101 71.3165 190.812 70.9295 191.355L65.4334 199.061C64.8658 199.857 65.0167 200.957 65.7706 201.518C66.1327 201.788 66.5885 201.894 67.0374 201.814L76.0967 200.199C76.7328 200.086 77.3654 200.348 77.7344 200.878Z" fill="white"/>
<path fill-rule="evenodd" clip-rule="evenodd" d="M77.7344 200.878L82.9474 208.37C83.4895 209.149 84.555 209.307 85.3274 208.723C85.7046 208.438 85.9589 208.011 86.0325 207.539L86.8095 202.561C87.0901 200.764 86.5876 198.956 85.4377 197.624L79.3055 190.524C79.0195 190.193 79.0553 189.677 79.3852 189.371C79.6525 189.124 80.0409 189.084 80.3365 189.275L88.3103 194.412C89.9312 195.456 91.9382 195.695 93.7969 195.066L97.5102 193.81C98.4148 193.504 98.9307 192.506 98.6625 191.582C98.532 191.132 98.23 190.762 97.8245 190.553L89.7859 186.421C89.218 186.129 88.867 185.527 88.8776 184.864L89.0283 175.431C89.0438 174.457 88.2915 173.68 87.3481 173.694C86.8951 173.701 86.4576 173.894 86.132 174.229L79.5612 180.999C79.0992 181.475 78.4255 181.652 77.8178 181.456L69.167 178.67C68.2746 178.382 67.3026 178.904 66.9958 179.834C66.8482 180.281 66.8776 180.766 67.0773 181.18L71.0989 189.514C71.3822 190.101 71.3165 190.812 70.9295 191.355L65.4334 199.061C64.8658 199.857 65.0167 200.957 65.7706 201.518C66.1327 201.788 66.5885 201.894 67.0374 201.814L76.0967 200.199C76.7328 200.086 77.3654 200.348 77.7344 200.878Z" fill="url(#paint9_linear_12817_45006)"/>
<path fill-rule="evenodd" clip-rule="evenodd" d="M221.594 137.303L220.76 139.493C220.673 139.72 220.417 139.826 220.189 139.728C220.077 139.681 219.987 139.59 219.94 139.477L219.437 138.285C219.256 137.855 219.269 137.373 219.473 136.97L220.56 134.821C220.61 134.721 220.569 134.594 220.468 134.539C220.386 134.494 220.287 134.508 220.225 134.574L218.558 136.348C218.219 136.709 217.733 136.893 217.231 136.852L216.228 136.769C215.984 136.749 215.794 136.533 215.803 136.286C215.808 136.166 215.86 136.054 215.948 135.977L217.694 134.449C217.817 134.341 217.868 134.169 217.824 134.005L217.201 131.664C217.137 131.423 217.276 131.182 217.512 131.127C217.625 131.101 217.746 131.122 217.848 131.185L219.905 132.464C220.049 132.554 220.228 132.556 220.367 132.47L222.35 131.239C222.554 131.112 222.829 131.181 222.963 131.394C223.027 131.496 223.05 131.619 223.026 131.734L222.541 134.06C222.507 134.224 222.568 134.397 222.698 134.508L224.545 136.087C224.736 136.25 224.767 136.533 224.614 136.72C224.54 136.809 224.433 136.864 224.316 136.872L221.959 137.032C221.794 137.043 221.653 137.148 221.594 137.303Z" fill="white"/>
<path fill-rule="evenodd" clip-rule="evenodd" d="M221.594 137.303L220.76 139.493C220.673 139.72 220.417 139.826 220.189 139.728C220.077 139.681 219.987 139.59 219.94 139.477L219.437 138.285C219.256 137.855 219.269 137.373 219.473 136.97L220.56 134.821C220.61 134.721 220.569 134.594 220.468 134.539C220.386 134.494 220.287 134.508 220.225 134.574L218.558 136.348C218.219 136.709 217.733 136.893 217.231 136.852L216.228 136.769C215.984 136.749 215.794 136.533 215.803 136.286C215.808 136.166 215.86 136.054 215.948 135.977L217.694 134.449C217.817 134.341 217.868 134.169 217.824 134.005L217.201 131.664C217.137 131.423 217.276 131.182 217.512 131.127C217.625 131.101 217.746 131.122 217.848 131.185L219.905 132.464C220.049 132.554 220.228 132.556 220.367 132.47L222.35 131.239C222.554 131.112 222.829 131.181 222.963 131.394C223.027 131.496 223.05 131.619 223.026 131.734L222.541 134.06C222.507 134.224 222.568 134.397 222.698 134.508L224.545 136.087C224.736 136.25 224.767 136.533 224.614 136.72C224.54 136.809 224.433 136.864 224.316 136.872L221.959 137.032C221.794 137.043 221.653 137.148 221.594 137.303Z" fill="url(#paint10_linear_12817_45006)"/>
<path fill-rule="evenodd" clip-rule="evenodd" d="M96.6882 122.904L97.522 125.094C97.6087 125.322 97.8643 125.428 98.093 125.33C98.2047 125.282 98.2945 125.192 98.3421 125.079L98.8446 123.887C99.026 123.456 99.013 122.975 98.8092 122.572L97.7222 120.422C97.6715 120.322 97.7124 120.196 97.8136 120.14C97.8955 120.095 97.9947 120.109 98.0565 120.175L99.7242 121.95C100.063 122.31 100.548 122.495 101.05 122.453L102.053 122.371C102.298 122.351 102.488 122.134 102.479 121.887C102.474 121.767 102.422 121.656 102.334 121.579L100.588 120.051C100.464 119.943 100.414 119.771 100.458 119.606L101.081 117.266C101.145 117.024 101.006 116.784 100.77 116.729C100.657 116.703 100.536 116.723 100.434 116.787L98.3769 118.066C98.2323 118.155 98.0535 118.158 97.9143 118.071L95.9321 116.84C95.7276 116.713 95.4531 116.783 95.319 116.995C95.2544 117.098 95.2317 117.22 95.2558 117.336L95.7404 119.662C95.7746 119.825 95.7141 119.999 95.584 120.11L93.7366 121.688C93.5458 121.852 93.5151 122.135 93.6681 122.321C93.7416 122.411 93.8485 122.466 93.9653 122.474L96.3224 122.634C96.4879 122.645 96.6292 122.749 96.6882 122.904Z" fill="white"/>
<path fill-rule="evenodd" clip-rule="evenodd" d="M96.6882 122.904L97.522 125.094C97.6087 125.322 97.8643 125.428 98.093 125.33C98.2047 125.282 98.2945 125.192 98.3421 125.079L98.8446 123.887C99.026 123.456 99.013 122.975 98.8092 122.572L97.7222 120.422C97.6715 120.322 97.7124 120.196 97.8136 120.14C97.8955 120.095 97.9947 120.109 98.0565 120.175L99.7242 121.95C100.063 122.31 100.548 122.495 101.05 122.453L102.053 122.371C102.298 122.351 102.488 122.134 102.479 121.887C102.474 121.767 102.422 121.656 102.334 121.579L100.588 120.051C100.464 119.943 100.414 119.771 100.458 119.606L101.081 117.266C101.145 117.024 101.006 116.784 100.77 116.729C100.657 116.703 100.536 116.723 100.434 116.787L98.3769 118.066C98.2323 118.155 98.0535 118.158 97.9143 118.071L95.9321 116.84C95.7276 116.713 95.4531 116.783 95.319 116.995C95.2544 117.098 95.2317 117.22 95.2558 117.336L95.7404 119.662C95.7746 119.825 95.7141 119.999 95.584 120.11L93.7366 121.688C93.5458 121.852 93.5151 122.135 93.6681 122.321C93.7416 122.411 93.8485 122.466 93.9653 122.474L96.3224 122.634C96.4879 122.645 96.6292 122.749 96.6882 122.904Z" fill="url(#paint11_linear_12817_45006)"/>
<path fill-rule="evenodd" clip-rule="evenodd" d="M201.731 207.346L200.897 209.536C200.811 209.763 200.555 209.869 200.326 209.771C200.215 209.724 200.125 209.633 200.077 209.52L199.575 208.328C199.393 207.898 199.406 207.416 199.61 207.013L200.697 204.864C200.748 204.764 200.707 204.637 200.606 204.582C200.524 204.537 200.424 204.551 200.363 204.617L198.695 206.391C198.356 206.752 197.871 206.936 197.369 206.895L196.366 206.812C196.121 206.792 195.931 206.576 195.94 206.329C195.945 206.209 195.997 206.097 196.085 206.02L197.831 204.492C197.955 204.384 198.005 204.212 197.961 204.048L197.338 201.707C197.274 201.466 197.413 201.225 197.649 201.17C197.762 201.144 197.883 201.165 197.985 201.228L200.042 202.507C200.187 202.597 200.366 202.599 200.505 202.513L202.487 201.282C202.692 201.155 202.966 201.224 203.1 201.437C203.165 201.539 203.187 201.662 203.163 201.777L202.679 204.103C202.645 204.267 202.705 204.44 202.835 204.551L204.683 206.13C204.873 206.293 204.904 206.576 204.751 206.763C204.678 206.852 204.571 206.907 204.454 206.915L202.097 207.075C201.931 207.086 201.79 207.191 201.731 207.346Z" fill="white"/>
<path fill-rule="evenodd" clip-rule="evenodd" d="M201.731 207.346L200.897 209.536C200.811 209.763 200.555 209.869 200.326 209.771C200.215 209.724 200.125 209.633 200.077 209.52L199.575 208.328C199.393 207.898 199.406 207.416 199.61 207.013L200.697 204.864C200.748 204.764 200.707 204.637 200.606 204.582C200.524 204.537 200.424 204.551 200.363 204.617L198.695 206.391C198.356 206.752 197.871 206.936 197.369 206.895L196.366 206.812C196.121 206.792 195.931 206.576 195.94 206.329C195.945 206.209 195.997 206.097 196.085 206.02L197.831 204.492C197.955 204.384 198.005 204.212 197.961 204.048L197.338 201.707C197.274 201.466 197.413 201.225 197.649 201.17C197.762 201.144 197.883 201.165 197.985 201.228L200.042 202.507C200.187 202.597 200.366 202.599 200.505 202.513L202.487 201.282C202.692 201.155 202.966 201.224 203.1 201.437C203.165 201.539 203.187 201.662 203.163 201.777L202.679 204.103C202.645 204.267 202.705 204.44 202.835 204.551L204.683 206.13C204.873 206.293 204.904 206.576 204.751 206.763C204.678 206.852 204.571 206.907 204.454 206.915L202.097 207.075C201.931 207.086 201.79 207.191 201.731 207.346Z" fill="url(#paint12_linear_12817_45006)"/>
<path fill-rule="evenodd" clip-rule="evenodd" d="M136.915 195.846L136.081 198.036C135.995 198.263 135.739 198.369 135.51 198.271C135.399 198.224 135.309 198.133 135.261 198.02L134.759 196.828C134.577 196.398 134.59 195.916 134.794 195.513L135.881 193.364C135.932 193.264 135.891 193.137 135.79 193.082C135.708 193.037 135.609 193.051 135.547 193.117L133.879 194.891C133.54 195.252 133.055 195.436 132.553 195.395L131.55 195.312C131.306 195.292 131.115 195.076 131.125 194.829C131.129 194.709 131.181 194.597 131.269 194.52L133.016 192.992C133.139 192.884 133.189 192.712 133.145 192.548L132.522 190.207C132.458 189.966 132.597 189.725 132.833 189.67C132.946 189.644 133.067 189.665 133.169 189.728L135.226 191.007C135.371 191.097 135.55 191.099 135.689 191.013L137.671 189.782C137.876 189.655 138.15 189.724 138.284 189.937C138.349 190.039 138.372 190.162 138.348 190.277L137.863 192.603C137.829 192.767 137.889 192.94 138.019 193.051L139.867 194.63C140.058 194.793 140.088 195.076 139.935 195.263C139.862 195.352 139.755 195.407 139.638 195.415L137.281 195.575C137.115 195.586 136.974 195.691 136.915 195.846Z" fill="white"/>
<path fill-rule="evenodd" clip-rule="evenodd" d="M136.915 195.846L136.081 198.036C135.995 198.263 135.739 198.369 135.51 198.271C135.399 198.224 135.309 198.133 135.261 198.02L134.759 196.828C134.577 196.398 134.59 195.916 134.794 195.513L135.881 193.364C135.932 193.264 135.891 193.137 135.79 193.082C135.708 193.037 135.609 193.051 135.547 193.117L133.879 194.891C133.54 195.252 133.055 195.436 132.553 195.395L131.55 195.312C131.306 195.292 131.115 195.076 131.125 194.829C131.129 194.709 131.181 194.597 131.269 194.52L133.016 192.992C133.139 192.884 133.189 192.712 133.145 192.548L132.522 190.207C132.458 189.966 132.597 189.725 132.833 189.67C132.946 189.644 133.067 189.665 133.169 189.728L135.226 191.007C135.371 191.097 135.55 191.099 135.689 191.013L137.671 189.782C137.876 189.655 138.15 189.724 138.284 189.937C138.349 190.039 138.372 190.162 138.348 190.277L137.863 192.603C137.829 192.767 137.889 192.94 138.019 193.051L139.867 194.63C140.058 194.793 140.088 195.076 139.935 195.263C139.862 195.352 139.755 195.407 139.638 195.415L137.281 195.575C137.115 195.586 136.974 195.691 136.915 195.846Z" fill="url(#paint13_linear_12817_45006)"/>
<path fill-rule="evenodd" clip-rule="evenodd" d="M302.971 169.859L299.233 169.47C298.844 169.43 298.575 169.077 298.632 168.683C298.66 168.49 298.764 168.313 298.919 168.193L300.559 166.922C301.151 166.464 301.903 166.285 302.612 166.435L306.391 167.233C306.568 167.27 306.746 167.154 306.791 166.975C306.827 166.829 306.764 166.681 306.637 166.613L303.198 164.76C302.499 164.383 302.014 163.707 301.871 162.912L301.585 161.324C301.515 160.937 301.772 160.552 302.159 160.465C302.347 160.423 302.541 160.458 302.696 160.562L305.785 162.638C306.004 162.785 306.29 162.792 306.527 162.656L309.898 160.725C310.246 160.525 310.676 160.642 310.858 160.985C310.946 161.15 310.964 161.346 310.907 161.53L309.774 165.246C309.694 165.507 309.765 165.785 309.956 165.965L312.682 168.529C312.963 168.794 312.969 169.248 312.694 169.544C312.562 169.686 312.382 169.772 312.193 169.782L308.388 169.99C308.12 170.005 307.877 170.17 307.758 170.418L306.073 173.932C305.899 174.295 305.473 174.46 305.121 174.3C304.951 174.223 304.822 174.079 304.762 173.902L303.542 170.314C303.456 170.063 303.236 169.887 302.971 169.859Z" fill="white"/>
<path fill-rule="evenodd" clip-rule="evenodd" d="M302.971 169.859L299.233 169.47C298.844 169.43 298.575 169.077 298.632 168.683C298.66 168.49 298.764 168.313 298.919 168.193L300.559 166.922C301.151 166.464 301.903 166.285 302.612 166.435L306.391 167.233C306.568 167.27 306.746 167.154 306.791 166.975C306.827 166.829 306.764 166.681 306.637 166.613L303.198 164.76C302.499 164.383 302.014 163.707 301.871 162.912L301.585 161.324C301.515 160.937 301.772 160.552 302.159 160.465C302.347 160.423 302.541 160.458 302.696 160.562L305.785 162.638C306.004 162.785 306.29 162.792 306.527 162.656L309.898 160.725C310.246 160.525 310.676 160.642 310.858 160.985C310.946 161.15 310.964 161.346 310.907 161.53L309.774 165.246C309.694 165.507 309.765 165.785 309.956 165.965L312.682 168.529C312.963 168.794 312.969 169.248 312.694 169.544C312.562 169.686 312.382 169.772 312.193 169.782L308.388 169.99C308.12 170.005 307.877 170.17 307.758 170.418L306.073 173.932C305.899 174.295 305.473 174.46 305.121 174.3C304.951 174.223 304.822 174.079 304.762 173.902L303.542 170.314C303.456 170.063 303.236 169.887 302.971 169.859Z" fill="url(#paint14_linear_12817_45006)"/>
<path fill-rule="evenodd" clip-rule="evenodd" d="M17.0094 169.859L20.7474 169.47C21.136 169.43 21.405 169.077 21.348 168.683C21.3202 168.49 21.2169 168.313 21.0615 168.193L19.4215 166.922C18.8294 166.464 18.0777 166.285 17.3689 166.435L13.5892 167.233C13.4129 167.27 13.234 167.154 13.1895 166.975C13.1534 166.829 13.2165 166.681 13.344 166.613L16.7822 164.76C17.4811 164.383 17.9668 163.707 18.1098 162.912L18.3957 161.324C18.4653 160.937 18.2084 160.552 17.8218 160.465C17.6337 160.423 17.44 160.458 17.2841 160.562L14.195 162.638C13.9767 162.785 13.6901 162.792 13.4531 162.656L10.0824 160.725C9.73448 160.525 9.30453 160.642 9.12212 160.985C9.03453 161.15 9.01686 161.346 9.07305 161.53L10.2063 165.246C10.286 165.507 10.2156 165.785 10.0241 165.965L7.29853 168.529C7.01737 168.794 7.01189 169.248 7.28626 169.544C7.41819 169.686 7.59859 169.772 7.78758 169.782L11.5923 169.99C11.8601 170.005 12.1036 170.17 12.2223 170.418L13.907 173.932C14.081 174.295 14.5075 174.46 14.8598 174.3C15.029 174.223 15.1581 174.079 15.2185 173.902L16.4386 170.314C16.5243 170.063 16.7448 169.887 17.0094 169.859Z" fill="white"/>
<path fill-rule="evenodd" clip-rule="evenodd" d="M17.0094 169.859L20.7474 169.47C21.136 169.43 21.405 169.077 21.348 168.683C21.3202 168.49 21.2169 168.313 21.0615 168.193L19.4215 166.922C18.8294 166.464 18.0777 166.285 17.3689 166.435L13.5892 167.233C13.4129 167.27 13.234 167.154 13.1895 166.975C13.1534 166.829 13.2165 166.681 13.344 166.613L16.7822 164.76C17.4811 164.383 17.9668 163.707 18.1098 162.912L18.3957 161.324C18.4653 160.937 18.2084 160.552 17.8218 160.465C17.6337 160.423 17.44 160.458 17.2841 160.562L14.195 162.638C13.9767 162.785 13.6901 162.792 13.4531 162.656L10.0824 160.725C9.73448 160.525 9.30453 160.642 9.12212 160.985C9.03453 161.15 9.01686 161.346 9.07305 161.53L10.2063 165.246C10.286 165.507 10.2156 165.785 10.0241 165.965L7.29853 168.529C7.01737 168.794 7.01189 169.248 7.28626 169.544C7.41819 169.686 7.59859 169.772 7.78758 169.782L11.5923 169.99C11.8601 170.005 12.1036 170.17 12.2223 170.418L13.907 173.932C14.081 174.295 14.5075 174.46 14.8598 174.3C15.029 174.223 15.1581 174.079 15.2185 173.902L16.4386 170.314C16.5243 170.063 16.7448 169.887 17.0094 169.859Z" fill="url(#paint15_linear_12817_45006)"/>
<path fill-rule="evenodd" clip-rule="evenodd" d="M203.535 73.8973L200.902 76.5791C200.628 76.8579 200.185 76.8486 199.912 76.5581C199.778 76.4163 199.704 76.2255 199.707 76.0289L199.735 73.9545C199.745 73.2056 200.074 72.5064 200.632 72.0451L203.611 69.5856C203.75 69.471 203.771 69.259 203.658 69.1122C203.567 68.9933 203.412 68.9505 203.279 69.0074L199.688 70.5428C198.958 70.8549 198.126 70.8138 197.415 70.4303L195.994 69.6641C195.648 69.4775 195.508 69.037 195.68 68.6803C195.764 68.5068 195.912 68.3771 196.091 68.3204L199.64 67.1971C199.89 67.1178 200.074 66.8978 200.116 66.6279L200.705 62.7881C200.766 62.3918 201.125 62.1281 201.507 62.1991C201.69 62.2332 201.855 62.3415 201.964 62.5001L204.164 65.7015C204.319 65.9265 204.58 66.0446 204.84 66.0071L208.544 65.4726C208.926 65.4175 209.285 65.6961 209.345 66.0949C209.374 66.2867 209.329 66.4813 209.22 66.6356L207.012 69.7416C206.857 69.9602 206.834 70.2536 206.954 70.5006L208.654 74.0079C208.829 74.3702 208.692 74.8063 208.347 74.982C208.182 75.0665 207.989 75.0783 207.813 75.0148L204.247 73.7344C203.996 73.6445 203.721 73.7074 203.535 73.8973Z" fill="white"/>
<path fill-rule="evenodd" clip-rule="evenodd" d="M203.535 73.8973L200.902 76.5791C200.628 76.8579 200.185 76.8486 199.912 76.5581C199.778 76.4163 199.704 76.2255 199.707 76.0289L199.735 73.9545C199.745 73.2056 200.074 72.5064 200.632 72.0451L203.611 69.5856C203.75 69.471 203.771 69.259 203.658 69.1122C203.567 68.9933 203.412 68.9505 203.279 69.0074L199.688 70.5428C198.958 70.8549 198.126 70.8138 197.415 70.4303L195.994 69.6641C195.648 69.4775 195.508 69.037 195.68 68.6803C195.764 68.5068 195.912 68.3771 196.091 68.3204L199.64 67.1971C199.89 67.1178 200.074 66.8978 200.116 66.6279L200.705 62.7881C200.766 62.3918 201.125 62.1281 201.507 62.1991C201.69 62.2332 201.855 62.3415 201.964 62.5001L204.164 65.7015C204.319 65.9265 204.58 66.0446 204.84 66.0071L208.544 65.4726C208.926 65.4175 209.285 65.6961 209.345 66.0949C209.374 66.2867 209.329 66.4813 209.22 66.6356L207.012 69.7416C206.857 69.9602 206.834 70.2536 206.954 70.5006L208.654 74.0079C208.829 74.3702 208.692 74.8063 208.347 74.982C208.182 75.0665 207.989 75.0783 207.813 75.0148L204.247 73.7344C203.996 73.6445 203.721 73.7074 203.535 73.8973Z" fill="url(#paint16_linear_12817_45006)"/>
<path fill-rule="evenodd" clip-rule="evenodd" d="M111.77 61.3524L114.403 64.0342C114.677 64.313 115.12 64.3037 115.394 64.0132C115.527 63.8714 115.601 63.6805 115.598 63.484L115.57 61.4096C115.56 60.6607 115.232 59.9614 114.673 59.5002L111.694 57.0407C111.555 56.926 111.534 56.7141 111.647 56.5673C111.738 56.4484 111.893 56.4056 112.026 56.4625L115.618 57.9979C116.348 58.31 117.179 58.2688 117.89 57.8854L119.311 57.1192C119.657 56.9326 119.798 56.4921 119.625 56.1354C119.541 55.9618 119.393 55.8322 119.214 55.7755L115.666 54.6522C115.415 54.5729 115.231 54.3529 115.189 54.083L114.6 50.2432C114.539 49.8469 114.18 49.5832 113.798 49.6542C113.615 49.6883 113.451 49.7966 113.342 49.9552L111.141 53.1566C110.986 53.3816 110.725 53.4997 110.465 53.4622L106.761 52.9277C106.379 52.8725 106.02 53.1512 105.96 53.55C105.931 53.7418 105.976 53.9363 106.086 54.0906L108.293 57.1966C108.448 57.4152 108.471 57.7087 108.351 57.9557L106.651 61.463C106.476 61.8253 106.613 62.2614 106.958 62.4371C107.123 62.5215 107.316 62.5333 107.492 62.4699L111.059 61.1895C111.309 61.0996 111.584 61.1625 111.77 61.3524Z" fill="white"/>
<path fill-rule="evenodd" clip-rule="evenodd" d="M111.77 61.3524L114.403 64.0342C114.677 64.313 115.12 64.3037 115.394 64.0132C115.527 63.8714 115.601 63.6805 115.598 63.484L115.57 61.4096C115.56 60.6607 115.232 59.9614 114.673 59.5002L111.694 57.0407C111.555 56.926 111.534 56.7141 111.647 56.5673C111.738 56.4484 111.893 56.4056 112.026 56.4625L115.618 57.9979C116.348 58.31 117.179 58.2688 117.89 57.8854L119.311 57.1192C119.657 56.9326 119.798 56.4921 119.625 56.1354C119.541 55.9618 119.393 55.8322 119.214 55.7755L115.666 54.6522C115.415 54.5729 115.231 54.3529 115.189 54.083L114.6 50.2432C114.539 49.8469 114.18 49.5832 113.798 49.6542C113.615 49.6883 113.451 49.7966 113.342 49.9552L111.141 53.1566C110.986 53.3816 110.725 53.4997 110.465 53.4622L106.761 52.9277C106.379 52.8725 106.02 53.1512 105.96 53.55C105.931 53.7418 105.976 53.9363 106.086 54.0906L108.293 57.1966C108.448 57.4152 108.471 57.7087 108.351 57.9557L106.651 61.463C106.476 61.8253 106.613 62.2614 106.958 62.4371C107.123 62.5215 107.316 62.5333 107.492 62.4699L111.059 61.1895C111.309 61.0996 111.584 61.1625 111.77 61.3524Z" fill="url(#paint17_linear_12817_45006)"/>
<path fill-rule="evenodd" clip-rule="evenodd" d="M294.804 120.381L292.148 120.104C291.872 120.076 291.681 119.825 291.721 119.544C291.741 119.408 291.815 119.282 291.925 119.197L293.09 118.294C293.511 117.968 294.045 117.841 294.549 117.947L297.235 118.514C297.36 118.541 297.487 118.459 297.519 118.331C297.544 118.227 297.499 118.122 297.409 118.074L294.966 116.757C294.469 116.49 294.124 116.009 294.022 115.444L293.819 114.315C293.77 114.041 293.952 113.767 294.227 113.705C294.361 113.675 294.498 113.7 294.609 113.775L296.804 115.25C296.959 115.354 297.163 115.359 297.331 115.262L299.726 113.89C299.974 113.748 300.279 113.831 300.409 114.075C300.471 114.192 300.483 114.331 300.443 114.462L299.638 117.102C299.582 117.288 299.632 117.485 299.768 117.613L301.704 119.436C301.904 119.623 301.908 119.946 301.713 120.156C301.619 120.257 301.491 120.318 301.357 120.326L298.653 120.474C298.463 120.484 298.29 120.601 298.206 120.777L297.009 123.275C296.885 123.533 296.582 123.649 296.332 123.536C296.211 123.481 296.12 123.379 296.077 123.253L295.21 120.704C295.149 120.525 294.992 120.4 294.804 120.381Z" fill="white"/>
<path fill-rule="evenodd" clip-rule="evenodd" d="M294.804 120.381L292.148 120.104C291.872 120.076 291.681 119.825 291.721 119.544C291.741 119.408 291.815 119.282 291.925 119.197L293.09 118.294C293.511 117.968 294.045 117.841 294.549 117.947L297.235 118.514C297.36 118.541 297.487 118.459 297.519 118.331C297.544 118.227 297.499 118.122 297.409 118.074L294.966 116.757C294.469 116.49 294.124 116.009 294.022 115.444L293.819 114.315C293.77 114.041 293.952 113.767 294.227 113.705C294.361 113.675 294.498 113.7 294.609 113.775L296.804 115.25C296.959 115.354 297.163 115.359 297.331 115.262L299.726 113.89C299.974 113.748 300.279 113.831 300.409 114.075C300.471 114.192 300.483 114.331 300.443 114.462L299.638 117.102C299.582 117.288 299.632 117.485 299.768 117.613L301.704 119.436C301.904 119.623 301.908 119.946 301.713 120.156C301.619 120.257 301.491 120.318 301.357 120.326L298.653 120.474C298.463 120.484 298.29 120.601 298.206 120.777L297.009 123.275C296.885 123.533 296.582 123.649 296.332 123.536C296.211 123.481 296.12 123.379 296.077 123.253L295.21 120.704C295.149 120.525 294.992 120.4 294.804 120.381Z" fill="url(#paint18_linear_12817_45006)"/>
<path fill-rule="evenodd" clip-rule="evenodd" d="M16.2397 122.47L18.8958 122.194C19.1719 122.165 19.3631 121.915 19.3226 121.634C19.3028 121.497 19.2294 121.372 19.119 121.286L17.9536 120.384C17.5329 120.058 16.9988 119.931 16.4952 120.037L13.8094 120.604C13.6842 120.631 13.5571 120.548 13.5254 120.421C13.4998 120.317 13.5446 120.212 13.6352 120.163L16.0783 118.847C16.5749 118.579 16.92 118.099 17.0216 117.534L17.2247 116.405C17.2742 116.13 17.0916 115.857 16.8169 115.795C16.6833 115.765 16.5457 115.79 16.4349 115.864L14.2399 117.339C14.0848 117.444 13.8811 117.448 13.7128 117.352L11.3177 115.98C11.0704 115.838 10.7649 115.921 10.6353 116.165C10.5731 116.282 10.5605 116.421 10.6005 116.552L11.4057 119.192C11.4623 119.378 11.4123 119.575 11.2762 119.703L9.33955 121.525C9.13977 121.713 9.13588 122.036 9.33083 122.246C9.42458 122.347 9.55276 122.408 9.68705 122.415L12.3905 122.564C12.5809 122.574 12.7539 122.691 12.8382 122.867L14.0352 125.365C14.1589 125.622 14.462 125.739 14.7123 125.625C14.8325 125.571 14.9242 125.469 14.9672 125.343L15.8341 122.794C15.895 122.615 16.0517 122.49 16.2397 122.47Z" fill="white"/>
<path fill-rule="evenodd" clip-rule="evenodd" d="M16.2397 122.47L18.8958 122.194C19.1719 122.165 19.3631 121.915 19.3226 121.634C19.3028 121.497 19.2294 121.372 19.119 121.286L17.9536 120.384C17.5329 120.058 16.9988 119.931 16.4952 120.037L13.8094 120.604C13.6842 120.631 13.5571 120.548 13.5254 120.421C13.4998 120.317 13.5446 120.212 13.6352 120.163L16.0783 118.847C16.5749 118.579 16.92 118.099 17.0216 117.534L17.2247 116.405C17.2742 116.13 17.0916 115.857 16.8169 115.795C16.6833 115.765 16.5457 115.79 16.4349 115.864L14.2399 117.339C14.0848 117.444 13.8811 117.448 13.7128 117.352L11.3177 115.98C11.0704 115.838 10.7649 115.921 10.6353 116.165C10.5731 116.282 10.5605 116.421 10.6005 116.552L11.4057 119.192C11.4623 119.378 11.4123 119.575 11.2762 119.703L9.33955 121.525C9.13977 121.713 9.13588 122.036 9.33083 122.246C9.42458 122.347 9.55276 122.408 9.68705 122.415L12.3905 122.564C12.5809 122.574 12.7539 122.691 12.8382 122.867L14.0352 125.365C14.1589 125.622 14.462 125.739 14.7123 125.625C14.8325 125.571 14.9242 125.469 14.9672 125.343L15.8341 122.794C15.895 122.615 16.0517 122.49 16.2397 122.47Z" fill="url(#paint19_linear_12817_45006)"/>
<path fill-rule="evenodd" clip-rule="evenodd" d="M262.378 142.351L260.904 146.003C260.751 146.383 260.318 146.552 259.937 146.38C259.751 146.296 259.603 146.141 259.527 145.949L258.722 143.93C258.431 143.201 258.469 142.392 258.825 141.721L260.724 138.146C260.812 137.979 260.748 137.765 260.58 137.668C260.443 137.59 260.276 137.611 260.17 137.719L257.308 140.645C256.727 141.24 255.905 141.533 255.063 141.447L253.38 141.275C252.97 141.233 252.658 140.863 252.682 140.448C252.694 140.247 252.785 140.062 252.936 139.935L255.921 137.425C256.132 137.248 256.222 136.961 256.154 136.683L255.185 132.729C255.085 132.321 255.327 131.922 255.725 131.837C255.916 131.797 256.119 131.836 256.288 131.946L259.702 134.163C259.942 134.319 260.242 134.329 260.479 134.188L263.851 132.186C264.199 131.979 264.658 132.105 264.877 132.467C264.982 132.641 265.016 132.848 264.971 133.041L264.079 136.933C264.016 137.207 264.112 137.5 264.327 137.691L267.379 140.406C267.694 140.686 267.736 141.164 267.473 141.472C267.346 141.62 267.165 141.709 266.968 141.718L263.002 141.908C262.724 141.921 262.483 142.092 262.378 142.351Z" fill="white"/>
<path fill-rule="evenodd" clip-rule="evenodd" d="M262.378 142.351L260.904 146.003C260.751 146.383 260.318 146.552 259.937 146.38C259.751 146.296 259.603 146.141 259.527 145.949L258.722 143.93C258.431 143.201 258.469 142.392 258.825 141.721L260.724 138.146C260.812 137.979 260.748 137.765 260.58 137.668C260.443 137.59 260.276 137.611 260.17 137.719L257.308 140.645C256.727 141.24 255.905 141.533 255.063 141.447L253.38 141.275C252.97 141.233 252.658 140.863 252.682 140.448C252.694 140.247 252.785 140.062 252.936 139.935L255.921 137.425C256.132 137.248 256.222 136.961 256.154 136.683L255.185 132.729C255.085 132.321 255.327 131.922 255.725 131.837C255.916 131.797 256.119 131.836 256.288 131.946L259.702 134.163C259.942 134.319 260.242 134.329 260.479 134.188L263.851 132.186C264.199 131.979 264.658 132.105 264.877 132.467C264.982 132.641 265.016 132.848 264.971 133.041L264.079 136.933C264.016 137.207 264.112 137.5 264.327 137.691L267.379 140.406C267.694 140.686 267.736 141.164 267.473 141.472C267.346 141.62 267.165 141.709 266.968 141.718L263.002 141.908C262.724 141.921 262.483 142.092 262.378 142.351Z" fill="url(#paint20_linear_12817_45006)"/>
<path fill-rule="evenodd" clip-rule="evenodd" d="M57.6019 142.351L59.076 146.003C59.2293 146.383 59.6624 146.552 60.0435 146.38C60.2295 146.296 60.3775 146.141 60.4537 145.949L61.2583 143.93C61.5488 143.201 61.5109 142.392 61.1549 141.721L59.2565 138.146C59.168 137.979 59.2325 137.765 59.4007 137.668C59.5368 137.59 59.704 137.611 59.8101 137.719L62.6718 140.645C63.2535 141.24 64.0748 141.533 64.9171 141.447L66.5999 141.275C67.0098 141.233 67.3226 140.863 67.2984 140.448C67.2867 140.247 67.1952 140.062 67.0446 139.935L64.0594 137.425C63.8485 137.248 63.7586 136.961 63.8266 136.683L64.7953 132.729C64.8952 132.321 64.6534 131.922 64.2551 131.837C64.0638 131.797 63.8613 131.836 63.6921 131.946L60.2781 134.163C60.0381 134.319 59.7377 134.329 59.5008 134.188L56.1288 132.186C55.781 131.979 55.322 132.105 55.1037 132.467C54.9986 132.641 54.9645 132.848 55.0088 133.041L55.9009 136.933C55.9638 137.207 55.8679 137.5 55.653 137.691L52.6012 140.406C52.286 140.686 52.244 141.164 52.5073 141.472C52.6338 141.62 52.8153 141.709 53.0118 141.718L56.9781 141.908C57.2566 141.921 57.4975 142.092 57.6019 142.351Z" fill="white"/>
<path fill-rule="evenodd" clip-rule="evenodd" d="M57.6019 142.351L59.076 146.003C59.2293 146.383 59.6624 146.552 60.0435 146.38C60.2295 146.296 60.3775 146.141 60.4537 145.949L61.2583 143.93C61.5488 143.201 61.5109 142.392 61.1549 141.721L59.2565 138.146C59.168 137.979 59.2325 137.765 59.4007 137.668C59.5368 137.59 59.704 137.611 59.8101 137.719L62.6718 140.645C63.2535 141.24 64.0748 141.533 64.9171 141.447L66.5999 141.275C67.0098 141.233 67.3226 140.863 67.2984 140.448C67.2867 140.247 67.1952 140.062 67.0446 139.935L64.0594 137.425C63.8485 137.248 63.7586 136.961 63.8266 136.683L64.7953 132.729C64.8952 132.321 64.6534 131.922 64.2551 131.837C64.0638 131.797 63.8613 131.836 63.6921 131.946L60.2781 134.163C60.0381 134.319 59.7377 134.329 59.5008 134.188L56.1288 132.186C55.781 131.979 55.322 132.105 55.1037 132.467C54.9986 132.641 54.9645 132.848 55.0088 133.041L55.9009 136.933C55.9638 137.207 55.8679 137.5 55.653 137.691L52.6012 140.406C52.286 140.686 52.244 141.164 52.5073 141.472C52.6338 141.62 52.8153 141.709 53.0118 141.718L56.9781 141.908C57.2566 141.921 57.4975 142.092 57.6019 142.351Z" fill="url(#paint21_linear_12817_45006)"/>
<path d="M159.457 85.4087C152.287 85.4087 146.415 90.9602 145.903 97.9989C145.863 98.5498 145.419 98.999 144.866 98.999H137.458C136.905 98.999 136.456 98.5501 136.479 97.9984C137.003 85.7606 147.09 76 159.457 76C172.159 76 182.456 86.297 182.456 98.999V125.134H173.047V98.999C173.047 91.4933 166.963 85.4087 159.457 85.4087Z" fill="url(#paint22_linear_12817_45006)"/>
<path d="M159.457 76C155.935 76 152.598 76.792 149.614 78.207C146.993 79.4506 144.644 81.1758 142.681 83.2676C146.795 79.4094 152.326 77.046 158.411 77.0459C171.113 77.0459 181.41 87.3429 181.41 100.045V125.135H182.456V98.999C182.456 86.297 172.159 76 159.457 76ZM149.34 89.9258C146.809 92.1961 145.136 95.4019 144.862 98.999H144.875C145.422 98.999 145.864 98.5548 145.903 98.0088Lnan nanL145.903 98.0088C145.925 97.7081 145.956 97.4102 145.997 97.1152C146.001 97.0846 146.006 97.054 146.01 97.0234C146.036 96.8478 146.065 96.6734 146.097 96.5C146.104 96.4651 146.11 96.4303 146.117 96.3955C146.151 96.2175 146.189 96.0407 146.23 95.8652C146.237 95.8375 146.244 95.8099 146.251 95.7822C146.441 94.9988 146.699 94.2423 147.018 93.5186C147.026 93.5013 147.033 93.484 147.041 93.4668C147.117 93.2959 147.197 93.127 147.28 92.96C147.287 92.9454 147.294 92.9306 147.302 92.916C147.387 92.7456 147.476 92.5773 147.568 92.4111C147.574 92.3997 147.581 92.3884 147.588 92.377C148.081 91.4946 148.669 90.6728 149.34 89.9258Z" fill="url(#paint23_linear_12817_45006)"/>
<path d="M161.548 83.3174C157.265 83.3174 153.448 85.3001 150.957 88.3955C151.967 87.5844 153.096 86.9151 154.313 86.417C154.33 86.4102 154.346 86.4032 154.363 86.3965C154.864 86.1937 155.38 86.0196 155.909 85.877C155.943 85.8676 155.978 85.8586 156.012 85.8496C156.17 85.8085 156.328 85.7699 156.488 85.7344C156.515 85.7283 156.543 85.7227 156.57 85.7168C156.731 85.6819 156.893 85.6492 157.056 85.6201C157.106 85.6112 157.157 85.6031 157.207 85.5947C157.327 85.5747 157.448 85.5559 157.569 85.5391C157.618 85.5323 157.667 85.5248 157.716 85.5186C157.875 85.4982 158.034 85.4816 158.195 85.4668C158.238 85.4628 158.281 85.4586 158.324 85.4551C158.476 85.4425 158.629 85.4333 158.782 85.4258C158.843 85.4228 158.905 85.4202 158.967 85.418C159.097 85.4133 159.228 85.4111 159.359 85.4102C159.392 85.4099 159.424 85.4082 159.457 85.4082C160.16 85.4082 160.851 85.4614 161.526 85.5645C161.639 85.5816 161.751 85.6002 161.862 85.6201C162.531 85.7396 163.184 85.9084 163.815 86.1221C164.026 86.1933 164.234 86.2694 164.44 86.3506C164.646 86.4317 164.849 86.5177 165.05 86.6084C165.25 86.6992 165.449 86.7944 165.644 86.8945C167.109 87.6449 168.42 88.6538 169.516 89.8604C169.663 90.0213 169.806 90.1856 169.944 90.3535C170.36 90.8569 170.739 91.3908 171.08 91.9512C171.137 92.0445 171.192 92.1386 171.247 92.2334C172.283 94.0357 172.917 96.0983 173.029 98.2988C173.035 98.4147 173.04 98.5309 173.043 98.6475C173.046 98.764 173.047 98.8808 173.047 98.998V125.134H182.456V123.043H175.137V96.9072C175.137 89.4016 169.053 83.3174 161.548 83.3174ZM144.275 81.7246C143.99 81.9758 143.71 82.2341 143.437 82.499C143.416 82.5199 143.394 82.5406 143.373 82.5615C142.96 82.9656 142.562 83.3853 142.18 83.8193C142.176 83.8238 142.173 83.8285 142.169 83.833C141.251 84.8786 140.426 86.0085 139.708 87.209C139.7 87.2224 139.691 87.2356 139.683 87.249C139.489 87.5752 139.303 87.9068 139.125 88.2432C139.114 88.2644 139.102 88.2854 139.091 88.3066C138.923 88.6245 138.764 88.947 138.611 89.2734C138.423 89.6761 138.246 90.085 138.081 90.5C137.787 91.2373 137.53 91.9931 137.313 92.7656C136.843 94.4407 136.557 96.193 136.479 97.9993C136.455 98.5511 136.905 98.999 137.458 98.999H138.549V96.9072C138.549 91.0882 140.712 85.7753 144.275 81.7246Z" fill="url(#paint24_linear_12817_45006)"/>
<path d="M128.115 114.996C128.115 112.687 129.987 110.814 132.297 110.814H186.658C188.967 110.814 190.84 112.687 190.84 114.996V156.813C190.84 159.122 188.967 160.994 186.658 160.994H132.297C129.987 160.994 128.115 159.122 128.115 156.813V114.996Z" fill="url(#paint25_linear_12817_45006)"/>
<path d="M186.658 110.814C186.892 110.814 187.121 110.834 187.344 110.871L137.221 160.994H132.297C131.271 160.994 130.332 160.625 129.604 160.012L178.803 110.814H186.658ZM190.84 156.813C190.84 159.122 188.967 160.994 186.658 160.994H166.552L190.84 136.707V156.813ZM128.115 154.419V148.116L165.417 110.814H171.72L128.115 154.419ZM128.115 130.375V114.996C128.115 112.687 129.987 110.814 132.297 110.814H147.676L128.115 130.375Z" fill="url(#paint26_linear_12817_45006)"/>
<path d="M159.477 125.449C161.787 125.449 163.659 127.321 163.659 129.631C163.659 131.178 162.818 132.528 161.568 133.251V144.267C161.568 145.421 160.632 146.357 159.477 146.357C158.323 146.357 157.386 145.421 157.386 144.267V133.251C156.137 132.528 155.296 131.178 155.296 129.631C155.296 127.321 157.168 125.449 159.477 125.449Z" fill="black"/>
<path d="M162.16 126.425C163.076 127.192 163.659 128.343 163.659 129.631C163.659 131.179 162.817 132.528 161.568 133.252V144.267C161.568 145.422 160.632 146.358 159.477 146.358C158.766 146.358 158.14 146.002 157.762 145.46C158.1 145.695 158.511 145.835 158.954 145.835C160.109 145.835 161.045 144.899 161.045 143.745V132.729C162.295 132.006 163.136 130.656 163.136 129.109C163.136 128.087 162.769 127.151 162.16 126.425ZM156.272 132.312C156.457 132.467 156.654 132.608 156.864 132.729V132.89C156.648 132.717 156.45 132.524 156.272 132.312Z" fill="#392B00"/>
<path d="M186.658 110.814C188.079 110.814 189.335 111.524 190.09 112.608C189.413 112.137 188.591 111.86 187.703 111.86H133.342C131.033 111.86 129.16 113.732 129.16 116.042V157.858C129.16 158.745 129.437 159.568 129.909 160.245C128.825 159.489 128.115 158.234 128.115 156.812V114.996C128.115 112.687 129.987 110.814 132.297 110.814H186.658Z" fill="url(#paint27_linear_12817_45006)"/>
<defs>
<radialGradient id="paint0_radial_12817_45006" cx="0" cy="0" r="1" gradientUnits="userSpaceOnUse" gradientTransform="translate(160 130.676) scale(159.425 130.676)">
<stop stop-color="#FEC910" stop-opacity="0.2"/>
<stop offset="1" stop-color="#FEC910" stop-opacity="0"/>
</radialGradient>
<radialGradient id="paint1_radial_12817_45006" cx="0" cy="0" r="1" gradientUnits="userSpaceOnUse" gradientTransform="translate(160 130.677) scale(145.835 126.368)">
<stop stop-color="#FEC910"/>
<stop offset="1" stop-color="#FEC910" stop-opacity="0"/>
</radialGradient>
<radialGradient id="paint2_radial_12817_45006" cx="0" cy="0" r="1" gradientUnits="userSpaceOnUse" gradientTransform="translate(159.611 130.398) rotate(-30) scale(118.559 118.559)">
<stop stop-color="#FEC910"/>
<stop offset="1" stop-color="#FEC910" stop-opacity="0"/>
</radialGradient>
<radialGradient id="paint3_radial_12817_45006" cx="0" cy="0" r="1" gradientUnits="userSpaceOnUse" gradientTransform="translate(159.477 130.397) rotate(-109.863) scale(117.606 119.718)">
<stop stop-color="#FEC910"/>
<stop offset="1" stop-color="#FEC910" stop-opacity="0"/>
</radialGradient>
<radialGradient id="paint4_radial_12817_45006" cx="0" cy="0" r="1" gradientUnits="userSpaceOnUse" gradientTransform="translate(159.477 130.398) rotate(-68.6817) scale(117.606 119.718)">
<stop stop-color="#FEC910"/>
<stop offset="1" stop-color="#FEC910" stop-opacity="0"/>
</radialGradient>
<radialGradient id="paint5_radial_12817_45006" cx="0" cy="0" r="1" gradientUnits="userSpaceOnUse" gradientTransform="translate(159.611 130.956) rotate(30) scale(118.559 118.559)">
<stop stop-color="#FEC910"/>
<stop offset="1" stop-color="#FEC910" stop-opacity="0"/>
</radialGradient>
<linearGradient id="paint6_linear_12817_45006" x1="221.146" y1="95.1544" x2="315.757" y2="65.969" gradientUnits="userSpaceOnUse">
<stop stop-color="#FDEB32"/>
<stop offset="0.439058" stop-color="#FEBD04"/>
<stop offset="1" stop-color="#D75902"/>
</linearGradient>
<linearGradient id="paint7_linear_12817_45006" x1="97.4185" y1="96.1994" x2="2.80782" y2="67.0139" gradientUnits="userSpaceOnUse">
<stop stop-color="#FDEB32"/>
<stop offset="0.439058" stop-color="#FEBD04"/>
<stop offset="1" stop-color="#D75902"/>
</linearGradient>
<linearGradient id="paint8_linear_12817_45006" x1="233.298" y1="212.573" x2="267.691" y2="119.729" gradientUnits="userSpaceOnUse">
<stop stop-color="#FDEB32"/>
<stop offset="0.439058" stop-color="#FEBD04"/>
<stop offset="1" stop-color="#D75902"/>
</linearGradient>
<linearGradient id="paint9_linear_12817_45006" x1="90.5634" y1="219.891" x2="56.1708" y2="127.046" gradientUnits="userSpaceOnUse">
<stop stop-color="#FDEB32"/>
<stop offset="0.439058" stop-color="#FEBD04"/>
<stop offset="1" stop-color="#D75902"/>
</linearGradient>
<linearGradient id="paint10_linear_12817_45006" x1="219.577" y1="142.835" x2="222.384" y2="117.572" gradientUnits="userSpaceOnUse">
<stop stop-color="#FDEB32"/>
<stop offset="0.439058" stop-color="#FEBD04"/>
<stop offset="1" stop-color="#D75902"/>
</linearGradient>
<linearGradient id="paint11_linear_12817_45006" x1="98.7043" y1="128.437" x2="95.8981" y2="103.173" gradientUnits="userSpaceOnUse">
<stop stop-color="#FDEB32"/>
<stop offset="0.439058" stop-color="#FEBD04"/>
<stop offset="1" stop-color="#D75902"/>
</linearGradient>
<linearGradient id="paint12_linear_12817_45006" x1="199.715" y1="212.878" x2="202.521" y2="187.615" gradientUnits="userSpaceOnUse">
<stop stop-color="#FDEB32"/>
<stop offset="0.439058" stop-color="#FEBD04"/>
<stop offset="1" stop-color="#D75902"/>
</linearGradient>
<linearGradient id="paint13_linear_12817_45006" x1="134.899" y1="201.378" x2="137.705" y2="176.115" gradientUnits="userSpaceOnUse">
<stop stop-color="#FDEB32"/>
<stop offset="0.439058" stop-color="#FEBD04"/>
<stop offset="1" stop-color="#D75902"/>
</linearGradient>
<linearGradient id="paint14_linear_12817_45006" x1="293.565" y1="169.017" x2="333.878" y2="162.944" gradientUnits="userSpaceOnUse">
<stop stop-color="#FDEB32"/>
<stop offset="0.439058" stop-color="#FEBD04"/>
<stop offset="1" stop-color="#D75902"/>
</linearGradient>
<linearGradient id="paint15_linear_12817_45006" x1="26.4158" y1="169.017" x2="-13.8976" y2="162.944" gradientUnits="userSpaceOnUse">
<stop stop-color="#FDEB32"/>
<stop offset="0.439058" stop-color="#FEBD04"/>
<stop offset="1" stop-color="#D75902"/>
</linearGradient>
<linearGradient id="paint16_linear_12817_45006" x1="197.016" y1="80.7306" x2="217.38" y2="45.4125" gradientUnits="userSpaceOnUse">
<stop stop-color="#FDEB32"/>
<stop offset="0.439058" stop-color="#FEBD04"/>
<stop offset="1" stop-color="#D75902"/>
</linearGradient>
<linearGradient id="paint17_linear_12817_45006" x1="118.289" y1="68.1857" x2="97.9253" y2="32.8676" gradientUnits="userSpaceOnUse">
<stop stop-color="#FDEB32"/>
<stop offset="0.439058" stop-color="#FEBD04"/>
<stop offset="1" stop-color="#D75902"/>
</linearGradient>
<linearGradient id="paint18_linear_12817_45006" x1="288.12" y1="119.782" x2="316.766" y2="115.467" gradientUnits="userSpaceOnUse">
<stop stop-color="#FDEB32"/>
<stop offset="0.439058" stop-color="#FEBD04"/>
<stop offset="1" stop-color="#D75902"/>
</linearGradient>
<linearGradient id="paint19_linear_12817_45006" x1="22.9236" y1="121.872" x2="-5.72156" y2="117.556" gradientUnits="userSpaceOnUse">
<stop stop-color="#FDEB32"/>
<stop offset="0.439058" stop-color="#FEBD04"/>
<stop offset="1" stop-color="#D75902"/>
</linearGradient>
<linearGradient id="paint20_linear_12817_45006" x1="258.806" y1="151.581" x2="264.365" y2="109.22" gradientUnits="userSpaceOnUse">
<stop stop-color="#FDEB32"/>
<stop offset="0.439058" stop-color="#FEBD04"/>
<stop offset="1" stop-color="#D75902"/>
</linearGradient>
<linearGradient id="paint21_linear_12817_45006" x1="61.1745" y1="151.581" x2="55.6154" y2="109.22" gradientUnits="userSpaceOnUse">
<stop stop-color="#FDEB32"/>
<stop offset="0.439058" stop-color="#FEBD04"/>
<stop offset="1" stop-color="#D75902"/>
</linearGradient>
<linearGradient id="paint22_linear_12817_45006" x1="159.457" y1="76" x2="159.457" y2="125.134" gradientUnits="userSpaceOnUse">
<stop stop-color="#E6F3F1"/>
<stop offset="1" stop-color="#858D8B"/>
</linearGradient>
<linearGradient id="paint23_linear_12817_45006" x1="159.457" y1="76" x2="159.457" y2="162.246" gradientUnits="userSpaceOnUse">
<stop stop-color="white"/>
<stop offset="1" stop-color="#858D8B"/>
</linearGradient>
<linearGradient id="paint24_linear_12817_45006" x1="159.457" y1="32.6148" x2="159.457" y2="125.134" gradientUnits="userSpaceOnUse">
<stop stop-color="#E6F3F1"/>
<stop offset="1" stop-color="#858D8B"/>
</linearGradient>
<linearGradient id="paint25_linear_12817_45006" x1="122.661" y1="171.898" x2="217.633" y2="43.9491" gradientUnits="userSpaceOnUse">
<stop stop-color="#FDEB32"/>
<stop offset="0.439058" stop-color="#FEBD04"/>
<stop offset="1" stop-color="#D75902"/>
</linearGradient>
<linearGradient id="paint26_linear_12817_45006" x1="122.661" y1="171.898" x2="194.821" y2="-28.5479" gradientUnits="userSpaceOnUse">
<stop stop-color="#FDEB32"/>
<stop offset="0.439058" stop-color="#FEBD04"/>
<stop offset="1" stop-color="#D75902"/>
</linearGradient>
<linearGradient id="paint27_linear_12817_45006" x1="112.434" y1="110.814" x2="188.321" y2="222.73" gradientUnits="userSpaceOnUse">
<stop stop-color="white"/>
<stop offset="0.439058" stop-color="#FEBD04"/>
<stop offset="1" stop-color="#D75902"/>
</linearGradient>
</defs>
</svg>
